%TF.GenerationSoftware,KiCad,Pcbnew,9.0.0*%
%TF.CreationDate,2025-05-13T09:42:48-05:00*%
%TF.ProjectId,Refraction Cell Circuit,52656672-6163-4746-996f-6e2043656c6c,rev?*%
%TF.SameCoordinates,Original*%
%TF.FileFunction,Copper,L1,Top*%
%TF.FilePolarity,Positive*%
%FSLAX46Y46*%
G04 Gerber Fmt 4.6, Leading zero omitted, Abs format (unit mm)*
G04 Created by KiCad (PCBNEW 9.0.0) date 2025-05-13 09:42:49*
%MOMM*%
%LPD*%
G01*
G04 APERTURE LIST*
G04 Aperture macros list*
%AMRoundRect*
0 Rectangle with rounded corners*
0 $1 Rounding radius*
0 $2 $3 $4 $5 $6 $7 $8 $9 X,Y pos of 4 corners*
0 Add a 4 corners polygon primitive as box body*
4,1,4,$2,$3,$4,$5,$6,$7,$8,$9,$2,$3,0*
0 Add four circle primitives for the rounded corners*
1,1,$1+$1,$2,$3*
1,1,$1+$1,$4,$5*
1,1,$1+$1,$6,$7*
1,1,$1+$1,$8,$9*
0 Add four rect primitives between the rounded corners*
20,1,$1+$1,$2,$3,$4,$5,0*
20,1,$1+$1,$4,$5,$6,$7,0*
20,1,$1+$1,$6,$7,$8,$9,0*
20,1,$1+$1,$8,$9,$2,$3,0*%
%AMOutline5P*
0 Free polygon, 5 corners , with rotation*
0 The origin of the aperture is its center*
0 number of corners: always 5*
0 $1 to $10 corner X, Y*
0 $11 Rotation angle, in degrees counterclockwise*
0 create outline with 5 corners*
4,1,5,$1,$2,$3,$4,$5,$6,$7,$8,$9,$10,$1,$2,$11*%
%AMOutline6P*
0 Free polygon, 6 corners , with rotation*
0 The origin of the aperture is its center*
0 number of corners: always 6*
0 $1 to $12 corner X, Y*
0 $13 Rotation angle, in degrees counterclockwise*
0 create outline with 6 corners*
4,1,6,$1,$2,$3,$4,$5,$6,$7,$8,$9,$10,$11,$12,$1,$2,$13*%
%AMOutline7P*
0 Free polygon, 7 corners , with rotation*
0 The origin of the aperture is its center*
0 number of corners: always 7*
0 $1 to $14 corner X, Y*
0 $15 Rotation angle, in degrees counterclockwise*
0 create outline with 7 corners*
4,1,7,$1,$2,$3,$4,$5,$6,$7,$8,$9,$10,$11,$12,$13,$14,$1,$2,$15*%
%AMOutline8P*
0 Free polygon, 8 corners , with rotation*
0 The origin of the aperture is its center*
0 number of corners: always 8*
0 $1 to $16 corner X, Y*
0 $17 Rotation angle, in degrees counterclockwise*
0 create outline with 8 corners*
4,1,8,$1,$2,$3,$4,$5,$6,$7,$8,$9,$10,$11,$12,$13,$14,$15,$16,$1,$2,$17*%
G04 Aperture macros list end*
%TA.AperFunction,SMDPad,CuDef*%
%ADD10RoundRect,0.250000X0.250000X0.475000X-0.250000X0.475000X-0.250000X-0.475000X0.250000X-0.475000X0*%
%TD*%
%TA.AperFunction,SMDPad,CuDef*%
%ADD11RoundRect,0.250000X0.262500X0.450000X-0.262500X0.450000X-0.262500X-0.450000X0.262500X-0.450000X0*%
%TD*%
%TA.AperFunction,SMDPad,CuDef*%
%ADD12RoundRect,0.100000X0.100000X0.575000X-0.100000X0.575000X-0.100000X-0.575000X0.100000X-0.575000X0*%
%TD*%
%TA.AperFunction,HeatsinkPad*%
%ADD13O,1.000000X1.900000*%
%TD*%
%TA.AperFunction,SMDPad,CuDef*%
%ADD14R,0.875000X1.900000*%
%TD*%
%TA.AperFunction,HeatsinkPad*%
%ADD15O,1.050000X1.250000*%
%TD*%
%TA.AperFunction,SMDPad,CuDef*%
%ADD16RoundRect,0.250000X1.200000X0.700000X-1.200000X0.700000X-1.200000X-0.700000X1.200000X-0.700000X0*%
%TD*%
%TA.AperFunction,SMDPad,CuDef*%
%ADD17RoundRect,0.250000X-0.475000X0.250000X-0.475000X-0.250000X0.475000X-0.250000X0.475000X0.250000X0*%
%TD*%
%TA.AperFunction,SMDPad,CuDef*%
%ADD18RoundRect,0.250000X-0.450000X0.262500X-0.450000X-0.262500X0.450000X-0.262500X0.450000X0.262500X0*%
%TD*%
%TA.AperFunction,SMDPad,CuDef*%
%ADD19RoundRect,0.178200X-0.846800X-0.151800X0.846800X-0.151800X0.846800X0.151800X-0.846800X0.151800X0*%
%TD*%
%TA.AperFunction,SMDPad,CuDef*%
%ADD20R,2.410000X3.300000*%
%TD*%
%TA.AperFunction,SMDPad,CuDef*%
%ADD21RoundRect,0.250000X-0.250000X-0.475000X0.250000X-0.475000X0.250000X0.475000X-0.250000X0.475000X0*%
%TD*%
%TA.AperFunction,SMDPad,CuDef*%
%ADD22RoundRect,0.062500X-0.350000X-0.062500X0.350000X-0.062500X0.350000X0.062500X-0.350000X0.062500X0*%
%TD*%
%TA.AperFunction,SMDPad,CuDef*%
%ADD23RoundRect,0.062500X-0.062500X-0.350000X0.062500X-0.350000X0.062500X0.350000X-0.062500X0.350000X0*%
%TD*%
%TA.AperFunction,HeatsinkPad*%
%ADD24R,1.230000X1.230000*%
%TD*%
%TA.AperFunction,ComponentPad*%
%ADD25RoundRect,0.250000X-0.600000X-0.725000X0.600000X-0.725000X0.600000X0.725000X-0.600000X0.725000X0*%
%TD*%
%TA.AperFunction,ComponentPad*%
%ADD26O,1.700000X1.950000*%
%TD*%
%TA.AperFunction,SMDPad,CuDef*%
%ADD27RoundRect,0.250000X-0.375000X-0.625000X0.375000X-0.625000X0.375000X0.625000X-0.375000X0.625000X0*%
%TD*%
%TA.AperFunction,SMDPad,CuDef*%
%ADD28RoundRect,0.100000X-0.225000X-0.100000X0.225000X-0.100000X0.225000X0.100000X-0.225000X0.100000X0*%
%TD*%
%TA.AperFunction,ComponentPad*%
%ADD29R,1.600000X1.600000*%
%TD*%
%TA.AperFunction,ComponentPad*%
%ADD30C,1.600000*%
%TD*%
%TA.AperFunction,SMDPad,CuDef*%
%ADD31RoundRect,0.250000X-0.262500X-0.450000X0.262500X-0.450000X0.262500X0.450000X-0.262500X0.450000X0*%
%TD*%
%TA.AperFunction,SMDPad,CuDef*%
%ADD32R,0.800000X0.400000*%
%TD*%
%TA.AperFunction,SMDPad,CuDef*%
%ADD33R,0.400000X0.800000*%
%TD*%
%TA.AperFunction,HeatsinkPad*%
%ADD34Outline5P,-0.600000X0.204000X-0.204000X0.600000X0.600000X0.600000X0.600000X-0.600000X-0.600000X-0.600000X0.000000*%
%TD*%
%TA.AperFunction,HeatsinkPad*%
%ADD35R,1.200000X1.200000*%
%TD*%
%TA.AperFunction,SMDPad,CuDef*%
%ADD36R,0.800000X0.800000*%
%TD*%
%TA.AperFunction,SMDPad,CuDef*%
%ADD37RoundRect,0.250000X0.450000X-0.262500X0.450000X0.262500X-0.450000X0.262500X-0.450000X-0.262500X0*%
%TD*%
%TA.AperFunction,SMDPad,CuDef*%
%ADD38RoundRect,0.150000X0.700000X-0.150000X0.700000X0.150000X-0.700000X0.150000X-0.700000X-0.150000X0*%
%TD*%
%TA.AperFunction,SMDPad,CuDef*%
%ADD39RoundRect,0.250000X1.150000X-0.250000X1.150000X0.250000X-1.150000X0.250000X-1.150000X-0.250000X0*%
%TD*%
%TA.AperFunction,ComponentPad*%
%ADD40RoundRect,0.250000X-0.600000X-0.750000X0.600000X-0.750000X0.600000X0.750000X-0.600000X0.750000X0*%
%TD*%
%TA.AperFunction,ComponentPad*%
%ADD41O,1.700000X2.000000*%
%TD*%
%TA.AperFunction,SMDPad,CuDef*%
%ADD42R,1.000000X1.400000*%
%TD*%
%TA.AperFunction,SMDPad,CuDef*%
%ADD43RoundRect,0.150000X-0.150000X-0.700000X0.150000X-0.700000X0.150000X0.700000X-0.150000X0.700000X0*%
%TD*%
%TA.AperFunction,SMDPad,CuDef*%
%ADD44RoundRect,0.250000X-0.250000X-1.100000X0.250000X-1.100000X0.250000X1.100000X-0.250000X1.100000X0*%
%TD*%
%TA.AperFunction,ComponentPad*%
%ADD45RoundRect,0.250000X0.750000X-0.600000X0.750000X0.600000X-0.750000X0.600000X-0.750000X-0.600000X0*%
%TD*%
%TA.AperFunction,ComponentPad*%
%ADD46O,2.000000X1.700000*%
%TD*%
%TA.AperFunction,ComponentPad*%
%ADD47RoundRect,0.250000X0.450000X0.450000X-0.450000X0.450000X-0.450000X-0.450000X0.450000X-0.450000X0*%
%TD*%
%TA.AperFunction,ComponentPad*%
%ADD48C,1.400000*%
%TD*%
%TA.AperFunction,SMDPad,CuDef*%
%ADD49RoundRect,0.150000X-0.587500X-0.150000X0.587500X-0.150000X0.587500X0.150000X-0.587500X0.150000X0*%
%TD*%
%TA.AperFunction,ComponentPad*%
%ADD50RoundRect,0.250000X0.600000X0.750000X-0.600000X0.750000X-0.600000X-0.750000X0.600000X-0.750000X0*%
%TD*%
%TA.AperFunction,ViaPad*%
%ADD51C,0.600000*%
%TD*%
%TA.AperFunction,ViaPad*%
%ADD52C,1.200000*%
%TD*%
%TA.AperFunction,Conductor*%
%ADD53C,0.200000*%
%TD*%
%TA.AperFunction,Conductor*%
%ADD54C,0.600000*%
%TD*%
%TA.AperFunction,Conductor*%
%ADD55C,0.400000*%
%TD*%
%TA.AperFunction,Conductor*%
%ADD56C,0.300000*%
%TD*%
G04 APERTURE END LIST*
D10*
%TO.P,C2,1*%
%TO.N,3.3V*%
X142410000Y-109810000D03*
%TO.P,C2,2*%
%TO.N,Net-(C1-Pad2)*%
X140510000Y-109810000D03*
%TD*%
D11*
%TO.P,R12,1*%
%TO.N,Bat-*%
X149872500Y-100040000D03*
%TO.P,R12,2*%
%TO.N,Bat Indicator 3 (3.3V)*%
X148047500Y-100040000D03*
%TD*%
D12*
%TO.P,REF\u002A\u002A,1*%
%TO.N,Net-(J1-VBUS)*%
X128003750Y-89185000D03*
%TO.P,REF\u002A\u002A,2*%
%TO.N,D- *%
X128653750Y-89185000D03*
%TO.P,REF\u002A\u002A,3*%
%TO.N,D+ *%
X129303750Y-89185000D03*
%TO.P,REF\u002A\u002A,4*%
%TO.N,N/C*%
X129953750Y-89185000D03*
D13*
%TO.P,REF\u002A\u002A,6*%
%TO.N,Bat-*%
X133478750Y-86510000D03*
D14*
X133041250Y-86510000D03*
D15*
X131528750Y-89510000D03*
D16*
X129303750Y-86510000D03*
D15*
%TO.N,Net-(J1-VBUS)*%
X127078750Y-89510000D03*
D14*
%TO.N,Bat-*%
X125566250Y-86510000D03*
D13*
X125128750Y-86510000D03*
D12*
%TO.P,REF\u002A\u002A,b*%
X130603750Y-89185000D03*
%TD*%
D17*
%TO.P,C12,1*%
%TO.N,Net-(U3-BAT)*%
X151360000Y-115285000D03*
%TO.P,C12,2*%
%TO.N,Bat-*%
X151360000Y-117185000D03*
%TD*%
D10*
%TO.P,C6,1*%
%TO.N,3.3V*%
X142410000Y-113985000D03*
%TO.P,C6,2*%
%TO.N,Bat-*%
X140510000Y-113985000D03*
%TD*%
%TO.P,C1,1*%
%TO.N,5V*%
X142410000Y-107835000D03*
%TO.P,C1,2*%
%TO.N,Net-(C1-Pad2)*%
X140510000Y-107835000D03*
%TD*%
D18*
%TO.P,2\u03A9,1*%
%TO.N,Bat+*%
X153360000Y-111910000D03*
%TO.P,2\u03A9,2*%
%TO.N,Net-(U3-BAT)*%
X153360000Y-113735000D03*
%TD*%
D19*
%TO.P,U3,1,VCC*%
%TO.N,5V-SOURCE*%
X144537500Y-94140000D03*
%TO.P,U3,2,LED1*%
%TO.N,Bat Indicator 1 (5V)*%
X144537500Y-95410000D03*
%TO.P,U3,3,LED2*%
%TO.N,Bat Indicator 2 (5V)*%
X144537500Y-96680000D03*
%TO.P,U3,4,LED3*%
%TO.N,Bat Indicator 3 (5V)*%
X144537500Y-97950000D03*
%TO.P,U3,5,KEY*%
%TO.N,Net-(U3-KEY)*%
X149397500Y-97950000D03*
%TO.P,U3,6,BAT*%
%TO.N,Net-(U3-BAT)*%
X149397500Y-96680000D03*
%TO.P,U3,7,SW*%
%TO.N,Net-(U3-SW)*%
X149397500Y-95410000D03*
%TO.P,U3,8,VOUT*%
%TO.N,5V*%
X149397500Y-94140000D03*
D20*
%TO.P,U3,9,GND*%
%TO.N,Bat-*%
X146967500Y-96045000D03*
%TD*%
D11*
%TO.P,R10,1*%
%TO.N,Bat-*%
X149872500Y-101940000D03*
%TO.P,R10,2*%
%TO.N,Bat Indicator 2 (3.3V)*%
X148047500Y-101940000D03*
%TD*%
D10*
%TO.P,C7,1*%
%TO.N,3.3V*%
X142410000Y-112010000D03*
%TO.P,C7,2*%
%TO.N,Bat-*%
X140510000Y-112010000D03*
%TD*%
D21*
%TO.P,C16,1*%
%TO.N,5V*%
X137085000Y-115960000D03*
%TO.P,C16,2*%
%TO.N,Bat-*%
X138985000Y-115960000D03*
%TD*%
D17*
%TO.P,C10,1*%
%TO.N,5V-SOURCE*%
X147410000Y-115272500D03*
%TO.P,C10,2*%
%TO.N,Bat-*%
X147410000Y-117172500D03*
%TD*%
%TO.P,2x 10\u00B5f,1*%
%TO.N,Bat+*%
X153335000Y-115285000D03*
%TO.P,2x 10\u00B5f,2*%
%TO.N,Bat-*%
X153335000Y-117185000D03*
%TD*%
D11*
%TO.P,R4,1*%
%TO.N,Bat-*%
X149872500Y-103835000D03*
%TO.P,R4,2*%
%TO.N,Bat Indicator 1 (3.3V)*%
X148047500Y-103835000D03*
%TD*%
D10*
%TO.P,C9,1*%
%TO.N,5V*%
X142410000Y-115960000D03*
%TO.P,C9,2*%
%TO.N,Bat-*%
X140510000Y-115960000D03*
%TD*%
D22*
%TO.P,U5,1,DIN*%
%TO.N,DOUT*%
X156085000Y-110360000D03*
%TO.P,U5,2,GAIN_SLOT*%
%TO.N,GAIN*%
X156085000Y-110860000D03*
%TO.P,U5,3,GND*%
%TO.N,Bat-*%
X156085000Y-111360000D03*
%TO.P,U5,4,~{SD_MODE}*%
X156085000Y-111860000D03*
D23*
%TO.P,U5,5,NC*%
%TO.N,unconnected-(U5-NC-Pad5)*%
X156772500Y-112547500D03*
%TO.P,U5,6,NC*%
%TO.N,unconnected-(U5-NC-Pad6)*%
X157272500Y-112547500D03*
%TO.P,U5,7,VDD*%
%TO.N,5V*%
X157772500Y-112547500D03*
%TO.P,U5,8,VDD*%
X158272500Y-112547500D03*
D22*
%TO.P,U5,9,OUTP*%
%TO.N,Net-(U5-OUTP)*%
X158960000Y-111860000D03*
%TO.P,U5,10,OUTN*%
%TO.N,Net-(U5-OUTN)*%
X158960000Y-111360000D03*
%TO.P,U5,11,GND*%
%TO.N,Bat-*%
X158960000Y-110860000D03*
%TO.P,U5,12,NC*%
%TO.N,unconnected-(U5-NC-Pad12)*%
X158960000Y-110360000D03*
D23*
%TO.P,U5,13,NC*%
%TO.N,unconnected-(U5-NC-Pad13)*%
X158272500Y-109672500D03*
%TO.P,U5,14,LRCLK*%
%TO.N,LRCK*%
X157772500Y-109672500D03*
%TO.P,U5,15,GND*%
%TO.N,Bat-*%
X157272500Y-109672500D03*
%TO.P,U5,16,BCLK*%
%TO.N,BCLK *%
X156772500Y-109672500D03*
D24*
%TO.P,U5,17,PAD*%
%TO.N,Bat-*%
X157522500Y-111110000D03*
%TD*%
D25*
%TO.P,REF\u002A\u002A,1*%
%TO.N,LED Com (5v)*%
X154235000Y-87035000D03*
D26*
%TO.P,REF\u002A\u002A,2*%
%TO.N,Bat-*%
X156735000Y-87035000D03*
%TO.P,REF\u002A\u002A,3*%
%TO.N,5V*%
X159235000Y-87035000D03*
%TD*%
D27*
%TO.P,REF\u002A\u002A,1*%
%TO.N,Net-(J1-VBUS)*%
X125941250Y-91835000D03*
%TO.P,REF\u002A\u002A,2*%
%TO.N,5V-SOURCE*%
X128741250Y-91835000D03*
%TD*%
D28*
%TO.P,U4,1,VIN*%
%TO.N,5V*%
X144147500Y-88035000D03*
%TO.P,U4,2,GND*%
%TO.N,Bat-*%
X144147500Y-88685000D03*
%TO.P,U4,3,EN*%
%TO.N,5V*%
X144147500Y-89335000D03*
%TO.P,U4,4,NC*%
%TO.N,unconnected-(U4-NC-Pad4)*%
X146047500Y-89335000D03*
%TO.P,U4,5,VOUT*%
%TO.N,3.3V*%
X146047500Y-88035000D03*
%TD*%
D11*
%TO.P,R3,1*%
%TO.N,Bat Indicator 1 (3.3V)*%
X145872500Y-103840000D03*
%TO.P,R3,2*%
%TO.N,Bat Indicator 1 (5V)*%
X144047500Y-103840000D03*
%TD*%
D29*
%TO.P,LS2,1,1*%
%TO.N,Net-(U5-OUTP)*%
X164010000Y-115260000D03*
D30*
%TO.P,LS2,2,2*%
%TO.N,Net-(U5-OUTN)*%
X168010000Y-115260000D03*
%TD*%
D31*
%TO.P,10k,1*%
%TO.N,3.3V*%
X146047500Y-86335000D03*
%TO.P,10k,2*%
%TO.N,LED Com (3.3V)*%
X147872500Y-86335000D03*
%TD*%
D32*
%TO.P,U1,1,GND*%
%TO.N,Bat-*%
X154685000Y-92760000D03*
%TO.P,U1,2,GND*%
X154685000Y-93610000D03*
%TO.P,U1,3,3V3*%
%TO.N,3.3V*%
X154685000Y-94460000D03*
%TO.P,U1,4,IO0*%
X154685000Y-95310000D03*
%TO.P,U1,5,IO1*%
%TO.N,unconnected-(U1-IO1-Pad5)*%
X154685000Y-96160000D03*
%TO.P,U1,6,IO2*%
%TO.N,unconnected-(U1-IO2-Pad6)*%
X154685000Y-97010000D03*
%TO.P,U1,7,IO3*%
%TO.N,unconnected-(U1-IO3-Pad7)*%
X154685000Y-97860000D03*
%TO.P,U1,8,IO4*%
%TO.N,BCLK *%
X154685000Y-98710000D03*
%TO.P,U1,9,IO5*%
%TO.N,LRCK*%
X154685000Y-99560000D03*
%TO.P,U1,10,IO6*%
%TO.N,DOUT*%
X154685000Y-100410000D03*
%TO.P,U1,11,IO7*%
%TO.N,GAIN*%
X154685000Y-101260000D03*
%TO.P,U1,12,IO8*%
%TO.N,unconnected-(U1-IO8-Pad12)*%
X154685000Y-102110000D03*
%TO.P,U1,13,IO9*%
%TO.N,unconnected-(U1-IO9-Pad13)*%
X154685000Y-102960000D03*
%TO.P,U1,14,IO10*%
%TO.N,unconnected-(U1-IO10-Pad14)*%
X154685000Y-103810000D03*
%TO.P,U1,15,IO11*%
%TO.N,unconnected-(U1-IO11-Pad15)*%
X154685000Y-104660000D03*
D33*
%TO.P,U1,16,IO12*%
%TO.N,unconnected-(U1-IO12-Pad16)*%
X155735000Y-105710000D03*
%TO.P,U1,17,IO13*%
%TO.N,unconnected-(U1-IO13-Pad17)*%
X156585000Y-105710000D03*
%TO.P,U1,18,IO14*%
%TO.N,unconnected-(U1-IO14-Pad18)*%
X157435000Y-105710000D03*
%TO.P,U1,19,IO15*%
%TO.N,unconnected-(U1-IO15-Pad19)*%
X158285000Y-105710000D03*
%TO.P,U1,20,IO16*%
%TO.N,unconnected-(U1-IO16-Pad20)*%
X159135000Y-105710000D03*
%TO.P,U1,21,IO17*%
%TO.N,unconnected-(U1-IO17-Pad21)*%
X159985000Y-105710000D03*
%TO.P,U1,22,IO18*%
%TO.N,unconnected-(U1-IO18-Pad22)*%
X160835000Y-105710000D03*
%TO.P,U1,23,IO19*%
%TO.N,D+ *%
X161685000Y-105710000D03*
%TO.P,U1,24,IO20*%
%TO.N,D- *%
X162535000Y-105710000D03*
%TO.P,U1,25,IO21*%
%TO.N,unconnected-(U1-IO21-Pad25)*%
X163385000Y-105710000D03*
%TO.P,U1,26,IO26*%
%TO.N,unconnected-(U1-IO26-Pad26)*%
X164235000Y-105710000D03*
%TO.P,U1,27,IO47*%
%TO.N,unconnected-(U1-IO47-Pad27)*%
X165085000Y-105710000D03*
%TO.P,U1,28,IO33*%
%TO.N,LED Com (3.3V)*%
X165935000Y-105710000D03*
%TO.P,U1,29,IO34*%
%TO.N,unconnected-(U1-IO34-Pad29)*%
X166785000Y-105710000D03*
%TO.P,U1,30,IO48*%
%TO.N,unconnected-(U1-IO48-Pad30)*%
X167635000Y-105710000D03*
D32*
%TO.P,U1,31,IO35*%
%TO.N,unconnected-(U1-IO35-Pad31)*%
X168685000Y-104660000D03*
%TO.P,U1,32,IO36*%
%TO.N,Bat Indicator 1 (3.3V)*%
X168685000Y-103810000D03*
%TO.P,U1,33,IO37*%
%TO.N,Bat Indicator 2 (3.3V)*%
X168685000Y-102960000D03*
%TO.P,U1,34,IO38*%
%TO.N,Bat Indicator 3 (3.3V)*%
X168685000Y-102110000D03*
%TO.P,U1,35,IO39*%
%TO.N,unconnected-(U1-IO39-Pad35)*%
X168685000Y-101260000D03*
%TO.P,U1,36,IO40*%
%TO.N,unconnected-(U1-IO40-Pad36)*%
X168685000Y-100410000D03*
%TO.P,U1,37,IO41*%
%TO.N,unconnected-(U1-IO41-Pad37)*%
X168685000Y-99560000D03*
%TO.P,U1,38,IO42*%
%TO.N,Open 1*%
X168685000Y-98710000D03*
%TO.P,U1,39,TXD0*%
%TO.N,unconnected-(U1-TXD0-Pad39)*%
X168685000Y-97860000D03*
%TO.P,U1,40,RXD0*%
%TO.N,unconnected-(U1-RXD0-Pad40)*%
X168685000Y-97010000D03*
%TO.P,U1,41,IO45*%
%TO.N,Open 2*%
X168685000Y-96160000D03*
%TO.P,U1,42,GND*%
%TO.N,Bat-*%
X168685000Y-95310000D03*
%TO.P,U1,43,GND*%
X168685000Y-94460000D03*
%TO.P,U1,44,IO46*%
%TO.N,unconnected-(U1-IO46-Pad44)*%
X168685000Y-93610000D03*
%TO.P,U1,45,EN*%
%TO.N,3.3V*%
X168685000Y-92760000D03*
D33*
%TO.P,U1,46,GND*%
%TO.N,Bat-*%
X167635000Y-91710000D03*
%TO.P,U1,47,GND*%
X166785000Y-91710000D03*
%TO.P,U1,48,GND*%
X165935000Y-91710000D03*
%TO.P,U1,49,GND*%
X165085000Y-91710000D03*
%TO.P,U1,50,GND*%
X164235000Y-91710000D03*
%TO.P,U1,51,GND*%
X163385000Y-91710000D03*
%TO.P,U1,52,GND*%
X162535000Y-91710000D03*
%TO.P,U1,53,GND*%
X161685000Y-91710000D03*
%TO.P,U1,54,GND*%
X160835000Y-91710000D03*
%TO.P,U1,55,GND*%
X159985000Y-91710000D03*
%TO.P,U1,56,GND*%
X159135000Y-91710000D03*
%TO.P,U1,57,GND*%
X158285000Y-91710000D03*
%TO.P,U1,58,GND*%
X157435000Y-91710000D03*
%TO.P,U1,59,GND*%
X156585000Y-91710000D03*
%TO.P,U1,60,GND*%
X155735000Y-91710000D03*
D34*
%TO.P,U1,61,GND*%
X160035000Y-97060000D03*
D35*
X160035000Y-98710000D03*
X160035000Y-100360000D03*
X161685000Y-97060000D03*
X161685000Y-98710000D03*
X161685000Y-100360000D03*
X163335000Y-97060000D03*
X163335000Y-98710000D03*
X163335000Y-100360000D03*
D36*
%TO.P,U1,62,GND*%
X154685000Y-91710000D03*
%TO.P,U1,63,GND*%
X154685000Y-105710000D03*
%TO.P,U1,64,GND*%
X168685000Y-105710000D03*
%TO.P,U1,65,GND*%
X168685000Y-91710000D03*
%TD*%
D37*
%TO.P,R7,1*%
%TO.N,5V-SOURCE*%
X149410000Y-113747500D03*
%TO.P,R7,2*%
%TO.N,Net-(C11-Pad1)*%
X149410000Y-111922500D03*
%TD*%
D38*
%TO.P,REF\u002A\u002A,1*%
%TO.N,5V-SOURCE*%
X141022500Y-91585000D03*
%TO.P,REF\u002A\u002A,3*%
%TO.N,D+ *%
X141022500Y-89085000D03*
%TO.P,REF\u002A\u002A,4*%
%TO.N,Bat-*%
X141022500Y-87835000D03*
%TO.P,REF\u002A\u002A,D*%
%TO.N,D- *%
X141022500Y-90335000D03*
D39*
%TO.P,REF\u002A\u002A,MP*%
%TO.N,N/C*%
X137672500Y-93435000D03*
X137672500Y-85985000D03*
%TD*%
D40*
%TO.P,REF\u002A\u002A,1*%
%TO.N,Bat-*%
X165360000Y-87035000D03*
D41*
%TO.P,REF\u002A\u002A,2*%
%TO.N,Bat+*%
X167860000Y-87035000D03*
%TD*%
D31*
%TO.P,R14,1*%
%TO.N,5V*%
X144097500Y-91035000D03*
%TO.P,R14,2*%
%TO.N,LED Com (5v)*%
X145922500Y-91035000D03*
%TD*%
D11*
%TO.P,R5,1*%
%TO.N,Bat Indicator 2 (3.3V)*%
X145872500Y-101940000D03*
%TO.P,R5,2*%
%TO.N,Bat Indicator 2 (5V)*%
X144047500Y-101940000D03*
%TD*%
%TO.P,R11,1*%
%TO.N,Bat Indicator 3 (3.3V)*%
X145872500Y-100040000D03*
%TO.P,R11,2*%
%TO.N,Bat Indicator 3 (5V)*%
X144047500Y-100040000D03*
%TD*%
D17*
%TO.P,C11,1*%
%TO.N,Net-(C11-Pad1)*%
X149385000Y-115272500D03*
%TO.P,C11,2*%
%TO.N,Bat-*%
X149385000Y-117172500D03*
%TD*%
D10*
%TO.P,C8,1*%
%TO.N,5V*%
X142410000Y-117935000D03*
%TO.P,C8,2*%
%TO.N,Bat-*%
X140510000Y-117935000D03*
%TD*%
D18*
%TO.P,10k,1*%
%TO.N,Net-(U3-KEY)*%
X152085000Y-98060000D03*
%TO.P,10k,2*%
%TO.N,5V-PWR-SW*%
X152085000Y-99885000D03*
%TD*%
D21*
%TO.P,C15,1*%
%TO.N,5V*%
X137085000Y-117935000D03*
%TO.P,C15,2*%
%TO.N,Bat-*%
X138985000Y-117935000D03*
%TD*%
D42*
%TO.P,4.7\u202F\u00B5H1,1,1*%
%TO.N,Net-(U3-SW)*%
X148535000Y-108610000D03*
%TO.P,4.7\u202F\u00B5H1,2,2*%
%TO.N,Bat+*%
X151335000Y-108610000D03*
%TD*%
D43*
%TO.P,REF\u002A\u002A,1*%
%TO.N,5V-SOURCE*%
X127391250Y-94335000D03*
%TO.P,REF\u002A\u002A,2*%
%TO.N,D- *%
X128641250Y-94335000D03*
%TO.P,REF\u002A\u002A,3*%
%TO.N,D+ *%
X129891250Y-94335000D03*
%TO.P,REF\u002A\u002A,4*%
%TO.N,Bat-*%
X131141250Y-94335000D03*
D44*
%TO.P,REF\u002A\u002A,MP*%
%TO.N,N/C*%
X125541250Y-97535000D03*
X132991250Y-97535000D03*
%TD*%
D45*
%TO.P,REF\u002A\u002A,*%
%TO.N,Bat-*%
X137835000Y-100010000D03*
D46*
%TO.P,REF\u002A\u002A,2*%
%TO.N,5V-PWR-SW*%
X137835000Y-97510000D03*
%TD*%
D21*
%TO.P,3x 22uf,1*%
%TO.N,5V*%
X137085000Y-113985000D03*
%TO.P,3x 22uf,2*%
%TO.N,Bat-*%
X138985000Y-113985000D03*
%TD*%
D47*
%TO.P,SW1,1,A*%
%TO.N,unconnected-(SW1A-A-Pad1)*%
X131960000Y-109810000D03*
D48*
%TO.P,SW1,2,B*%
%TO.N,5V-PWR-SW*%
X129460000Y-109810000D03*
%TO.P,SW1,5*%
X129460000Y-106510000D03*
%TO.N,Bat-*%
X126960000Y-109810000D03*
X126960000Y-106510000D03*
%TO.P,SW1,6*%
%TO.N,N/C*%
X131960000Y-106510000D03*
%TD*%
D49*
%TO.P,Q1,1,G*%
%TO.N,3.3V*%
X147685000Y-88047500D03*
%TO.P,Q1,2,S*%
%TO.N,LED Com (3.3V)*%
X147685000Y-89947500D03*
%TO.P,Q1,3,D*%
%TO.N,LED Com (5v)*%
X149560000Y-88997500D03*
%TD*%
D50*
%TO.P,REF\u002A\u002A,1*%
%TO.N,5V-PWR-SW*%
X130710000Y-112977500D03*
D41*
%TO.P,REF\u002A\u002A,2*%
%TO.N,Bat-*%
X128210000Y-112977500D03*
%TD*%
D51*
%TO.N,Bat-*%
X143385000Y-117172500D03*
D52*
X160935000Y-117860000D03*
D51*
X141435000Y-117172500D03*
%TO.N,5V*%
X155860000Y-89335000D03*
X145735000Y-92635000D03*
X156885000Y-115735000D03*
X158010000Y-114085000D03*
X140960000Y-96810000D03*
%TO.N,3.3V*%
X160785000Y-94460000D03*
X144385000Y-105585000D03*
X150960000Y-87835000D03*
X152485000Y-93385000D03*
X143760000Y-112010000D03*
X162610000Y-94460000D03*
X144785000Y-86335000D03*
X150947500Y-89710000D03*
%TO.N,D+ *%
X142690000Y-89085000D03*
X161685000Y-104330000D03*
%TO.N,D- *%
X142710000Y-90335000D03*
X162540000Y-104330000D03*
%TO.N,LED Com (3.3V)*%
X164660000Y-103885000D03*
X164660000Y-90460000D03*
%TO.N,Bat Indicator 1 (3.3V)*%
X146967500Y-103835000D03*
X167535000Y-103810000D03*
D52*
%TO.N,Open 1*%
X156835000Y-117860000D03*
D51*
X167390000Y-98710000D03*
X169960000Y-95335000D03*
%TO.N,Bat Indicator 2 (3.3V)*%
X167535000Y-102960000D03*
X146967500Y-101940000D03*
%TO.N,Bat Indicator 3 (3.3V)*%
X167535000Y-102110000D03*
X146967500Y-100040000D03*
%TO.N,Bat+*%
X155060000Y-111960000D03*
%TO.N,GAIN*%
X156360000Y-107810000D03*
X156029595Y-101209985D03*
%TO.N,5V-PWR-SW*%
X150035000Y-98840000D03*
%TO.N,LRCK*%
X156035000Y-99560000D03*
X157960000Y-107810000D03*
%TO.N,BCLK *%
X158760000Y-107810000D03*
X156035000Y-98710000D03*
%TO.N,DOUT*%
X157160000Y-107810000D03*
X156035000Y-100410000D03*
D52*
%TO.N,Open 2*%
X158835000Y-117860000D03*
D51*
%TO.N,Net-(U3-SW)*%
X151510000Y-95485000D03*
X146435000Y-107385000D03*
%TO.N,Net-(U3-BAT)*%
X152710000Y-96235000D03*
X152710000Y-105435000D03*
%TD*%
D53*
%TO.N,Bat-*%
X147510000Y-98735000D02*
X148949488Y-98735000D01*
D54*
X149872500Y-100040000D02*
X149872500Y-103835000D01*
D55*
X156085000Y-113165000D02*
X156085000Y-114840000D01*
D54*
X140510000Y-117935000D02*
X138985000Y-117935000D01*
X137825000Y-103800000D02*
X138985000Y-104960000D01*
D53*
X137835000Y-100010000D02*
X139550000Y-98295000D01*
D55*
X131575000Y-89556250D02*
X131575000Y-93901250D01*
D53*
X165360000Y-91435000D02*
X165085000Y-91710000D01*
X146967500Y-98192500D02*
X147510000Y-98735000D01*
X140290000Y-87835000D02*
X141022500Y-87835000D01*
D55*
X125841250Y-88110000D02*
X127703750Y-88110000D01*
D56*
X157522500Y-111110000D02*
X157282500Y-111350000D01*
D53*
X139550000Y-98295000D02*
X139550000Y-88920000D01*
D55*
X156085000Y-113535000D02*
X156085000Y-113165000D01*
D53*
X167550000Y-104575000D02*
X166850000Y-104575000D01*
X168685000Y-95310000D02*
X168685000Y-94460000D01*
D56*
X155325000Y-111350000D02*
X154675000Y-110700000D01*
D53*
X157272500Y-111360000D02*
X156085000Y-111360000D01*
X163335000Y-101060000D02*
X163335000Y-100360000D01*
D54*
X143385000Y-117172500D02*
X143397500Y-117185000D01*
D53*
X139550000Y-88575000D02*
X140290000Y-87835000D01*
D55*
X161685000Y-97060000D02*
X161685000Y-91710000D01*
D54*
X140510000Y-117135000D02*
X140510000Y-112010000D01*
D53*
X156735000Y-87035000D02*
X156735000Y-91560000D01*
D54*
X138985000Y-104960000D02*
X138985000Y-113985000D01*
D53*
X143875000Y-92900000D02*
X141911000Y-90936000D01*
D55*
X141022500Y-87835000D02*
X142535000Y-87835000D01*
D54*
X160035000Y-100360000D02*
X163335000Y-100360000D01*
D56*
X157282500Y-111350000D02*
X155325000Y-111350000D01*
D53*
X125128750Y-86510000D02*
X125566250Y-86510000D01*
X165360000Y-87035000D02*
X165360000Y-91435000D01*
D54*
X147410000Y-117172500D02*
X143385000Y-117172500D01*
D53*
X141911000Y-90936000D02*
X139586000Y-90936000D01*
D54*
X137825000Y-100020000D02*
X137825000Y-103800000D01*
D55*
X129303750Y-86510000D02*
X130603750Y-87810000D01*
D53*
X157522500Y-111110000D02*
X157272500Y-111360000D01*
D55*
X169900000Y-93950000D02*
X169390000Y-94460000D01*
D56*
X154675000Y-110700000D02*
X154675000Y-105720000D01*
D54*
X141435000Y-117172500D02*
X140547500Y-117172500D01*
X126960000Y-111727500D02*
X128210000Y-112977500D01*
X161685000Y-97060000D02*
X161685000Y-100360000D01*
D53*
X144978728Y-92900000D02*
X143875000Y-92900000D01*
X146967500Y-94888772D02*
X144978728Y-92900000D01*
D54*
X160035000Y-98710000D02*
X163335000Y-98710000D01*
D55*
X127703750Y-88110000D02*
X129303750Y-86510000D01*
X125566250Y-86510000D02*
X125566250Y-87835000D01*
D54*
X153740000Y-117185000D02*
X153335000Y-117185000D01*
D55*
X125566250Y-87835000D02*
X125841250Y-88110000D01*
D53*
X166850000Y-104575000D02*
X163335000Y-101060000D01*
D54*
X138985000Y-113985000D02*
X138985000Y-117935000D01*
D53*
X157272500Y-109672500D02*
X157272500Y-110860000D01*
D55*
X169390000Y-94460000D02*
X168685000Y-94460000D01*
X169900000Y-92175000D02*
X169900000Y-93950000D01*
D53*
X146967500Y-96045000D02*
X146967500Y-98192500D01*
D55*
X154685000Y-91710000D02*
X168685000Y-91710000D01*
X131528750Y-89510000D02*
X131575000Y-89556250D01*
D53*
X133478750Y-86510000D02*
X133041250Y-86510000D01*
X158960000Y-110860000D02*
X157772500Y-110860000D01*
D55*
X160410000Y-117860000D02*
X156085000Y-113535000D01*
D54*
X126960000Y-106510000D02*
X126960000Y-111727500D01*
D53*
X139586000Y-90936000D02*
X139550000Y-90900000D01*
X150140000Y-99772500D02*
X149872500Y-100040000D01*
D55*
X156085000Y-111860000D02*
X156085000Y-113165000D01*
X156085000Y-114840000D02*
X153740000Y-117185000D01*
D54*
X140510000Y-117935000D02*
X140510000Y-117135000D01*
D55*
X133041250Y-86510000D02*
X133041250Y-87997500D01*
D53*
X139550000Y-90900000D02*
X139550000Y-88920000D01*
D55*
X142535000Y-87835000D02*
X143385000Y-88685000D01*
D53*
X149872500Y-99658012D02*
X149872500Y-100040000D01*
D55*
X154685000Y-91710000D02*
X154685000Y-93610000D01*
D53*
X139550000Y-88920000D02*
X139550000Y-88575000D01*
X156735000Y-91560000D02*
X156585000Y-91710000D01*
D55*
X168685000Y-91710000D02*
X169435000Y-91710000D01*
D53*
X157272500Y-110860000D02*
X157522500Y-111110000D01*
X168685000Y-105710000D02*
X167550000Y-104575000D01*
D55*
X133041250Y-87997500D02*
X131528750Y-89510000D01*
D54*
X163335000Y-97060000D02*
X163335000Y-100360000D01*
D53*
X146967500Y-96045000D02*
X146967500Y-94888772D01*
D54*
X143397500Y-117185000D02*
X143635000Y-117185000D01*
X137835000Y-100010000D02*
X137825000Y-100020000D01*
D56*
X154675000Y-105720000D02*
X154685000Y-105710000D01*
D54*
X160035000Y-97060000D02*
X163335000Y-97060000D01*
D55*
X131575000Y-93901250D02*
X131141250Y-94335000D01*
X131528750Y-89510000D02*
X131528750Y-88735000D01*
D53*
X157772500Y-110860000D02*
X157522500Y-111110000D01*
D54*
X140547500Y-117172500D02*
X140510000Y-117135000D01*
D55*
X160035000Y-100360000D02*
X154685000Y-105710000D01*
X156085000Y-111860000D02*
X156085000Y-111386000D01*
D53*
X148949488Y-98735000D02*
X149872500Y-99658012D01*
X147422500Y-117185000D02*
X147410000Y-117172500D01*
D54*
X153335000Y-117185000D02*
X147422500Y-117185000D01*
X160035000Y-97060000D02*
X160035000Y-100360000D01*
D55*
X143385000Y-88685000D02*
X144147500Y-88685000D01*
X131528750Y-88735000D02*
X129303750Y-86510000D01*
X169435000Y-91710000D02*
X169900000Y-92175000D01*
X130603750Y-87810000D02*
X130603750Y-89185000D01*
D53*
%TO.N,5V*%
X158272500Y-112547500D02*
X158035000Y-112547500D01*
D54*
X144735000Y-110160000D02*
X144735000Y-113635000D01*
X144097500Y-89785000D02*
X144097500Y-89386000D01*
X145697500Y-92635000D02*
X145735000Y-92635000D01*
X144896500Y-89386000D02*
X145135000Y-89147500D01*
X145735000Y-92635000D02*
X148935000Y-92635000D01*
X144097500Y-89386000D02*
X144896500Y-89386000D01*
X150130000Y-94140000D02*
X154935000Y-89335000D01*
X144896500Y-87984000D02*
X144147500Y-87984000D01*
X142410000Y-117935000D02*
X141136000Y-119209000D01*
X142410000Y-117935000D02*
X142410000Y-115960000D01*
X137085000Y-113985000D02*
X137085000Y-117935000D01*
X144097500Y-91035000D02*
X144097500Y-89785000D01*
X140960000Y-96810000D02*
X140960000Y-106385000D01*
X158010000Y-113460000D02*
X158010000Y-112572500D01*
X145135000Y-89147500D02*
X145135000Y-88835000D01*
X149385000Y-93085000D02*
X149385000Y-94127500D01*
D55*
X144947500Y-89335000D02*
X145135000Y-89147500D01*
D54*
X145135000Y-88222500D02*
X144896500Y-87984000D01*
X158010000Y-112572500D02*
X158035000Y-112547500D01*
X149385000Y-94127500D02*
X149397500Y-94140000D01*
X149397500Y-94140000D02*
X150130000Y-94140000D01*
X140960000Y-106385000D02*
X142410000Y-107835000D01*
X141136000Y-119209000D02*
X153411000Y-119209000D01*
D53*
X158035000Y-112547500D02*
X157772500Y-112547500D01*
D54*
X142410000Y-107835000D02*
X144735000Y-110160000D01*
X144097500Y-91035000D02*
X145697500Y-92635000D01*
X138359000Y-119209000D02*
X137085000Y-117935000D01*
X141136000Y-119209000D02*
X138359000Y-119209000D01*
X145135000Y-88222500D02*
X144947500Y-88035000D01*
X149385000Y-93085000D02*
X148935000Y-92635000D01*
X144735000Y-113635000D02*
X142410000Y-115960000D01*
X145135000Y-88835000D02*
X145135000Y-88222500D01*
X158010000Y-114085000D02*
X158010000Y-113460000D01*
X144097500Y-89785000D02*
X144097500Y-89385000D01*
X153411000Y-119209000D02*
X156885000Y-115735000D01*
X154935000Y-89335000D02*
X155860000Y-89335000D01*
D55*
%TO.N,3.3V*%
X150947500Y-87847500D02*
X150960000Y-87835000D01*
X162610000Y-94460000D02*
X164685000Y-94460000D01*
X144785000Y-86335000D02*
X146047500Y-86335000D01*
X153560000Y-103435000D02*
X151485000Y-105510000D01*
X147685000Y-88047500D02*
X146060000Y-88047500D01*
X166385000Y-92760000D02*
X168685000Y-92760000D01*
X143760000Y-112010000D02*
X143785000Y-112010000D01*
X150947500Y-89710000D02*
X150947500Y-87847500D01*
X153560000Y-94460000D02*
X152485000Y-93385000D01*
D54*
X143735000Y-111135000D02*
X143735000Y-112660000D01*
D55*
X144460000Y-105510000D02*
X144385000Y-105585000D01*
X142410000Y-112010000D02*
X143760000Y-112010000D01*
D54*
X142410000Y-109810000D02*
X143735000Y-111135000D01*
X143735000Y-112660000D02*
X142410000Y-113985000D01*
D55*
X154685000Y-94460000D02*
X153560000Y-94460000D01*
X154685000Y-94460000D02*
X160785000Y-94460000D01*
X154685000Y-94460000D02*
X154685000Y-95310000D01*
X153560000Y-94460000D02*
X153560000Y-103435000D01*
X164685000Y-94460000D02*
X166385000Y-92760000D01*
X151485000Y-105510000D02*
X144460000Y-105510000D01*
X146060000Y-88047500D02*
X146047500Y-88035000D01*
X146047500Y-86335000D02*
X146047500Y-88035000D01*
D54*
%TO.N,Net-(J1-VBUS)*%
X125941250Y-91835000D02*
X125941250Y-90647500D01*
X125941250Y-90647500D02*
X127078750Y-89510000D01*
X127078750Y-89510000D02*
X127653750Y-89510000D01*
X127653750Y-89510000D02*
X127753750Y-89410000D01*
%TO.N,5V-SOURCE*%
X141985000Y-105615998D02*
X147360000Y-110990998D01*
X147410000Y-114387500D02*
X147410000Y-115272500D01*
X147360000Y-110990998D02*
X147360000Y-113057500D01*
X127391250Y-93185000D02*
X127391250Y-94335000D01*
X141022500Y-91747500D02*
X141022500Y-91585000D01*
X147360000Y-113057500D02*
X148050000Y-113747500D01*
X128741250Y-91835000D02*
X127391250Y-93185000D01*
X143415000Y-94140000D02*
X141985000Y-95570000D01*
X149410000Y-113747500D02*
X148050000Y-113747500D01*
X148050000Y-113747500D02*
X147410000Y-114387500D01*
X141985000Y-95570000D02*
X141985000Y-105615998D01*
X144537500Y-94140000D02*
X143415000Y-94140000D01*
X143415000Y-94140000D02*
X141022500Y-91747500D01*
D53*
%TO.N,D+ *%
X161680000Y-104320000D02*
X161685000Y-104325000D01*
X129891250Y-94335000D02*
X130175000Y-94051250D01*
X129303750Y-89910002D02*
X129303750Y-89185000D01*
X130175000Y-90781252D02*
X129303750Y-89910002D01*
X142690000Y-89085000D02*
X141022500Y-89085000D01*
X161685000Y-104330000D02*
X161685000Y-104325000D01*
X161685000Y-105710000D02*
X161685000Y-104330000D01*
X130175000Y-94051250D02*
X130175000Y-90781252D01*
%TO.N,D- *%
X128641250Y-93721160D02*
X129667250Y-92695160D01*
X129667250Y-92695160D02*
X129667250Y-90873499D01*
X128653750Y-89859999D02*
X128653750Y-89185000D01*
X162535000Y-104335000D02*
X162540000Y-104330000D01*
X162535000Y-105710000D02*
X162535000Y-104335000D01*
X141022500Y-90335000D02*
X142710000Y-90335000D01*
X129667250Y-90873499D02*
X128653750Y-89859999D01*
%TO.N,Net-(U5-OUTN)*%
X164110000Y-111360000D02*
X158960000Y-111360000D01*
X168010000Y-115260000D02*
X164110000Y-111360000D01*
%TO.N,Net-(U3-KEY)*%
X152085000Y-98060000D02*
X149507500Y-98060000D01*
X149507500Y-98060000D02*
X149397500Y-97950000D01*
%TO.N,Net-(U5-OUTP)*%
X158960000Y-111860000D02*
X160610000Y-111860000D01*
X160610000Y-111860000D02*
X164010000Y-115260000D01*
%TO.N,LED Com (3.3V)*%
X147685000Y-89947500D02*
X147685000Y-89426968D01*
X147685000Y-89426968D02*
X148723500Y-88388468D01*
X165935000Y-105710000D02*
X165935000Y-105160000D01*
X164660000Y-90460000D02*
X164660000Y-89960000D01*
X148723500Y-88388468D02*
X148723500Y-87186000D01*
X148723500Y-87186000D02*
X147872500Y-86335000D01*
X148596500Y-85611000D02*
X147872500Y-86335000D01*
X160311000Y-85611000D02*
X148596500Y-85611000D01*
X165935000Y-105160000D02*
X164660000Y-103885000D01*
X164660000Y-89960000D02*
X160311000Y-85611000D01*
%TO.N,LED Com (5v)*%
X150560000Y-87035000D02*
X149560000Y-88035000D01*
X154235000Y-87035000D02*
X150560000Y-87035000D01*
X148585000Y-91035000D02*
X145922500Y-91035000D01*
X149560000Y-88035000D02*
X149560000Y-88997500D01*
X149560000Y-90060000D02*
X148585000Y-91035000D01*
X149560000Y-88997500D02*
X149560000Y-90060000D01*
%TO.N,Bat Indicator 1 (3.3V)*%
X146967500Y-103835000D02*
X145877500Y-103835000D01*
X145877500Y-103835000D02*
X145872500Y-103840000D01*
X148047500Y-103835000D02*
X146967500Y-103835000D01*
X168685000Y-103810000D02*
X167535000Y-103810000D01*
%TO.N,Bat Indicator 1 (5V)*%
X142710000Y-102502500D02*
X144047500Y-103840000D01*
X142710000Y-96212501D02*
X142710000Y-102502500D01*
X143512501Y-95410000D02*
X142710000Y-96212501D01*
X144537500Y-95410000D02*
X143512501Y-95410000D01*
%TO.N,Open 1*%
X168685000Y-98710000D02*
X167390000Y-98710000D01*
X170184000Y-115210150D02*
X166232150Y-119162000D01*
X170184000Y-95559000D02*
X170184000Y-115210150D01*
X169960000Y-95335000D02*
X170184000Y-95559000D01*
X158137000Y-119162000D02*
X156835000Y-117860000D01*
X166232150Y-119162000D02*
X158137000Y-119162000D01*
X167390000Y-98710000D02*
X167570000Y-98710000D01*
%TO.N,Bat Indicator 2 (5V)*%
X143211500Y-97594772D02*
X143211500Y-101104000D01*
X144126272Y-96680000D02*
X143211500Y-97594772D01*
X144537500Y-96680000D02*
X144126272Y-96680000D01*
X143211500Y-101104000D02*
X144047500Y-101940000D01*
%TO.N,Bat Indicator 2 (3.3V)*%
X168685000Y-102960000D02*
X167535000Y-102960000D01*
X146967500Y-101940000D02*
X148047500Y-101940000D01*
X145872500Y-101940000D02*
X146967500Y-101940000D01*
%TO.N,Bat Indicator 3 (3.3V)*%
X168685000Y-102110000D02*
X167535000Y-102110000D01*
X146967500Y-100040000D02*
X145872500Y-100040000D01*
X148047500Y-100040000D02*
X146967500Y-100040000D01*
%TO.N,Bat Indicator 3 (5V)*%
X144047500Y-98440000D02*
X144047500Y-100040000D01*
X144537500Y-97950000D02*
X144047500Y-98440000D01*
D54*
%TO.N,Bat+*%
X153360000Y-111910000D02*
X153360000Y-110635000D01*
X154747500Y-112565000D02*
X154747500Y-114525000D01*
X154747500Y-114525000D02*
X153987500Y-115285000D01*
X154142500Y-111960000D02*
X154092500Y-111910000D01*
X155060000Y-111960000D02*
X154142500Y-111960000D01*
X153360000Y-111910000D02*
X154092500Y-111910000D01*
X153360000Y-110635000D02*
X151335000Y-108610000D01*
X153987500Y-115285000D02*
X153335000Y-115285000D01*
X154092500Y-111910000D02*
X154747500Y-112565000D01*
D53*
%TO.N,GAIN*%
X155371500Y-110574798D02*
X155656702Y-110860000D01*
X155979580Y-101260000D02*
X154685000Y-101260000D01*
X155371500Y-108798500D02*
X155371500Y-110574798D01*
X156029595Y-101209985D02*
X155979580Y-101260000D01*
X155656702Y-110860000D02*
X156085000Y-110860000D01*
X156360000Y-107810000D02*
X155371500Y-108798500D01*
D54*
%TO.N,5V-PWR-SW*%
X130710000Y-112977500D02*
X129691250Y-111958750D01*
X129691250Y-111958750D02*
X129460000Y-111727500D01*
X129460000Y-111727500D02*
X129460000Y-109810000D01*
D53*
X150035000Y-98840000D02*
X151040000Y-98840000D01*
D54*
X129460000Y-111727500D02*
X129460000Y-106510000D01*
D53*
X151040000Y-98840000D02*
X152085000Y-99885000D01*
%TO.N,LRCK*%
X158511057Y-107209000D02*
X159008943Y-107209000D01*
X159361000Y-108209000D02*
X158611000Y-108959000D01*
X159008943Y-107209000D02*
X159361000Y-107561057D01*
X154685000Y-99560000D02*
X156035000Y-99560000D01*
X158049500Y-108959000D02*
X157772500Y-109236000D01*
X157960000Y-107810000D02*
X157960000Y-107760057D01*
X158611000Y-108959000D02*
X158049500Y-108959000D01*
X157772500Y-109236000D02*
X157772500Y-109672500D01*
X159361000Y-107561057D02*
X159361000Y-108209000D01*
X157960000Y-107760057D02*
X158511057Y-107209000D01*
%TO.N,BCLK *%
X158760000Y-107810000D02*
X158760000Y-107859943D01*
X158109943Y-108510000D02*
X157260000Y-108510000D01*
X154685000Y-98710000D02*
X156035000Y-98710000D01*
X158760000Y-107859943D02*
X158109943Y-108510000D01*
X157260000Y-108510000D02*
X156772500Y-108997500D01*
X156772500Y-108997500D02*
X156772500Y-109672500D01*
%TO.N,DOUT*%
X155860000Y-109159943D02*
X155860000Y-110135000D01*
X154685000Y-100410000D02*
X156035000Y-100410000D01*
X155860000Y-110135000D02*
X156085000Y-110360000D01*
X157160000Y-107859943D02*
X155860000Y-109159943D01*
X157160000Y-107810000D02*
X157160000Y-107859943D01*
%TO.N,Open 2*%
X169037000Y-96160000D02*
X168685000Y-96160000D01*
X169783000Y-96906000D02*
X169037000Y-96160000D01*
X159736000Y-118761000D02*
X166066050Y-118761000D01*
X158835000Y-117860000D02*
X159736000Y-118761000D01*
X166066050Y-118761000D02*
X169783000Y-115044050D01*
X169783000Y-115044050D02*
X169783000Y-96906000D01*
%TO.N,Net-(U3-SW)*%
X151435000Y-95410000D02*
X149397500Y-95410000D01*
X147660000Y-108610000D02*
X146435000Y-107385000D01*
X148535000Y-108610000D02*
X147660000Y-108610000D01*
X151510000Y-95485000D02*
X151435000Y-95410000D01*
%TO.N,Net-(C1-Pad2)*%
X140510000Y-109810000D02*
X140510000Y-107835000D01*
D55*
%TO.N,Net-(C11-Pad1)*%
X149410000Y-111922500D02*
X149815000Y-111922500D01*
X150635000Y-112742500D02*
X150635000Y-114602500D01*
X149815000Y-111922500D02*
X150635000Y-112742500D01*
X149965000Y-115272500D02*
X149385000Y-115272500D01*
X150635000Y-114602500D02*
X149965000Y-115272500D01*
D53*
%TO.N,Net-(U3-BAT)*%
X149910000Y-108233000D02*
X152708000Y-105435000D01*
X152077500Y-113735000D02*
X152077500Y-111554500D01*
X152077500Y-111554500D02*
X149910000Y-109387000D01*
X149397500Y-96680000D02*
X152265000Y-96680000D01*
D54*
X152910000Y-113735000D02*
X152077500Y-113735000D01*
D53*
X149910000Y-109387000D02*
X149910000Y-108233000D01*
X153360000Y-113735000D02*
X152910000Y-113735000D01*
D54*
X152077500Y-113735000D02*
X151360000Y-114452500D01*
X151360000Y-114452500D02*
X151360000Y-115285000D01*
D53*
X152265000Y-96680000D02*
X152710000Y-96235000D01*
X152708000Y-105435000D02*
X152710000Y-105435000D01*
%TD*%
%TA.AperFunction,Conductor*%
%TO.N,Bat-*%
G36*
X145740703Y-110504225D02*
G01*
X145747181Y-110510257D01*
X146523181Y-111286257D01*
X146556666Y-111347580D01*
X146559500Y-111373938D01*
X146559500Y-113136346D01*
X146590261Y-113290989D01*
X146590264Y-113291001D01*
X146650602Y-113436672D01*
X146650609Y-113436685D01*
X146738209Y-113567787D01*
X146738210Y-113567788D01*
X146738211Y-113567789D01*
X146830241Y-113659819D01*
X146863725Y-113721140D01*
X146858741Y-113790832D01*
X146830241Y-113835179D01*
X146788214Y-113877206D01*
X146788210Y-113877211D01*
X146700609Y-114008314D01*
X146700602Y-114008327D01*
X146640264Y-114153998D01*
X146640261Y-114154008D01*
X146612595Y-114293094D01*
X146580210Y-114355005D01*
X146556076Y-114374440D01*
X146466344Y-114429787D01*
X146342289Y-114553842D01*
X146250187Y-114703163D01*
X146250186Y-114703166D01*
X146195001Y-114869703D01*
X146195001Y-114869704D01*
X146195000Y-114869704D01*
X146184500Y-114972483D01*
X146184500Y-115572501D01*
X146184501Y-115572519D01*
X146195000Y-115675296D01*
X146195001Y-115675299D01*
X146206500Y-115710000D01*
X146250186Y-115841834D01*
X146342288Y-115991156D01*
X146466344Y-116115212D01*
X146469628Y-116117237D01*
X146469653Y-116117253D01*
X146471445Y-116119246D01*
X146472011Y-116119693D01*
X146471934Y-116119789D01*
X146516379Y-116169199D01*
X146527603Y-116238161D01*
X146499761Y-116302244D01*
X146469665Y-116328326D01*
X146466660Y-116330179D01*
X146466655Y-116330183D01*
X146342684Y-116454154D01*
X146250643Y-116603375D01*
X146250641Y-116603380D01*
X146195494Y-116769802D01*
X146195493Y-116769809D01*
X146185000Y-116872513D01*
X146185000Y-116922500D01*
X150676138Y-116922500D01*
X150718708Y-116935000D01*
X153211000Y-116935000D01*
X153278039Y-116954685D01*
X153323794Y-117007489D01*
X153335000Y-117059000D01*
X153335000Y-117311000D01*
X153315315Y-117378039D01*
X153262511Y-117423794D01*
X153211000Y-117435000D01*
X150068862Y-117435000D01*
X150026292Y-117422500D01*
X146185001Y-117422500D01*
X146185001Y-117472486D01*
X146195494Y-117575197D01*
X146250641Y-117741619D01*
X146250643Y-117741624D01*
X146342684Y-117890845D01*
X146466654Y-118014815D01*
X146615875Y-118106856D01*
X146615880Y-118106858D01*
X146782310Y-118162007D01*
X146788107Y-118163249D01*
X146849539Y-118196533D01*
X146883224Y-118257747D01*
X146878466Y-118327455D01*
X146836778Y-118383524D01*
X146771393Y-118408155D01*
X146762144Y-118408500D01*
X143534500Y-118408500D01*
X143467461Y-118388815D01*
X143421706Y-118336011D01*
X143410500Y-118284500D01*
X143410499Y-117409998D01*
X143410498Y-117409980D01*
X143399999Y-117307203D01*
X143399998Y-117307200D01*
X143392049Y-117283211D01*
X143344814Y-117140666D01*
X143265819Y-117012594D01*
X143247380Y-116945204D01*
X143265819Y-116882405D01*
X143344814Y-116754334D01*
X143399999Y-116587797D01*
X143410500Y-116485009D01*
X143410499Y-116142938D01*
X143430183Y-116075900D01*
X143446813Y-116055263D01*
X145356789Y-114145289D01*
X145444394Y-114014179D01*
X145504738Y-113868497D01*
X145535500Y-113713842D01*
X145535500Y-113556157D01*
X145535500Y-110597938D01*
X145555185Y-110530899D01*
X145607989Y-110485144D01*
X145677147Y-110475200D01*
X145740703Y-110504225D01*
G37*
%TD.AperFunction*%
%TA.AperFunction,Conductor*%
G36*
X144245098Y-85530185D02*
G01*
X144290853Y-85582989D01*
X144300797Y-85652147D01*
X144271772Y-85715703D01*
X144265740Y-85722181D01*
X144163213Y-85824707D01*
X144163210Y-85824711D01*
X144075609Y-85955814D01*
X144075602Y-85955827D01*
X144015264Y-86101498D01*
X144015261Y-86101510D01*
X143984500Y-86256153D01*
X143984500Y-86413846D01*
X144015261Y-86568489D01*
X144015264Y-86568501D01*
X144075602Y-86714172D01*
X144075609Y-86714185D01*
X144163210Y-86845288D01*
X144163213Y-86845292D01*
X144274707Y-86956786D01*
X144279419Y-86960653D01*
X144278558Y-86961701D01*
X144318932Y-87010014D01*
X144327637Y-87079339D01*
X144297480Y-87142366D01*
X144238035Y-87179083D01*
X144205234Y-87183500D01*
X144068655Y-87183500D01*
X143914010Y-87214261D01*
X143913998Y-87214264D01*
X143768327Y-87274602D01*
X143768314Y-87274609D01*
X143637212Y-87362209D01*
X143525708Y-87473714D01*
X143525703Y-87473720D01*
X143524950Y-87474848D01*
X143523561Y-87476329D01*
X143521844Y-87478423D01*
X143521706Y-87478310D01*
X143497351Y-87504312D01*
X143494220Y-87506714D01*
X143494218Y-87506716D01*
X143397964Y-87632157D01*
X143337456Y-87778237D01*
X143337455Y-87778239D01*
X143322000Y-87895638D01*
X143322000Y-88174363D01*
X143337454Y-88291755D01*
X143338057Y-88294005D01*
X143338010Y-88295977D01*
X143338516Y-88299821D01*
X143337916Y-88299899D01*
X143336394Y-88363855D01*
X143297232Y-88421717D01*
X143233004Y-88449222D01*
X143164101Y-88437636D01*
X143149392Y-88429201D01*
X143069190Y-88375612D01*
X143069172Y-88375602D01*
X142923501Y-88315264D01*
X142923489Y-88315261D01*
X142768845Y-88284500D01*
X142768842Y-88284500D01*
X142611158Y-88284500D01*
X142611155Y-88284500D01*
X142494259Y-88307752D01*
X142424668Y-88301525D01*
X142369490Y-88258662D01*
X142346246Y-88192772D01*
X142350992Y-88151540D01*
X142369599Y-88087494D01*
X142369600Y-88087488D01*
X142369795Y-88085001D01*
X142369795Y-88085000D01*
X139675205Y-88085000D01*
X139675204Y-88085001D01*
X139675399Y-88087486D01*
X139721218Y-88245198D01*
X139808788Y-88393271D01*
X139806785Y-88394455D01*
X139828051Y-88448645D01*
X139814360Y-88517160D01*
X139808171Y-88526788D01*
X139720755Y-88674603D01*
X139720754Y-88674606D01*
X139674902Y-88832426D01*
X139674901Y-88832432D01*
X139672000Y-88869298D01*
X139672000Y-89300701D01*
X139674901Y-89337567D01*
X139674902Y-89337573D01*
X139720754Y-89495393D01*
X139720755Y-89495396D01*
X139808390Y-89643580D01*
X139806419Y-89644745D01*
X139827732Y-89699058D01*
X139814040Y-89767573D01*
X139808364Y-89776404D01*
X139808390Y-89776420D01*
X139720755Y-89924603D01*
X139720754Y-89924606D01*
X139674902Y-90082426D01*
X139674901Y-90082432D01*
X139672000Y-90119298D01*
X139672000Y-90550701D01*
X139674901Y-90587567D01*
X139674902Y-90587573D01*
X139720754Y-90745393D01*
X139720755Y-90745396D01*
X139808390Y-90893580D01*
X139806419Y-90894745D01*
X139827732Y-90949058D01*
X139814040Y-91017573D01*
X139808364Y-91026404D01*
X139808390Y-91026420D01*
X139720755Y-91174603D01*
X139720754Y-91174606D01*
X139674902Y-91332426D01*
X139674901Y-91332432D01*
X139672000Y-91369298D01*
X139672000Y-91800701D01*
X139674901Y-91837567D01*
X139674902Y-91837573D01*
X139720754Y-91995393D01*
X139720755Y-91995396D01*
X139804417Y-92136862D01*
X139804423Y-92136870D01*
X139920629Y-92253076D01*
X139920633Y-92253079D01*
X139920635Y-92253081D01*
X140062102Y-92336744D01*
X140103724Y-92348836D01*
X140219926Y-92382597D01*
X140219929Y-92382597D01*
X140219931Y-92382598D01*
X140256806Y-92385500D01*
X140477060Y-92385500D01*
X140544099Y-92405185D01*
X140564741Y-92421819D01*
X142195241Y-94052319D01*
X142228726Y-94113642D01*
X142223742Y-94183334D01*
X142195241Y-94227681D01*
X141474711Y-94948211D01*
X141445315Y-94977607D01*
X141363209Y-95059712D01*
X141275609Y-95190814D01*
X141275602Y-95190827D01*
X141215264Y-95336498D01*
X141215261Y-95336510D01*
X141184500Y-95491153D01*
X141184500Y-95887378D01*
X141164815Y-95954417D01*
X141112011Y-96000172D01*
X141044932Y-96009816D01*
X141044905Y-96010097D01*
X141043765Y-96009984D01*
X141042853Y-96010116D01*
X141039809Y-96009595D01*
X141038843Y-96009500D01*
X141038842Y-96009500D01*
X140881158Y-96009500D01*
X140881155Y-96009500D01*
X140726510Y-96040261D01*
X140726498Y-96040264D01*
X140580827Y-96100602D01*
X140580814Y-96100609D01*
X140449711Y-96188210D01*
X140449707Y-96188213D01*
X140338213Y-96299707D01*
X140338210Y-96299711D01*
X140250609Y-96430814D01*
X140250602Y-96430827D01*
X140190264Y-96576498D01*
X140190261Y-96576510D01*
X140159500Y-96731153D01*
X140159500Y-96731158D01*
X140159500Y-106306158D01*
X140159500Y-106463842D01*
X140160166Y-106467190D01*
X140164036Y-106486647D01*
X140157807Y-106556239D01*
X140114944Y-106611415D01*
X140081423Y-106628543D01*
X139940666Y-106675186D01*
X139940663Y-106675187D01*
X139791342Y-106767289D01*
X139667289Y-106891342D01*
X139575187Y-107040663D01*
X139575186Y-107040666D01*
X139520001Y-107207203D01*
X139520001Y-107207204D01*
X139520000Y-107207204D01*
X139509500Y-107309983D01*
X139509500Y-108360001D01*
X139509501Y-108360019D01*
X139520000Y-108462796D01*
X139520001Y-108462799D01*
X139575185Y-108629331D01*
X139575189Y-108629340D01*
X139654179Y-108757404D01*
X139672619Y-108824796D01*
X139654179Y-108887596D01*
X139575189Y-109015659D01*
X139575186Y-109015666D01*
X139520001Y-109182203D01*
X139520001Y-109182204D01*
X139520000Y-109182204D01*
X139509500Y-109284983D01*
X139509500Y-110335001D01*
X139509501Y-110335008D01*
X139520000Y-110437796D01*
X139520001Y-110437799D01*
X139575185Y-110604331D01*
X139575187Y-110604336D01*
X139605729Y-110653852D01*
X139645699Y-110718655D01*
X139667289Y-110753657D01*
X139736304Y-110822672D01*
X139769789Y-110883995D01*
X139764805Y-110953687D01*
X139736305Y-110998034D01*
X139667682Y-111066657D01*
X139575643Y-111215875D01*
X139575641Y-111215880D01*
X139520494Y-111382302D01*
X139520493Y-111382309D01*
X139510000Y-111485013D01*
X139510000Y-111760000D01*
X140386000Y-111760000D01*
X140453039Y-111779685D01*
X140498794Y-111832489D01*
X140510000Y-111884000D01*
X140510000Y-112010000D01*
X140636000Y-112010000D01*
X140703039Y-112029685D01*
X140748794Y-112082489D01*
X140760000Y-112134000D01*
X140760000Y-117811000D01*
X140740315Y-117878039D01*
X140687511Y-117923794D01*
X140636000Y-117935000D01*
X140510000Y-117935000D01*
X140510000Y-118061000D01*
X140490315Y-118128039D01*
X140437511Y-118173794D01*
X140386000Y-118185000D01*
X139109000Y-118185000D01*
X139041961Y-118165315D01*
X138996206Y-118112511D01*
X138985000Y-118061000D01*
X138985000Y-117935000D01*
X138859000Y-117935000D01*
X138791961Y-117915315D01*
X138746206Y-117862511D01*
X138735000Y-117811000D01*
X138735000Y-117685000D01*
X139235000Y-117685000D01*
X140260000Y-117685000D01*
X140260000Y-116210000D01*
X139235000Y-116210000D01*
X139235000Y-117685000D01*
X138735000Y-117685000D01*
X138735000Y-115710000D01*
X139235000Y-115710000D01*
X140260000Y-115710000D01*
X140260000Y-114235000D01*
X139235000Y-114235000D01*
X139235000Y-115710000D01*
X138735000Y-115710000D01*
X138735000Y-112760000D01*
X139235000Y-112760000D01*
X139235000Y-113735000D01*
X140260000Y-113735000D01*
X140260000Y-112260000D01*
X139510001Y-112260000D01*
X139510001Y-112534988D01*
X139520134Y-112634175D01*
X139507364Y-112702867D01*
X139459483Y-112753752D01*
X139391693Y-112770672D01*
X139384173Y-112770134D01*
X139284986Y-112760000D01*
X139235000Y-112760000D01*
X138735000Y-112760000D01*
X138734999Y-112759999D01*
X138685029Y-112760000D01*
X138685011Y-112760001D01*
X138582302Y-112770494D01*
X138415880Y-112825641D01*
X138415875Y-112825643D01*
X138266654Y-112917684D01*
X138142683Y-113041655D01*
X138142679Y-113041660D01*
X138140826Y-113044665D01*
X138139018Y-113046290D01*
X138138202Y-113047323D01*
X138138025Y-113047183D01*
X138088874Y-113091385D01*
X138019911Y-113102601D01*
X137955831Y-113074752D01*
X137929753Y-113044653D01*
X137929636Y-113044463D01*
X137927712Y-113041344D01*
X137803656Y-112917288D01*
X137654334Y-112825186D01*
X137487797Y-112770001D01*
X137487795Y-112770000D01*
X137385010Y-112759500D01*
X136784998Y-112759500D01*
X136784980Y-112759501D01*
X136682203Y-112770000D01*
X136682200Y-112770001D01*
X136515668Y-112825185D01*
X136515666Y-112825185D01*
X136515666Y-112825186D01*
X136515662Y-112825187D01*
X136515661Y-112825189D01*
X136474595Y-112850518D01*
X136407202Y-112868957D01*
X136340539Y-112848033D01*
X136295771Y-112794391D01*
X136285500Y-112744978D01*
X136285500Y-101170523D01*
X136305185Y-101103484D01*
X136357989Y-101057729D01*
X136427147Y-101047785D01*
X136490703Y-101076810D01*
X136497181Y-101082842D01*
X136616654Y-101202315D01*
X136765875Y-101294356D01*
X136765880Y-101294358D01*
X136932302Y-101349505D01*
X136932309Y-101349506D01*
X137035019Y-101359999D01*
X137584999Y-101359999D01*
X137585000Y-101359998D01*
X137585000Y-100443012D01*
X137642007Y-100475925D01*
X137769174Y-100510000D01*
X137900826Y-100510000D01*
X138027993Y-100475925D01*
X138085000Y-100443012D01*
X138085000Y-101359999D01*
X138634972Y-101359999D01*
X138634986Y-101359998D01*
X138737697Y-101349505D01*
X138904119Y-101294358D01*
X138904124Y-101294356D01*
X139053345Y-101202315D01*
X139177315Y-101078345D01*
X139269356Y-100929124D01*
X139269358Y-100929119D01*
X139324505Y-100762697D01*
X139324506Y-100762690D01*
X139334999Y-100659986D01*
X139335000Y-100659973D01*
X139335000Y-100260000D01*
X138268012Y-100260000D01*
X138300925Y-100202993D01*
X138335000Y-100075826D01*
X138335000Y-99944174D01*
X138300925Y-99817007D01*
X138268012Y-99760000D01*
X139334999Y-99760000D01*
X139334999Y-99360028D01*
X139334998Y-99360013D01*
X139324505Y-99257302D01*
X139269358Y-99090880D01*
X139269356Y-99090875D01*
X139177315Y-98941654D01*
X139053345Y-98817684D01*
X138898515Y-98722184D01*
X138851791Y-98670236D01*
X138840568Y-98601273D01*
X138868412Y-98537191D01*
X138875909Y-98528986D01*
X139015104Y-98389792D01*
X139140051Y-98217816D01*
X139236557Y-98028412D01*
X139302246Y-97826243D01*
X139335500Y-97616287D01*
X139335500Y-97403713D01*
X139302246Y-97193757D01*
X139236557Y-96991588D01*
X139140051Y-96802184D01*
X139140049Y-96802181D01*
X139140048Y-96802179D01*
X139015109Y-96630213D01*
X138864786Y-96479890D01*
X138692820Y-96354951D01*
X138503414Y-96258444D01*
X138503413Y-96258443D01*
X138503412Y-96258443D01*
X138301243Y-96192754D01*
X138301241Y-96192753D01*
X138301240Y-96192753D01*
X138139957Y-96167208D01*
X138091287Y-96159500D01*
X137578713Y-96159500D01*
X137530042Y-96167208D01*
X137368760Y-96192753D01*
X137166585Y-96258444D01*
X136977179Y-96354951D01*
X136805213Y-96479890D01*
X136654890Y-96630213D01*
X136529949Y-96802182D01*
X136519984Y-96821740D01*
X136472009Y-96872536D01*
X136404188Y-96889330D01*
X136338053Y-96866792D01*
X136294602Y-96812076D01*
X136285500Y-96765444D01*
X136285500Y-94553710D01*
X136305185Y-94486671D01*
X136357989Y-94440916D01*
X136422101Y-94430352D01*
X136472491Y-94435500D01*
X138872508Y-94435499D01*
X138975297Y-94424999D01*
X139141834Y-94369814D01*
X139291156Y-94277712D01*
X139415212Y-94153656D01*
X139507314Y-94004334D01*
X139562499Y-93837797D01*
X139573000Y-93735009D01*
X139572999Y-93134992D01*
X139566091Y-93067371D01*
X139562499Y-93032203D01*
X139562498Y-93032200D01*
X139554427Y-93007844D01*
X139507314Y-92865666D01*
X139415212Y-92716344D01*
X139291156Y-92592288D01*
X139141834Y-92500186D01*
X138975297Y-92445001D01*
X138975295Y-92445000D01*
X138872510Y-92434500D01*
X136472498Y-92434500D01*
X136472480Y-92434501D01*
X136422101Y-92439648D01*
X136353408Y-92426878D01*
X136302524Y-92378997D01*
X136285500Y-92316290D01*
X136285500Y-87584998D01*
X139675204Y-87584998D01*
X139675205Y-87585000D01*
X140772500Y-87585000D01*
X141272500Y-87585000D01*
X142369795Y-87585000D01*
X142369795Y-87584998D01*
X142369600Y-87582513D01*
X142323781Y-87424801D01*
X142240185Y-87283447D01*
X142240178Y-87283438D01*
X142124061Y-87167321D01*
X142124052Y-87167314D01*
X141982696Y-87083717D01*
X141982693Y-87083716D01*
X141824995Y-87037900D01*
X141824989Y-87037899D01*
X141788149Y-87035000D01*
X141272500Y-87035000D01*
X141272500Y-87585000D01*
X140772500Y-87585000D01*
X140772500Y-87035000D01*
X140256850Y-87035000D01*
X140220010Y-87037899D01*
X140220004Y-87037900D01*
X140062306Y-87083716D01*
X140062303Y-87083717D01*
X139920947Y-87167314D01*
X139920938Y-87167321D01*
X139804821Y-87283438D01*
X139804814Y-87283447D01*
X139721218Y-87424801D01*
X139675399Y-87582513D01*
X139675204Y-87584998D01*
X136285500Y-87584998D01*
X136285500Y-87103710D01*
X136305185Y-87036671D01*
X136357989Y-86990916D01*
X136422101Y-86980352D01*
X136472491Y-86985500D01*
X138872508Y-86985499D01*
X138975297Y-86974999D01*
X139141834Y-86919814D01*
X139291156Y-86827712D01*
X139415212Y-86703656D01*
X139507314Y-86554334D01*
X139562499Y-86387797D01*
X139573000Y-86285009D01*
X139572999Y-85684992D01*
X139569644Y-85652147D01*
X139569129Y-85647100D01*
X139581899Y-85578407D01*
X139629781Y-85527524D01*
X139692487Y-85510500D01*
X144178059Y-85510500D01*
X144245098Y-85530185D01*
G37*
%TD.AperFunction*%
%TA.AperFunction,Conductor*%
G36*
X163876942Y-111980185D02*
G01*
X163897584Y-111996819D01*
X166715922Y-114815157D01*
X166749407Y-114876480D01*
X166746173Y-114941155D01*
X166741522Y-114955468D01*
X166709500Y-115157648D01*
X166709500Y-115362351D01*
X166741522Y-115564534D01*
X166804781Y-115759223D01*
X166897715Y-115941613D01*
X167018028Y-116107213D01*
X167162786Y-116251971D01*
X167328385Y-116372284D01*
X167328387Y-116372285D01*
X167328390Y-116372287D01*
X167359912Y-116388348D01*
X167410708Y-116436321D01*
X167427504Y-116504142D01*
X167404968Y-116570277D01*
X167391299Y-116586514D01*
X165853634Y-118124181D01*
X165792311Y-118157666D01*
X165765953Y-118160500D01*
X160046808Y-118160500D01*
X159979769Y-118140815D01*
X159934014Y-118088011D01*
X159924070Y-118018853D01*
X159924335Y-118017102D01*
X159924698Y-118014815D01*
X159935500Y-117946611D01*
X159935500Y-117773389D01*
X159908402Y-117602299D01*
X159854873Y-117437555D01*
X159776232Y-117283212D01*
X159674414Y-117143072D01*
X159551928Y-117020586D01*
X159411788Y-116918768D01*
X159257445Y-116840127D01*
X159092701Y-116786598D01*
X159092699Y-116786597D01*
X159092698Y-116786597D01*
X158961271Y-116765781D01*
X158921611Y-116759500D01*
X158748389Y-116759500D01*
X158708728Y-116765781D01*
X158577302Y-116786597D01*
X158412552Y-116840128D01*
X158258211Y-116918768D01*
X158178256Y-116976859D01*
X158118072Y-117020586D01*
X158118070Y-117020588D01*
X158118069Y-117020588D01*
X157995588Y-117143069D01*
X157995581Y-117143078D01*
X157935317Y-117226023D01*
X157879987Y-117268689D01*
X157810374Y-117274667D01*
X157748579Y-117242061D01*
X157734683Y-117226023D01*
X157674418Y-117143078D01*
X157674414Y-117143072D01*
X157551928Y-117020586D01*
X157411788Y-116918768D01*
X157382129Y-116903656D01*
X157257449Y-116840128D01*
X157225520Y-116829753D01*
X157189122Y-116817927D01*
X157131448Y-116778490D01*
X157104250Y-116714131D01*
X157116165Y-116645285D01*
X157139761Y-116612316D01*
X157247936Y-116504142D01*
X157506789Y-116245289D01*
X157594394Y-116114179D01*
X157597007Y-116107872D01*
X157640174Y-116003656D01*
X157654737Y-115968497D01*
X157685500Y-115813842D01*
X157685500Y-115656158D01*
X157685500Y-115656155D01*
X157685499Y-115656153D01*
X157668859Y-115572501D01*
X157654737Y-115501503D01*
X157654735Y-115501498D01*
X157594397Y-115355827D01*
X157594390Y-115355814D01*
X157506789Y-115224711D01*
X157506786Y-115224707D01*
X157395292Y-115113213D01*
X157395288Y-115113210D01*
X157264185Y-115025609D01*
X157264172Y-115025602D01*
X157118501Y-114965264D01*
X157118489Y-114965261D01*
X156963845Y-114934500D01*
X156963842Y-114934500D01*
X156806158Y-114934500D01*
X156806155Y-114934500D01*
X156651510Y-114965261D01*
X156651498Y-114965264D01*
X156505827Y-115025602D01*
X156505814Y-115025609D01*
X156374711Y-115113210D01*
X156374707Y-115113213D01*
X154730513Y-116757407D01*
X154669190Y-116790892D01*
X154599498Y-116785908D01*
X154543565Y-116744036D01*
X154525126Y-116708730D01*
X154494358Y-116615880D01*
X154494356Y-116615875D01*
X154402315Y-116466654D01*
X154278344Y-116342683D01*
X154278341Y-116342681D01*
X154275339Y-116340829D01*
X154273713Y-116339021D01*
X154272677Y-116338202D01*
X154272817Y-116338024D01*
X154228617Y-116288880D01*
X154217397Y-116219917D01*
X154245243Y-116155836D01*
X154275344Y-116129754D01*
X154278656Y-116127712D01*
X154402712Y-116003656D01*
X154423506Y-115969941D01*
X154460156Y-115931933D01*
X154497789Y-115906789D01*
X155257786Y-115146790D01*
X155257789Y-115146789D01*
X155369289Y-115035289D01*
X155456894Y-114904179D01*
X155517237Y-114758497D01*
X155522979Y-114729631D01*
X155528244Y-114703163D01*
X155548000Y-114603845D01*
X155548000Y-112655440D01*
X155556644Y-112625999D01*
X155563168Y-112596013D01*
X155566922Y-112590997D01*
X155567685Y-112588401D01*
X155584319Y-112567759D01*
X155630759Y-112521319D01*
X155692082Y-112487834D01*
X155718440Y-112485000D01*
X155980515Y-112485000D01*
X155996637Y-112476196D01*
X156066329Y-112481177D01*
X156122264Y-112523046D01*
X156146684Y-112588510D01*
X156147000Y-112597361D01*
X156147000Y-112934403D01*
X156161488Y-113044463D01*
X156161491Y-113044472D01*
X156174033Y-113074752D01*
X156218221Y-113181429D01*
X156308464Y-113299036D01*
X156426071Y-113389279D01*
X156563028Y-113446009D01*
X156673099Y-113460500D01*
X156871900Y-113460499D01*
X156871901Y-113460499D01*
X156888587Y-113458302D01*
X156981972Y-113446009D01*
X156981975Y-113446007D01*
X156989826Y-113443905D01*
X156990687Y-113447121D01*
X157043072Y-113441156D01*
X157056948Y-113443490D01*
X157063028Y-113446009D01*
X157103907Y-113451390D01*
X157106072Y-113451755D01*
X157135575Y-113466089D01*
X157165582Y-113479364D01*
X157166849Y-113481285D01*
X157168917Y-113482290D01*
X157185978Y-113510285D01*
X157204053Y-113537688D01*
X157204501Y-113540680D01*
X157205277Y-113541953D01*
X157205196Y-113545319D01*
X157209500Y-113574037D01*
X157209500Y-114163846D01*
X157240261Y-114318489D01*
X157240264Y-114318501D01*
X157300602Y-114464172D01*
X157300609Y-114464185D01*
X157388210Y-114595288D01*
X157388213Y-114595292D01*
X157499707Y-114706786D01*
X157499711Y-114706789D01*
X157630814Y-114794390D01*
X157630827Y-114794397D01*
X157776498Y-114854735D01*
X157776503Y-114854737D01*
X157885812Y-114876480D01*
X157931153Y-114885499D01*
X157931156Y-114885500D01*
X157931158Y-114885500D01*
X158088844Y-114885500D01*
X158088845Y-114885499D01*
X158243497Y-114854737D01*
X158389179Y-114794394D01*
X158520289Y-114706789D01*
X158631789Y-114595289D01*
X158719394Y-114464179D01*
X158726859Y-114446158D01*
X158764615Y-114355005D01*
X158779737Y-114318497D01*
X158810500Y-114163842D01*
X158810500Y-114006158D01*
X158810500Y-113381158D01*
X158810500Y-113242851D01*
X158824819Y-113189414D01*
X158823669Y-113188938D01*
X158845455Y-113136342D01*
X158883509Y-113044472D01*
X158898000Y-112934401D01*
X158897999Y-112609498D01*
X158917683Y-112542460D01*
X158970487Y-112496705D01*
X159021999Y-112485499D01*
X159346903Y-112485499D01*
X159456963Y-112471011D01*
X159456966Y-112471009D01*
X159456972Y-112471009D01*
X159459558Y-112469938D01*
X159507008Y-112460500D01*
X160309903Y-112460500D01*
X160376942Y-112480185D01*
X160397584Y-112496819D01*
X162673181Y-114772416D01*
X162706666Y-114833739D01*
X162709500Y-114860097D01*
X162709500Y-116107870D01*
X162709501Y-116107876D01*
X162715908Y-116167483D01*
X162766202Y-116302328D01*
X162766206Y-116302335D01*
X162852452Y-116417544D01*
X162852455Y-116417547D01*
X162967664Y-116503793D01*
X162967671Y-116503797D01*
X163102517Y-116554091D01*
X163102516Y-116554091D01*
X163109444Y-116554835D01*
X163162127Y-116560500D01*
X164857872Y-116560499D01*
X164917483Y-116554091D01*
X165052331Y-116503796D01*
X165167546Y-116417546D01*
X165253796Y-116302331D01*
X165304091Y-116167483D01*
X165310500Y-116107873D01*
X165310499Y-114412128D01*
X165305002Y-114360992D01*
X165304091Y-114352516D01*
X165253797Y-114217671D01*
X165253793Y-114217664D01*
X165167547Y-114102455D01*
X165167544Y-114102452D01*
X165052335Y-114016206D01*
X165052328Y-114016202D01*
X164917482Y-113965908D01*
X164917483Y-113965908D01*
X164857883Y-113959501D01*
X164857881Y-113959500D01*
X164857873Y-113959500D01*
X164857865Y-113959500D01*
X163610097Y-113959500D01*
X163543058Y-113939815D01*
X163522416Y-113923181D01*
X161771416Y-112172181D01*
X161737931Y-112110858D01*
X161742915Y-112041166D01*
X161784787Y-111985233D01*
X161850251Y-111960816D01*
X161859097Y-111960500D01*
X163809903Y-111960500D01*
X163876942Y-111980185D01*
G37*
%TD.AperFunction*%
%TA.AperFunction,Conductor*%
G36*
X168878039Y-105729685D02*
G01*
X168923794Y-105782489D01*
X168935000Y-105834000D01*
X168935000Y-106610000D01*
X169058500Y-106610000D01*
X169125539Y-106629685D01*
X169171294Y-106682489D01*
X169182500Y-106734000D01*
X169182500Y-114293953D01*
X169162815Y-114360992D01*
X169110011Y-114406747D01*
X169040853Y-114416691D01*
X168977297Y-114387666D01*
X168970819Y-114381634D01*
X168857213Y-114268028D01*
X168691613Y-114147715D01*
X168691612Y-114147714D01*
X168691610Y-114147713D01*
X168634653Y-114118691D01*
X168509223Y-114054781D01*
X168314534Y-113991522D01*
X168139995Y-113963878D01*
X168112352Y-113959500D01*
X167907648Y-113959500D01*
X167869599Y-113965526D01*
X167705468Y-113991522D01*
X167696717Y-113994365D01*
X167691154Y-113996173D01*
X167621313Y-113998167D01*
X167565157Y-113965922D01*
X164597590Y-110998355D01*
X164597588Y-110998352D01*
X164478717Y-110879481D01*
X164478712Y-110879477D01*
X164352454Y-110806583D01*
X164352452Y-110806582D01*
X164341785Y-110800423D01*
X164189057Y-110759499D01*
X164030943Y-110759499D01*
X164023347Y-110759499D01*
X164023331Y-110759500D01*
X159981096Y-110759500D01*
X159951712Y-110750872D01*
X159921769Y-110744387D01*
X159918493Y-110741117D01*
X159914057Y-110739815D01*
X159894006Y-110716675D01*
X159872318Y-110695027D01*
X159870544Y-110689599D01*
X159868302Y-110687011D01*
X159859954Y-110661969D01*
X159854525Y-110637122D01*
X159856196Y-110613449D01*
X159853419Y-110589884D01*
X159856995Y-110577484D01*
X159856405Y-110577326D01*
X159858508Y-110569475D01*
X159858508Y-110569474D01*
X159858509Y-110569472D01*
X159873000Y-110459401D01*
X159872999Y-110260600D01*
X159872999Y-110260596D01*
X159858511Y-110150536D01*
X159858509Y-110150531D01*
X159858509Y-110150528D01*
X159801779Y-110013571D01*
X159711536Y-109895964D01*
X159593929Y-109805721D01*
X159593925Y-109805719D01*
X159456972Y-109748991D01*
X159456970Y-109748990D01*
X159346910Y-109734501D01*
X159346907Y-109734500D01*
X159346901Y-109734500D01*
X159346894Y-109734500D01*
X159021999Y-109734500D01*
X159013313Y-109731949D01*
X159004352Y-109733238D01*
X158980311Y-109722259D01*
X158954960Y-109714815D01*
X158949032Y-109707974D01*
X158940796Y-109704213D01*
X158926506Y-109681978D01*
X158909205Y-109662011D01*
X158906917Y-109651496D01*
X158903022Y-109645435D01*
X158897999Y-109610500D01*
X158897999Y-109558290D01*
X158917684Y-109491251D01*
X158960000Y-109450902D01*
X158979716Y-109439520D01*
X159091520Y-109327716D01*
X159091520Y-109327714D01*
X159101724Y-109317511D01*
X159101728Y-109317506D01*
X159719506Y-108699728D01*
X159719511Y-108699724D01*
X159729714Y-108689520D01*
X159729716Y-108689520D01*
X159841520Y-108577716D01*
X159877879Y-108514740D01*
X159898813Y-108478482D01*
X159898814Y-108478480D01*
X159920574Y-108440790D01*
X159920573Y-108440790D01*
X159920577Y-108440785D01*
X159961500Y-108288057D01*
X159961500Y-108129943D01*
X159961500Y-107650117D01*
X159961501Y-107650104D01*
X159961501Y-107482002D01*
X159961501Y-107482000D01*
X159920577Y-107329272D01*
X159841520Y-107192341D01*
X159489464Y-106840285D01*
X159489463Y-106840284D01*
X159441102Y-106791923D01*
X159422803Y-106758408D01*
X159407620Y-106730603D01*
X159407620Y-106730601D01*
X159407619Y-106730599D01*
X159409756Y-106700723D01*
X159412604Y-106660911D01*
X159412605Y-106660908D01*
X159412606Y-106660907D01*
X159445453Y-106617031D01*
X159454476Y-106604978D01*
X159454479Y-106604975D01*
X159485449Y-106588065D01*
X159516670Y-106576420D01*
X159586362Y-106571439D01*
X159603327Y-106576420D01*
X159664010Y-106599053D01*
X159677511Y-106604089D01*
X159677517Y-106604091D01*
X159737127Y-106610500D01*
X160232872Y-106610499D01*
X160292483Y-106604091D01*
X160366667Y-106576421D01*
X160436358Y-106571438D01*
X160453327Y-106576420D01*
X160514010Y-106599053D01*
X160527511Y-106604089D01*
X160527517Y-106604091D01*
X160587127Y-106610500D01*
X161082872Y-106610499D01*
X161142483Y-106604091D01*
X161216667Y-106576421D01*
X161286358Y-106571438D01*
X161303327Y-106576420D01*
X161364010Y-106599053D01*
X161377511Y-106604089D01*
X161377517Y-106604091D01*
X161437127Y-106610500D01*
X161932872Y-106610499D01*
X161992483Y-106604091D01*
X162066667Y-106576421D01*
X162136358Y-106571438D01*
X162153327Y-106576420D01*
X162214010Y-106599053D01*
X162227511Y-106604089D01*
X162227517Y-106604091D01*
X162287127Y-106610500D01*
X162782872Y-106610499D01*
X162842483Y-106604091D01*
X162916667Y-106576421D01*
X162986358Y-106571438D01*
X163003327Y-106576420D01*
X163064010Y-106599053D01*
X163077511Y-106604089D01*
X163077517Y-106604091D01*
X163137127Y-106610500D01*
X163632872Y-106610499D01*
X163692483Y-106604091D01*
X163766667Y-106576421D01*
X163836358Y-106571438D01*
X163853327Y-106576420D01*
X163914010Y-106599053D01*
X163927511Y-106604089D01*
X163927517Y-106604091D01*
X163987127Y-106610500D01*
X164482872Y-106610499D01*
X164542483Y-106604091D01*
X164616667Y-106576421D01*
X164686358Y-106571438D01*
X164703327Y-106576420D01*
X164764010Y-106599053D01*
X164777511Y-106604089D01*
X164777517Y-106604091D01*
X164837127Y-106610500D01*
X165332872Y-106610499D01*
X165392483Y-106604091D01*
X165466667Y-106576421D01*
X165536358Y-106571438D01*
X165553327Y-106576420D01*
X165614010Y-106599053D01*
X165627511Y-106604089D01*
X165627517Y-106604091D01*
X165687127Y-106610500D01*
X166182872Y-106610499D01*
X166242483Y-106604091D01*
X166316667Y-106576421D01*
X166386358Y-106571438D01*
X166403327Y-106576420D01*
X166464010Y-106599053D01*
X166477511Y-106604089D01*
X166477517Y-106604091D01*
X166537127Y-106610500D01*
X167032872Y-106610499D01*
X167092483Y-106604091D01*
X167166667Y-106576421D01*
X167236358Y-106571438D01*
X167253327Y-106576420D01*
X167314010Y-106599053D01*
X167327511Y-106604089D01*
X167327517Y-106604091D01*
X167387127Y-106610500D01*
X167882872Y-106610499D01*
X167942483Y-106604091D01*
X168017380Y-106576155D01*
X168087071Y-106571171D01*
X168104049Y-106576156D01*
X168177621Y-106603597D01*
X168237155Y-106609999D01*
X168237172Y-106610000D01*
X168435000Y-106610000D01*
X168435000Y-105834000D01*
X168454685Y-105766961D01*
X168507489Y-105721206D01*
X168559000Y-105710000D01*
X168811000Y-105710000D01*
X168878039Y-105729685D01*
G37*
%TD.AperFunction*%
%TA.AperFunction,Conductor*%
G36*
X157297977Y-110436508D02*
G01*
X157317532Y-110438366D01*
X157321222Y-110441265D01*
X157330581Y-110443181D01*
X157348015Y-110454385D01*
X157349029Y-110455162D01*
X157362615Y-110473785D01*
X157372474Y-110481531D01*
X157376283Y-110492520D01*
X157390207Y-110511606D01*
X157397500Y-110553505D01*
X157397500Y-110581624D01*
X157481843Y-110570521D01*
X157489695Y-110568418D01*
X157490665Y-110572041D01*
X157542616Y-110565919D01*
X157555018Y-110569494D01*
X157555177Y-110568905D01*
X157563026Y-110571008D01*
X157563028Y-110571009D01*
X157673099Y-110585500D01*
X157871900Y-110585499D01*
X157913843Y-110579977D01*
X157982876Y-110590742D01*
X158019729Y-110617304D01*
X158168696Y-110773388D01*
X158170810Y-110777484D01*
X158177385Y-110783534D01*
X158178152Y-110784534D01*
X158189176Y-110813066D01*
X158200742Y-110835475D01*
X158200167Y-110841516D01*
X158203333Y-110849708D01*
X158195992Y-110885460D01*
X158194133Y-110905032D01*
X158191210Y-110908751D01*
X158189281Y-110918150D01*
X158178152Y-110935466D01*
X158177385Y-110936466D01*
X158158731Y-110950092D01*
X158150969Y-110959973D01*
X158140002Y-110963774D01*
X158120966Y-110977681D01*
X158078994Y-110985000D01*
X158050874Y-110985000D01*
X158061978Y-111069346D01*
X158064082Y-111077197D01*
X158060813Y-111078072D01*
X158066148Y-111132512D01*
X158063150Y-111142554D01*
X158063595Y-111142673D01*
X158061491Y-111150524D01*
X158047000Y-111260598D01*
X158047000Y-111459396D01*
X158052455Y-111500833D01*
X158041687Y-111569868D01*
X157995306Y-111622123D01*
X157928036Y-111641006D01*
X157913330Y-111639954D01*
X157871901Y-111634500D01*
X157673096Y-111634500D01*
X157563031Y-111648989D01*
X157555178Y-111651094D01*
X157554302Y-111647824D01*
X157500353Y-111653567D01*
X157489977Y-111650518D01*
X157489823Y-111651095D01*
X157481970Y-111648990D01*
X157371901Y-111634500D01*
X157173096Y-111634500D01*
X157131155Y-111640022D01*
X157062120Y-111629256D01*
X157025709Y-111603154D01*
X156875208Y-111447071D01*
X156865457Y-111428414D01*
X156851677Y-111412511D01*
X156849601Y-111398075D01*
X156842845Y-111385148D01*
X156844728Y-111364184D01*
X156841733Y-111343353D01*
X156847919Y-111328667D01*
X156849097Y-111315559D01*
X156858580Y-111303359D01*
X156866103Y-111285503D01*
X156867638Y-111283503D01*
X156882388Y-111272734D01*
X156891980Y-111260397D01*
X156906110Y-111255417D01*
X156924071Y-111242306D01*
X156966006Y-111235000D01*
X156994126Y-111235000D01*
X156983021Y-111150659D01*
X156980918Y-111142807D01*
X156984541Y-111141835D01*
X156978419Y-111089884D01*
X156981995Y-111077484D01*
X156981405Y-111077326D01*
X156983508Y-111069475D01*
X156983508Y-111069474D01*
X156983509Y-111069472D01*
X156998000Y-110959401D01*
X156997999Y-110760600D01*
X156992477Y-110718653D01*
X157003243Y-110649620D01*
X157029804Y-110612767D01*
X157185888Y-110463802D01*
X157189957Y-110461701D01*
X157195969Y-110455163D01*
X157196975Y-110454391D01*
X157225556Y-110443328D01*
X157247976Y-110431757D01*
X157253976Y-110432327D01*
X157262130Y-110429171D01*
X157297977Y-110436508D01*
G37*
%TD.AperFunction*%
%TA.AperFunction,Conductor*%
G36*
X153703834Y-104384335D02*
G01*
X153759767Y-104426207D01*
X153784184Y-104491671D01*
X153784500Y-104500517D01*
X153784500Y-104907870D01*
X153784501Y-104907876D01*
X153790909Y-104967485D01*
X153818843Y-105042382D01*
X153823827Y-105112074D01*
X153818844Y-105129046D01*
X153791402Y-105202623D01*
X153791401Y-105202627D01*
X153785000Y-105262155D01*
X153785000Y-105460000D01*
X154561000Y-105460000D01*
X154628039Y-105479685D01*
X154673794Y-105532489D01*
X154685000Y-105584000D01*
X154685000Y-105710000D01*
X154811000Y-105710000D01*
X154878039Y-105729685D01*
X154923794Y-105782489D01*
X154935000Y-105834000D01*
X154935000Y-106610000D01*
X155132828Y-106610000D01*
X155132844Y-106609999D01*
X155192377Y-106603597D01*
X155192379Y-106603597D01*
X155265950Y-106576156D01*
X155335642Y-106571170D01*
X155352619Y-106576156D01*
X155427508Y-106604088D01*
X155427511Y-106604089D01*
X155427517Y-106604091D01*
X155487127Y-106610500D01*
X155982872Y-106610499D01*
X156042483Y-106604091D01*
X156116667Y-106576421D01*
X156186358Y-106571438D01*
X156203327Y-106576420D01*
X156264010Y-106599053D01*
X156277511Y-106604089D01*
X156277517Y-106604091D01*
X156337127Y-106610500D01*
X156832872Y-106610499D01*
X156892483Y-106604091D01*
X156966667Y-106576421D01*
X157036358Y-106571438D01*
X157053327Y-106576420D01*
X157114010Y-106599053D01*
X157127511Y-106604089D01*
X157127517Y-106604091D01*
X157187127Y-106610500D01*
X157682872Y-106610499D01*
X157742483Y-106604091D01*
X157816667Y-106576421D01*
X157824710Y-106575846D01*
X157831727Y-106571870D01*
X157859056Y-106573390D01*
X157886358Y-106571438D01*
X157895224Y-106575402D01*
X157901489Y-106575751D01*
X157903276Y-106576401D01*
X157977517Y-106604091D01*
X157980957Y-106604460D01*
X157983449Y-106605492D01*
X157985062Y-106605874D01*
X157985000Y-106606135D01*
X158045508Y-106631194D01*
X158085360Y-106688583D01*
X158087858Y-106758408D01*
X158055391Y-106815429D01*
X158030539Y-106840282D01*
X158030537Y-106840284D01*
X158030535Y-106840286D01*
X157882993Y-106987828D01*
X157821670Y-107021312D01*
X157819504Y-107021763D01*
X157726508Y-107040261D01*
X157726498Y-107040264D01*
X157607452Y-107089574D01*
X157537982Y-107097043D01*
X157512548Y-107089574D01*
X157393501Y-107040264D01*
X157393489Y-107040261D01*
X157238845Y-107009500D01*
X157238842Y-107009500D01*
X157081158Y-107009500D01*
X157081155Y-107009500D01*
X156926510Y-107040261D01*
X156926498Y-107040264D01*
X156807452Y-107089574D01*
X156737982Y-107097043D01*
X156712548Y-107089574D01*
X156593501Y-107040264D01*
X156593489Y-107040261D01*
X156438845Y-107009500D01*
X156438842Y-107009500D01*
X156281158Y-107009500D01*
X156281155Y-107009500D01*
X156126510Y-107040261D01*
X156126498Y-107040264D01*
X155980827Y-107100602D01*
X155980814Y-107100609D01*
X155849711Y-107188210D01*
X155849707Y-107188213D01*
X155738213Y-107299707D01*
X155738210Y-107299711D01*
X155650609Y-107430814D01*
X155650602Y-107430827D01*
X155590264Y-107576498D01*
X155590261Y-107576508D01*
X155559361Y-107731850D01*
X155526976Y-107793761D01*
X155525425Y-107795339D01*
X154890981Y-108429782D01*
X154890977Y-108429787D01*
X154871920Y-108462797D01*
X154862866Y-108478480D01*
X154811923Y-108566715D01*
X154770999Y-108719443D01*
X154770999Y-108719445D01*
X154770999Y-108887546D01*
X154771000Y-108887559D01*
X154771000Y-110488128D01*
X154770999Y-110488146D01*
X154770999Y-110653852D01*
X154770998Y-110653852D01*
X154770999Y-110653855D01*
X154811923Y-110806583D01*
X154840860Y-110856702D01*
X154890980Y-110943514D01*
X154904963Y-110957497D01*
X154912297Y-110969052D01*
X154918321Y-110990006D01*
X154928770Y-111009142D01*
X154927784Y-111022923D01*
X154931602Y-111036202D01*
X154925341Y-111057085D01*
X154923786Y-111078834D01*
X154915505Y-111089895D01*
X154911538Y-111103129D01*
X154894980Y-111117313D01*
X154881914Y-111134767D01*
X154868969Y-111139595D01*
X154858476Y-111148584D01*
X154836877Y-111151564D01*
X154816450Y-111159184D01*
X154807604Y-111159500D01*
X154434730Y-111159500D01*
X154367691Y-111139815D01*
X154347049Y-111123181D01*
X154278655Y-111054787D01*
X154219402Y-111018239D01*
X154172678Y-110966291D01*
X154160500Y-110912701D01*
X154160500Y-110556157D01*
X154160499Y-110556153D01*
X154136957Y-110437796D01*
X154129739Y-110401508D01*
X154129737Y-110401503D01*
X154119656Y-110377166D01*
X154102194Y-110335008D01*
X154069394Y-110255821D01*
X154069393Y-110255819D01*
X154069392Y-110255817D01*
X153981790Y-110124712D01*
X153981789Y-110124711D01*
X153870289Y-110013211D01*
X152371818Y-108514740D01*
X152338333Y-108453417D01*
X152335499Y-108427059D01*
X152335499Y-107862129D01*
X152335498Y-107862123D01*
X152329091Y-107802516D01*
X152278797Y-107667671D01*
X152278793Y-107667664D01*
X152192547Y-107552455D01*
X152192544Y-107552452D01*
X152077335Y-107466206D01*
X152077328Y-107466202D01*
X151942482Y-107415908D01*
X151942483Y-107415908D01*
X151882883Y-107409501D01*
X151882881Y-107409500D01*
X151882873Y-107409500D01*
X151882865Y-107409500D01*
X151882097Y-107409500D01*
X151881925Y-107409449D01*
X151879548Y-107409322D01*
X151879578Y-107408760D01*
X151815058Y-107389815D01*
X151769303Y-107337011D01*
X151759359Y-107267853D01*
X151788384Y-107204297D01*
X151794416Y-107197819D01*
X152151953Y-106840282D01*
X152722167Y-106270068D01*
X152783488Y-106236585D01*
X152785655Y-106236134D01*
X152788842Y-106235500D01*
X152943497Y-106204737D01*
X153056708Y-106157844D01*
X153785000Y-106157844D01*
X153791401Y-106217372D01*
X153791403Y-106217379D01*
X153841645Y-106352086D01*
X153841649Y-106352093D01*
X153927809Y-106467187D01*
X153927812Y-106467190D01*
X154042906Y-106553350D01*
X154042913Y-106553354D01*
X154177620Y-106603596D01*
X154177627Y-106603598D01*
X154237155Y-106609999D01*
X154237172Y-106610000D01*
X154435000Y-106610000D01*
X154435000Y-105960000D01*
X153785000Y-105960000D01*
X153785000Y-106157844D01*
X153056708Y-106157844D01*
X153089179Y-106144394D01*
X153220289Y-106056789D01*
X153331789Y-105945289D01*
X153363015Y-105898556D01*
X153402311Y-105839747D01*
X153419391Y-105814183D01*
X153419394Y-105814179D01*
X153479737Y-105668497D01*
X153510500Y-105513842D01*
X153510500Y-105356158D01*
X153510500Y-105356155D01*
X153510499Y-105356153D01*
X153496230Y-105284420D01*
X153479737Y-105201503D01*
X153449725Y-105129046D01*
X153419397Y-105055827D01*
X153419390Y-105055814D01*
X153331789Y-104924711D01*
X153331786Y-104924707D01*
X153284048Y-104876969D01*
X153250563Y-104815646D01*
X153255547Y-104745954D01*
X153284046Y-104701609D01*
X153572821Y-104412834D01*
X153634142Y-104379351D01*
X153703834Y-104384335D01*
G37*
%TD.AperFunction*%
%TA.AperFunction,Conductor*%
G36*
X164195722Y-85516738D02*
G01*
X164217811Y-85518318D01*
X164228594Y-85526390D01*
X164241516Y-85530185D01*
X164256015Y-85546918D01*
X164273744Y-85560190D01*
X164278451Y-85572810D01*
X164287271Y-85582989D01*
X164290422Y-85604906D01*
X164298161Y-85625654D01*
X164295298Y-85638814D01*
X164297215Y-85652147D01*
X164288015Y-85672290D01*
X164283309Y-85693927D01*
X164270040Y-85711652D01*
X164268190Y-85715703D01*
X164262158Y-85722181D01*
X164167684Y-85816654D01*
X164075643Y-85965875D01*
X164075641Y-85965880D01*
X164020494Y-86132302D01*
X164020493Y-86132309D01*
X164010000Y-86235013D01*
X164010000Y-86785000D01*
X164926988Y-86785000D01*
X164894075Y-86842007D01*
X164860000Y-86969174D01*
X164860000Y-87100826D01*
X164894075Y-87227993D01*
X164926988Y-87285000D01*
X164010001Y-87285000D01*
X164010001Y-87834986D01*
X164020494Y-87937697D01*
X164075641Y-88104119D01*
X164075643Y-88104124D01*
X164167684Y-88253345D01*
X164291654Y-88377315D01*
X164440875Y-88469356D01*
X164440880Y-88469358D01*
X164607302Y-88524505D01*
X164607309Y-88524506D01*
X164710019Y-88534999D01*
X165109999Y-88534999D01*
X165110000Y-88534998D01*
X165110000Y-87468012D01*
X165167007Y-87500925D01*
X165294174Y-87535000D01*
X165425826Y-87535000D01*
X165552993Y-87500925D01*
X165610000Y-87468012D01*
X165610000Y-88534999D01*
X166009972Y-88534999D01*
X166009986Y-88534998D01*
X166112697Y-88524505D01*
X166279119Y-88469358D01*
X166279124Y-88469356D01*
X166428345Y-88377315D01*
X166552317Y-88253343D01*
X166647815Y-88098516D01*
X166699763Y-88051791D01*
X166768725Y-88040568D01*
X166832808Y-88068412D01*
X166841035Y-88075931D01*
X166980213Y-88215109D01*
X167152179Y-88340048D01*
X167152181Y-88340049D01*
X167152184Y-88340051D01*
X167341588Y-88436557D01*
X167543757Y-88502246D01*
X167753713Y-88535500D01*
X167753714Y-88535500D01*
X167966286Y-88535500D01*
X167966287Y-88535500D01*
X168176243Y-88502246D01*
X168378412Y-88436557D01*
X168567816Y-88340051D01*
X168628479Y-88295977D01*
X168739786Y-88215109D01*
X168739788Y-88215106D01*
X168739792Y-88215104D01*
X168890104Y-88064792D01*
X168890106Y-88064788D01*
X168890109Y-88064786D01*
X169015048Y-87892820D01*
X169015047Y-87892820D01*
X169015051Y-87892816D01*
X169111557Y-87703412D01*
X169177246Y-87501243D01*
X169210500Y-87291287D01*
X169210500Y-86778713D01*
X169177246Y-86568757D01*
X169111557Y-86366588D01*
X169015051Y-86177184D01*
X169015049Y-86177181D01*
X169015048Y-86177179D01*
X168890109Y-86005213D01*
X168739790Y-85854894D01*
X168739785Y-85854890D01*
X168574519Y-85734818D01*
X168531853Y-85679489D01*
X168525874Y-85609875D01*
X168558479Y-85548080D01*
X168619318Y-85513723D01*
X168647404Y-85510500D01*
X170160500Y-85510500D01*
X170227539Y-85530185D01*
X170273294Y-85582989D01*
X170284500Y-85634500D01*
X170284500Y-94432269D01*
X170264815Y-94499308D01*
X170212011Y-94545063D01*
X170142853Y-94555007D01*
X170136310Y-94553887D01*
X170038842Y-94534500D01*
X169881158Y-94534500D01*
X169881155Y-94534500D01*
X169726510Y-94565261D01*
X169726498Y-94565264D01*
X169580827Y-94625602D01*
X169580814Y-94625609D01*
X169560622Y-94639102D01*
X169531544Y-94648206D01*
X169503227Y-94659466D01*
X169494255Y-94659882D01*
X169493945Y-94659980D01*
X169493686Y-94659909D01*
X169491731Y-94660000D01*
X168885000Y-94660000D01*
X168885000Y-95186000D01*
X168865315Y-95253039D01*
X168835241Y-95285319D01*
X168635241Y-95434819D01*
X168622656Y-95439502D01*
X168612511Y-95448294D01*
X168580078Y-95455349D01*
X168569760Y-95459190D01*
X168566098Y-95458390D01*
X168561000Y-95459500D01*
X168237130Y-95459500D01*
X168237123Y-95459501D01*
X168177516Y-95465908D01*
X168080264Y-95502182D01*
X168036931Y-95510000D01*
X167785000Y-95510000D01*
X167785000Y-95557844D01*
X167791401Y-95617372D01*
X167791403Y-95617379D01*
X167818844Y-95690952D01*
X167823828Y-95760643D01*
X167818844Y-95777618D01*
X167790909Y-95852517D01*
X167784500Y-95912127D01*
X167784500Y-95912134D01*
X167784500Y-95912135D01*
X167784500Y-96407870D01*
X167784501Y-96407876D01*
X167790908Y-96467483D01*
X167818577Y-96541667D01*
X167823561Y-96611358D01*
X167818577Y-96628331D01*
X167790910Y-96702511D01*
X167790909Y-96702515D01*
X167790909Y-96702517D01*
X167784500Y-96762127D01*
X167784500Y-96762134D01*
X167784500Y-96762135D01*
X167784500Y-97257870D01*
X167784501Y-97257876D01*
X167790908Y-97317483D01*
X167818577Y-97391667D01*
X167823561Y-97461358D01*
X167818577Y-97478331D01*
X167790909Y-97552514D01*
X167790908Y-97552516D01*
X167784501Y-97612116D01*
X167784501Y-97612123D01*
X167784500Y-97612135D01*
X167784500Y-97821908D01*
X167764815Y-97888947D01*
X167712011Y-97934702D01*
X167642853Y-97944646D01*
X167624504Y-97940569D01*
X167623487Y-97940260D01*
X167468845Y-97909500D01*
X167468842Y-97909500D01*
X167311158Y-97909500D01*
X167311155Y-97909500D01*
X167156510Y-97940261D01*
X167156498Y-97940264D01*
X167010827Y-98000602D01*
X167010814Y-98000609D01*
X166879711Y-98088210D01*
X166879707Y-98088213D01*
X166768213Y-98199707D01*
X166768210Y-98199711D01*
X166680609Y-98330814D01*
X166680602Y-98330827D01*
X166620264Y-98476498D01*
X166620261Y-98476510D01*
X166589500Y-98631153D01*
X166589500Y-98788846D01*
X166620261Y-98943489D01*
X166620264Y-98943501D01*
X166680602Y-99089172D01*
X166680609Y-99089185D01*
X166768210Y-99220288D01*
X166768213Y-99220292D01*
X166879707Y-99331786D01*
X166879711Y-99331789D01*
X167010814Y-99419390D01*
X167010827Y-99419397D01*
X167113172Y-99461789D01*
X167156503Y-99479737D01*
X167308644Y-99510000D01*
X167311153Y-99510499D01*
X167311156Y-99510500D01*
X167311158Y-99510500D01*
X167468844Y-99510500D01*
X167468845Y-99510499D01*
X167544162Y-99495517D01*
X167623483Y-99479740D01*
X167623485Y-99479739D01*
X167623497Y-99479737D01*
X167623508Y-99479732D01*
X167624489Y-99479435D01*
X167625043Y-99479429D01*
X167629472Y-99478549D01*
X167629638Y-99479388D01*
X167694355Y-99478802D01*
X167753473Y-99516042D01*
X167783073Y-99579333D01*
X167784500Y-99598090D01*
X167784500Y-99807869D01*
X167784501Y-99807876D01*
X167790908Y-99867483D01*
X167818577Y-99941667D01*
X167823561Y-100011358D01*
X167818577Y-100028331D01*
X167790910Y-100102511D01*
X167790909Y-100102515D01*
X167790909Y-100102517D01*
X167784500Y-100162127D01*
X167784500Y-100162134D01*
X167784500Y-100162135D01*
X167784500Y-100657870D01*
X167784501Y-100657876D01*
X167790908Y-100717483D01*
X167818577Y-100791667D01*
X167823561Y-100861358D01*
X167818577Y-100878331D01*
X167790909Y-100952514D01*
X167790908Y-100952516D01*
X167784501Y-101012116D01*
X167784500Y-101012135D01*
X167784500Y-101192351D01*
X167764815Y-101259390D01*
X167712011Y-101305145D01*
X167642853Y-101315089D01*
X167636310Y-101313969D01*
X167613842Y-101309500D01*
X167456158Y-101309500D01*
X167456155Y-101309500D01*
X167301510Y-101340261D01*
X167301498Y-101340264D01*
X167155827Y-101400602D01*
X167155814Y-101400609D01*
X167024711Y-101488210D01*
X167024707Y-101488213D01*
X166913213Y-101599707D01*
X166913210Y-101599711D01*
X166825609Y-101730814D01*
X166825602Y-101730827D01*
X166765264Y-101876498D01*
X166765261Y-101876510D01*
X166734500Y-102031153D01*
X166734500Y-102188846D01*
X166765261Y-102343489D01*
X166765264Y-102343501D01*
X166824930Y-102487548D01*
X166832399Y-102557017D01*
X166824930Y-102582452D01*
X166765264Y-102726498D01*
X166765261Y-102726510D01*
X166734500Y-102881153D01*
X166734500Y-103038846D01*
X166765261Y-103193489D01*
X166765264Y-103193501D01*
X166824930Y-103337548D01*
X166832399Y-103407017D01*
X166824930Y-103432452D01*
X166765264Y-103576498D01*
X166765261Y-103576510D01*
X166734500Y-103731153D01*
X166734500Y-103888846D01*
X166765261Y-104043489D01*
X166765264Y-104043501D01*
X166825602Y-104189172D01*
X166825609Y-104189185D01*
X166913210Y-104320288D01*
X166913213Y-104320292D01*
X167024707Y-104431786D01*
X167024711Y-104431789D01*
X167155814Y-104519390D01*
X167155827Y-104519397D01*
X167285499Y-104573108D01*
X167301503Y-104579737D01*
X167303126Y-104580060D01*
X167303898Y-104580463D01*
X167304299Y-104580585D01*
X167305307Y-104580513D01*
X167306863Y-104581363D01*
X167307335Y-104581506D01*
X167307305Y-104581604D01*
X167335049Y-104596753D01*
X167365040Y-104612437D01*
X167365612Y-104613442D01*
X167366630Y-104613998D01*
X167382863Y-104643728D01*
X167399621Y-104673148D01*
X167399559Y-104674304D01*
X167400114Y-104675321D01*
X167397698Y-104709092D01*
X167395890Y-104742918D01*
X167395212Y-104743857D01*
X167395130Y-104745013D01*
X167374838Y-104772118D01*
X167355030Y-104799595D01*
X167353724Y-104800323D01*
X167353258Y-104800946D01*
X167322281Y-104817861D01*
X167253333Y-104843577D01*
X167183641Y-104848561D01*
X167166668Y-104843577D01*
X167092488Y-104815910D01*
X167092484Y-104815909D01*
X167092483Y-104815909D01*
X167032873Y-104809500D01*
X167032863Y-104809500D01*
X166537129Y-104809500D01*
X166537118Y-104809501D01*
X166502755Y-104813195D01*
X166500498Y-104812787D01*
X166498351Y-104813589D01*
X166466281Y-104806613D01*
X166433996Y-104800787D01*
X166431619Y-104799073D01*
X166430078Y-104798738D01*
X166401823Y-104777586D01*
X166377226Y-104752989D01*
X166325843Y-104701607D01*
X166303716Y-104679480D01*
X166303713Y-104679478D01*
X165494574Y-103870339D01*
X165461089Y-103809016D01*
X165460638Y-103806849D01*
X165439630Y-103701239D01*
X165429737Y-103651503D01*
X165417088Y-103620965D01*
X165369397Y-103505827D01*
X165369390Y-103505814D01*
X165281789Y-103374711D01*
X165281786Y-103374707D01*
X165170292Y-103263213D01*
X165170288Y-103263210D01*
X165039185Y-103175609D01*
X165039172Y-103175602D01*
X164893501Y-103115264D01*
X164893489Y-103115261D01*
X164738845Y-103084500D01*
X164738842Y-103084500D01*
X164581158Y-103084500D01*
X164581155Y-103084500D01*
X164426510Y-103115261D01*
X164426498Y-103115264D01*
X164280827Y-103175602D01*
X164280814Y-103175609D01*
X164149711Y-103263210D01*
X164149707Y-103263213D01*
X164038213Y-103374707D01*
X164038210Y-103374711D01*
X163950609Y-103505814D01*
X163950602Y-103505827D01*
X163890264Y-103651498D01*
X163890261Y-103651510D01*
X163859500Y-103806153D01*
X163859500Y-103963846D01*
X163890261Y-104118489D01*
X163890264Y-104118501D01*
X163950602Y-104264172D01*
X163950609Y-104264185D01*
X164038210Y-104395288D01*
X164038213Y-104395292D01*
X164149707Y-104506786D01*
X164149711Y-104506789D01*
X164262867Y-104582398D01*
X164307672Y-104636010D01*
X164316379Y-104705335D01*
X164286225Y-104768363D01*
X164226781Y-104805082D01*
X164193977Y-104809500D01*
X163987130Y-104809500D01*
X163987123Y-104809501D01*
X163927516Y-104815908D01*
X163853332Y-104843577D01*
X163783640Y-104848561D01*
X163766668Y-104843577D01*
X163692485Y-104815909D01*
X163692483Y-104815908D01*
X163632883Y-104809501D01*
X163632881Y-104809500D01*
X163632873Y-104809500D01*
X163632865Y-104809500D01*
X163393419Y-104809500D01*
X163326380Y-104789815D01*
X163280625Y-104737011D01*
X163270681Y-104667853D01*
X163278858Y-104638048D01*
X163302689Y-104580513D01*
X163309737Y-104563497D01*
X163340500Y-104408842D01*
X163340500Y-104251158D01*
X163340500Y-104251155D01*
X163340499Y-104251153D01*
X163328173Y-104189185D01*
X163309737Y-104096503D01*
X163293736Y-104057873D01*
X163249397Y-103950827D01*
X163249390Y-103950814D01*
X163161789Y-103819711D01*
X163161786Y-103819707D01*
X163050292Y-103708213D01*
X163050288Y-103708210D01*
X162919185Y-103620609D01*
X162919172Y-103620602D01*
X162773501Y-103560264D01*
X162773489Y-103560261D01*
X162618845Y-103529500D01*
X162618842Y-103529500D01*
X162461158Y-103529500D01*
X162461155Y-103529500D01*
X162306510Y-103560261D01*
X162306498Y-103560264D01*
X162159952Y-103620965D01*
X162090483Y-103628434D01*
X162065048Y-103620965D01*
X161918501Y-103560264D01*
X161918489Y-103560261D01*
X161763845Y-103529500D01*
X161763842Y-103529500D01*
X161606158Y-103529500D01*
X161606155Y-103529500D01*
X161451510Y-103560261D01*
X161451498Y-103560264D01*
X161305827Y-103620602D01*
X161305814Y-103620609D01*
X161174711Y-103708210D01*
X161174707Y-103708213D01*
X161063213Y-103819707D01*
X161063210Y-103819711D01*
X160975609Y-103950814D01*
X160975602Y-103950827D01*
X160915264Y-104096498D01*
X160915261Y-104096510D01*
X160884500Y-104251153D01*
X160884500Y-104408846D01*
X160915261Y-104563489D01*
X160915264Y-104563501D01*
X160946142Y-104638048D01*
X160953611Y-104707518D01*
X160922335Y-104769997D01*
X160862246Y-104805648D01*
X160831582Y-104809500D01*
X160587130Y-104809500D01*
X160587123Y-104809501D01*
X160527516Y-104815908D01*
X160453332Y-104843577D01*
X160383640Y-104848561D01*
X160366668Y-104843577D01*
X160292488Y-104815910D01*
X160292484Y-104815909D01*
X160292483Y-104815909D01*
X160232873Y-104809500D01*
X160232863Y-104809500D01*
X159737129Y-104809500D01*
X159737123Y-104809501D01*
X159677516Y-104815908D01*
X159603332Y-104843577D01*
X159533640Y-104848561D01*
X159516668Y-104843577D01*
X159442488Y-104815910D01*
X159442484Y-104815909D01*
X159442483Y-104815909D01*
X159382873Y-104809500D01*
X159382863Y-104809500D01*
X158887129Y-104809500D01*
X158887123Y-104809501D01*
X158827516Y-104815908D01*
X158753332Y-104843577D01*
X158683640Y-104848561D01*
X158666668Y-104843577D01*
X158592488Y-104815910D01*
X158592484Y-104815909D01*
X158592483Y-104815909D01*
X158532873Y-104809500D01*
X158532863Y-104809500D01*
X158037129Y-104809500D01*
X158037123Y-104809501D01*
X157977516Y-104815908D01*
X157903332Y-104843577D01*
X157833640Y-104848561D01*
X157816668Y-104843577D01*
X157742488Y-104815910D01*
X157742484Y-104815909D01*
X157742483Y-104815909D01*
X157682873Y-104809500D01*
X157682863Y-104809500D01*
X157187129Y-104809500D01*
X157187123Y-104809501D01*
X157127516Y-104815908D01*
X157053332Y-104843577D01*
X156983640Y-104848561D01*
X156966668Y-104843577D01*
X156892488Y-104815910D01*
X156892484Y-104815909D01*
X156892483Y-104815909D01*
X156832873Y-104809500D01*
X156832863Y-104809500D01*
X156337129Y-104809500D01*
X156337123Y-104809501D01*
X156277516Y-104815908D01*
X156203332Y-104843577D01*
X156133640Y-104848561D01*
X156116668Y-104843577D01*
X156042485Y-104815909D01*
X156042483Y-104815908D01*
X155982883Y-104809501D01*
X155982881Y-104809500D01*
X155982873Y-104809500D01*
X155982865Y-104809500D01*
X155709499Y-104809500D01*
X155642460Y-104789815D01*
X155596705Y-104737011D01*
X155585499Y-104685500D01*
X155585499Y-104412129D01*
X155585498Y-104412123D01*
X155585145Y-104408842D01*
X155579091Y-104352517D01*
X155551421Y-104278332D01*
X155546438Y-104208642D01*
X155551420Y-104191672D01*
X155579091Y-104117483D01*
X155585500Y-104057873D01*
X155585499Y-103562128D01*
X155579091Y-103502517D01*
X155551421Y-103428332D01*
X155546438Y-103358642D01*
X155551420Y-103341672D01*
X155579091Y-103267483D01*
X155585500Y-103207873D01*
X155585499Y-102712128D01*
X155579091Y-102652517D01*
X155551421Y-102578332D01*
X155546438Y-102508642D01*
X155551420Y-102491672D01*
X155579091Y-102417483D01*
X155585500Y-102357873D01*
X155585499Y-102078066D01*
X155605183Y-102011029D01*
X155657987Y-101965274D01*
X155727146Y-101955330D01*
X155756949Y-101963506D01*
X155796098Y-101979722D01*
X155950748Y-102010484D01*
X155950751Y-102010485D01*
X155950753Y-102010485D01*
X156108439Y-102010485D01*
X156108440Y-102010484D01*
X156263092Y-101979722D01*
X156408774Y-101919379D01*
X156539884Y-101831774D01*
X156651384Y-101720274D01*
X156738989Y-101589164D01*
X156799332Y-101443482D01*
X156830095Y-101288827D01*
X156830095Y-101131143D01*
X156830095Y-101131140D01*
X156830094Y-101131138D01*
X156808254Y-101021344D01*
X156799332Y-100976488D01*
X156752724Y-100863967D01*
X156745256Y-100794499D01*
X156752721Y-100769073D01*
X156804737Y-100643497D01*
X156835500Y-100488842D01*
X156835500Y-100331158D01*
X156835500Y-100331155D01*
X156835499Y-100331153D01*
X156804738Y-100176510D01*
X156804737Y-100176503D01*
X156745070Y-100032452D01*
X156737601Y-99962983D01*
X156745070Y-99937548D01*
X156798781Y-99807876D01*
X156804737Y-99793497D01*
X156835500Y-99638842D01*
X156835500Y-99481158D01*
X156835500Y-99481155D01*
X156835499Y-99481153D01*
X156831647Y-99461789D01*
X156804737Y-99326503D01*
X156776073Y-99257302D01*
X156745070Y-99182452D01*
X156737601Y-99112983D01*
X156745070Y-99087548D01*
X156804735Y-98943501D01*
X156804737Y-98943497D01*
X156835500Y-98788842D01*
X156835500Y-98631158D01*
X156835500Y-98631155D01*
X156835499Y-98631153D01*
X156817388Y-98540104D01*
X156804737Y-98476503D01*
X156804735Y-98476498D01*
X156744397Y-98330827D01*
X156744390Y-98330814D01*
X156656789Y-98199711D01*
X156656786Y-98199707D01*
X156545292Y-98088213D01*
X156545288Y-98088210D01*
X156414185Y-98000609D01*
X156414172Y-98000602D01*
X156268501Y-97940264D01*
X156268489Y-97940261D01*
X156113845Y-97909500D01*
X156113842Y-97909500D01*
X155956158Y-97909500D01*
X155956155Y-97909500D01*
X155801510Y-97940261D01*
X155801503Y-97940263D01*
X155756950Y-97958717D01*
X155687481Y-97966184D01*
X155625002Y-97934909D01*
X155589350Y-97874819D01*
X155585499Y-97844155D01*
X155585499Y-97612129D01*
X155585498Y-97612123D01*
X155585497Y-97612116D01*
X155579091Y-97552517D01*
X155551421Y-97478332D01*
X155546438Y-97408642D01*
X155551422Y-97391667D01*
X155579091Y-97317483D01*
X155585500Y-97257873D01*
X155585499Y-96762128D01*
X155579091Y-96702517D01*
X155551421Y-96628332D01*
X155546438Y-96558642D01*
X155551422Y-96541667D01*
X155579091Y-96467483D01*
X155585500Y-96407873D01*
X155585499Y-95912128D01*
X155579091Y-95852517D01*
X155551421Y-95778332D01*
X155546438Y-95708642D01*
X155551420Y-95691672D01*
X155579091Y-95617483D01*
X155585500Y-95557873D01*
X155585499Y-95284498D01*
X155605183Y-95217461D01*
X155657987Y-95171706D01*
X155709499Y-95160500D01*
X160359684Y-95160500D01*
X160407136Y-95169939D01*
X160487784Y-95203344D01*
X160551503Y-95229737D01*
X160706153Y-95260499D01*
X160706156Y-95260500D01*
X160706158Y-95260500D01*
X160863844Y-95260500D01*
X160863845Y-95260499D01*
X161018497Y-95229737D01*
X161164179Y-95169394D01*
X161295289Y-95081789D01*
X161406789Y-94970289D01*
X161494394Y-94839179D01*
X161554737Y-94693497D01*
X161568241Y-94625609D01*
X161575883Y-94587192D01*
X161608268Y-94525281D01*
X161668984Y-94490707D01*
X161738753Y-94494446D01*
X161795425Y-94535313D01*
X161819117Y-94587192D01*
X161840261Y-94693489D01*
X161840264Y-94693501D01*
X161900602Y-94839172D01*
X161900609Y-94839185D01*
X161988210Y-94970288D01*
X161988213Y-94970292D01*
X162099707Y-95081786D01*
X162099711Y-95081789D01*
X162230814Y-95169390D01*
X162230827Y-95169397D01*
X162376498Y-95229735D01*
X162376503Y-95229737D01*
X162531153Y-95260499D01*
X162531156Y-95260500D01*
X162531158Y-95260500D01*
X162688844Y-95260500D01*
X162688845Y-95260499D01*
X162843497Y-95229737D01*
X162937466Y-95190814D01*
X162987864Y-95169939D01*
X163035316Y-95160500D01*
X164753996Y-95160500D01*
X164845040Y-95142389D01*
X164889328Y-95133580D01*
X164966769Y-95101503D01*
X165016807Y-95080777D01*
X165016808Y-95080776D01*
X165016811Y-95080775D01*
X165131543Y-95004114D01*
X165368285Y-94767372D01*
X165427813Y-94707844D01*
X167785000Y-94707844D01*
X167791401Y-94767372D01*
X167791403Y-94767382D01*
X167819110Y-94841668D01*
X167824094Y-94911359D01*
X167819110Y-94928332D01*
X167791403Y-95002617D01*
X167791401Y-95002627D01*
X167785000Y-95062155D01*
X167785000Y-95110000D01*
X168485000Y-95110000D01*
X168485000Y-94660000D01*
X167785000Y-94660000D01*
X167785000Y-94707844D01*
X165427813Y-94707844D01*
X165614701Y-94520957D01*
X166638838Y-93496819D01*
X166700161Y-93463334D01*
X166726519Y-93460500D01*
X167660500Y-93460500D01*
X167727539Y-93480185D01*
X167773294Y-93532989D01*
X167784500Y-93584500D01*
X167784500Y-93857869D01*
X167784501Y-93857876D01*
X167790909Y-93917485D01*
X167818843Y-93992382D01*
X167823827Y-94062074D01*
X167818844Y-94079046D01*
X167791402Y-94152623D01*
X167791401Y-94152627D01*
X167785000Y-94212155D01*
X167785000Y-94260000D01*
X168036931Y-94260000D01*
X168080263Y-94267817D01*
X168177517Y-94304091D01*
X168237127Y-94310500D01*
X169132872Y-94310499D01*
X169192483Y-94304091D01*
X169289736Y-94267817D01*
X169314482Y-94263353D01*
X169321573Y-94260534D01*
X169325673Y-94261334D01*
X169333069Y-94260000D01*
X169585000Y-94260000D01*
X169585000Y-94212172D01*
X169584999Y-94212155D01*
X169578598Y-94152623D01*
X169551155Y-94079047D01*
X169546171Y-94009355D01*
X169551148Y-93992399D01*
X169579091Y-93917483D01*
X169585500Y-93857873D01*
X169585499Y-93362128D01*
X169579091Y-93302517D01*
X169551421Y-93228332D01*
X169546438Y-93158642D01*
X169551420Y-93141672D01*
X169579091Y-93067483D01*
X169585500Y-93007873D01*
X169585499Y-92512128D01*
X169579091Y-92452517D01*
X169551154Y-92377616D01*
X169546171Y-92307927D01*
X169551156Y-92290950D01*
X169578597Y-92217379D01*
X169578597Y-92217377D01*
X169584999Y-92157844D01*
X169585000Y-92157827D01*
X169585000Y-91960000D01*
X167756362Y-91960000D01*
X167689323Y-91940315D01*
X167668681Y-91923681D01*
X167655000Y-91910000D01*
X165285000Y-91910000D01*
X165285000Y-92610000D01*
X165301636Y-92626636D01*
X165312019Y-92629685D01*
X165357774Y-92682489D01*
X165367718Y-92751647D01*
X165338693Y-92815203D01*
X165332661Y-92821681D01*
X164431162Y-93723181D01*
X164369839Y-93756666D01*
X164343481Y-93759500D01*
X163035316Y-93759500D01*
X162987864Y-93750061D01*
X162843501Y-93690264D01*
X162843489Y-93690261D01*
X162688845Y-93659500D01*
X162688842Y-93659500D01*
X162531158Y-93659500D01*
X162531155Y-93659500D01*
X162376510Y-93690261D01*
X162376498Y-93690264D01*
X162230827Y-93750602D01*
X162230814Y-93750609D01*
X162099711Y-93838210D01*
X162099707Y-93838213D01*
X161988213Y-93949707D01*
X161988210Y-93949711D01*
X161900609Y-94080814D01*
X161900602Y-94080827D01*
X161840264Y-94226498D01*
X161840261Y-94226508D01*
X161819117Y-94332808D01*
X161786732Y-94394718D01*
X161726016Y-94429293D01*
X161656247Y-94425553D01*
X161599575Y-94384686D01*
X161575883Y-94332808D01*
X161554738Y-94226508D01*
X161554737Y-94226507D01*
X161554737Y-94226503D01*
X161535919Y-94181071D01*
X161494397Y-94080827D01*
X161494390Y-94080814D01*
X161406789Y-93949711D01*
X161406786Y-93949707D01*
X161295292Y-93838213D01*
X161295288Y-93838210D01*
X161164185Y-93750609D01*
X161164172Y-93750602D01*
X161018501Y-93690264D01*
X161018489Y-93690261D01*
X160863845Y-93659500D01*
X160863842Y-93659500D01*
X160706158Y-93659500D01*
X160706155Y-93659500D01*
X160551510Y-93690261D01*
X160551498Y-93690264D01*
X160407136Y-93750061D01*
X160359684Y-93759500D01*
X154809000Y-93759500D01*
X154741961Y-93739815D01*
X154734759Y-93734819D01*
X154534759Y-93585319D01*
X154516323Y-93560727D01*
X154496206Y-93537511D01*
X154495097Y-93532413D01*
X154492849Y-93529415D01*
X154492055Y-93518433D01*
X154485000Y-93486000D01*
X154485000Y-93410000D01*
X154885000Y-93410000D01*
X155585000Y-93410000D01*
X155585000Y-93362172D01*
X155584999Y-93362155D01*
X155578598Y-93302628D01*
X155550888Y-93228334D01*
X155545904Y-93158642D01*
X155550888Y-93141666D01*
X155578598Y-93067371D01*
X155584999Y-93007844D01*
X155585000Y-93007827D01*
X155585000Y-92960000D01*
X154885000Y-92960000D01*
X154885000Y-93410000D01*
X154485000Y-93410000D01*
X154485000Y-92960000D01*
X153785000Y-92960000D01*
X153785000Y-93007844D01*
X153791401Y-93067372D01*
X153791403Y-93067382D01*
X153819110Y-93141668D01*
X153824528Y-93209280D01*
X153782600Y-93419261D01*
X153771842Y-93439788D01*
X153765315Y-93462020D01*
X153755933Y-93470149D01*
X153750169Y-93481149D01*
X153730021Y-93492602D01*
X153712511Y-93507775D01*
X153700222Y-93509541D01*
X153689428Y-93515678D01*
X153666291Y-93514420D01*
X153643353Y-93517719D01*
X153632057Y-93512560D01*
X153619661Y-93511887D01*
X153600876Y-93498320D01*
X153579797Y-93488694D01*
X153573319Y-93482662D01*
X153281071Y-93190414D01*
X153254191Y-93150185D01*
X153194397Y-93005827D01*
X153194390Y-93005814D01*
X153106789Y-92874711D01*
X153106786Y-92874707D01*
X152995292Y-92763213D01*
X152995288Y-92763210D01*
X152907259Y-92704390D01*
X152862454Y-92650777D01*
X152857333Y-92610000D01*
X155935000Y-92610000D01*
X155982828Y-92610000D01*
X155982844Y-92609999D01*
X156042371Y-92603598D01*
X156116666Y-92575888D01*
X156186358Y-92570904D01*
X156203334Y-92575888D01*
X156277628Y-92603598D01*
X156277627Y-92603598D01*
X156337155Y-92609999D01*
X156337172Y-92610000D01*
X156385000Y-92610000D01*
X156785000Y-92610000D01*
X156832828Y-92610000D01*
X156832844Y-92609999D01*
X156892371Y-92603598D01*
X156966666Y-92575888D01*
X157036358Y-92570904D01*
X157053334Y-92575888D01*
X157127628Y-92603598D01*
X157127627Y-92603598D01*
X157187155Y-92609999D01*
X157187172Y-92610000D01*
X157235000Y-92610000D01*
X157635000Y-92610000D01*
X157682828Y-92610000D01*
X157682844Y-92609999D01*
X157742371Y-92603598D01*
X157816666Y-92575888D01*
X157886358Y-92570904D01*
X157903334Y-92575888D01*
X157977628Y-92603598D01*
X157977627Y-92603598D01*
X158037155Y-92609999D01*
X158037172Y-92610000D01*
X158085000Y-92610000D01*
X158485000Y-92610000D01*
X158532828Y-92610000D01*
X158532844Y-92609999D01*
X158592371Y-92603598D01*
X158666666Y-92575888D01*
X158736358Y-92570904D01*
X158753334Y-92575888D01*
X158827628Y-92603598D01*
X158827627Y-92603598D01*
X158887155Y-92609999D01*
X158887172Y-92610000D01*
X158935000Y-92610000D01*
X159335000Y-92610000D01*
X159382828Y-92610000D01*
X159382844Y-92609999D01*
X159442371Y-92603598D01*
X159516666Y-92575888D01*
X159586358Y-92570904D01*
X159603334Y-92575888D01*
X159677628Y-92603598D01*
X159677627Y-92603598D01*
X159737155Y-92609999D01*
X159737172Y-92610000D01*
X159785000Y-92610000D01*
X160185000Y-92610000D01*
X160232828Y-92610000D01*
X160232844Y-92609999D01*
X160292371Y-92603598D01*
X160366666Y-92575888D01*
X160436358Y-92570904D01*
X160453334Y-92575888D01*
X160527628Y-92603598D01*
X160527627Y-92603598D01*
X160587155Y-92609999D01*
X160587172Y-92610000D01*
X160635000Y-92610000D01*
X161035000Y-92610000D01*
X161082828Y-92610000D01*
X161082844Y-92609999D01*
X161142371Y-92603598D01*
X161216666Y-92575888D01*
X161286358Y-92570904D01*
X161303334Y-92575888D01*
X161377628Y-92603598D01*
X161377627Y-92603598D01*
X161437155Y-92609999D01*
X161437172Y-92610000D01*
X161485000Y-92610000D01*
X161885000Y-92610000D01*
X161932828Y-92610000D01*
X161932844Y-92609999D01*
X161992371Y-92603598D01*
X162066666Y-92575888D01*
X162136358Y-92570904D01*
X162153334Y-92575888D01*
X162227628Y-92603598D01*
X162227627Y-92603598D01*
X162287155Y-92609999D01*
X162287172Y-92610000D01*
X162335000Y-92610000D01*
X162735000Y-92610000D01*
X162782828Y-92610000D01*
X162782844Y-92609999D01*
X162842371Y-92603598D01*
X162916666Y-92575888D01*
X162986358Y-92570904D01*
X163003334Y-92575888D01*
X163077628Y-92603598D01*
X163077627Y-92603598D01*
X163137155Y-92609999D01*
X163137172Y-92610000D01*
X163185000Y-92610000D01*
X163585000Y-92610000D01*
X163632828Y-92610000D01*
X163632844Y-92609999D01*
X163692371Y-92603598D01*
X163766666Y-92575888D01*
X163836358Y-92570904D01*
X163853334Y-92575888D01*
X163927628Y-92603598D01*
X163927627Y-92603598D01*
X163987155Y-92609999D01*
X163987172Y-92610000D01*
X164035000Y-92610000D01*
X164435000Y-92610000D01*
X164482828Y-92610000D01*
X164482844Y-92609999D01*
X164542371Y-92603598D01*
X164616666Y-92575888D01*
X164686358Y-92570904D01*
X164703334Y-92575888D01*
X164777628Y-92603598D01*
X164777627Y-92603598D01*
X164837155Y-92609999D01*
X164837172Y-92610000D01*
X164885000Y-92610000D01*
X164885000Y-91910000D01*
X164435000Y-91910000D01*
X164435000Y-92610000D01*
X164035000Y-92610000D01*
X164035000Y-91910000D01*
X163585000Y-91910000D01*
X163585000Y-92610000D01*
X163185000Y-92610000D01*
X163185000Y-91910000D01*
X162735000Y-91910000D01*
X162735000Y-92610000D01*
X162335000Y-92610000D01*
X162335000Y-91910000D01*
X161885000Y-91910000D01*
X161885000Y-92610000D01*
X161485000Y-92610000D01*
X161485000Y-91910000D01*
X161035000Y-91910000D01*
X161035000Y-92610000D01*
X160635000Y-92610000D01*
X160635000Y-91910000D01*
X160185000Y-91910000D01*
X160185000Y-92610000D01*
X159785000Y-92610000D01*
X159785000Y-91910000D01*
X159335000Y-91910000D01*
X159335000Y-92610000D01*
X158935000Y-92610000D01*
X158935000Y-91910000D01*
X158485000Y-91910000D01*
X158485000Y-92610000D01*
X158085000Y-92610000D01*
X158085000Y-91910000D01*
X157635000Y-91910000D01*
X157635000Y-92610000D01*
X157235000Y-92610000D01*
X157235000Y-91910000D01*
X156785000Y-91910000D01*
X156785000Y-92610000D01*
X156385000Y-92610000D01*
X156385000Y-91910000D01*
X155935000Y-91910000D01*
X155935000Y-92610000D01*
X152857333Y-92610000D01*
X152853747Y-92581452D01*
X152883902Y-92518425D01*
X152888449Y-92513627D01*
X153573319Y-91828757D01*
X153634642Y-91795273D01*
X153704334Y-91800257D01*
X153760267Y-91842129D01*
X153784684Y-91907593D01*
X153785000Y-91916439D01*
X153785000Y-92157844D01*
X153791401Y-92217372D01*
X153791403Y-92217382D01*
X153819110Y-92291668D01*
X153824094Y-92361359D01*
X153819110Y-92378332D01*
X153791403Y-92452617D01*
X153791401Y-92452627D01*
X153785000Y-92512155D01*
X153785000Y-92560000D01*
X154435000Y-92560000D01*
X154935000Y-92560000D01*
X155535000Y-92560000D01*
X155535000Y-91960000D01*
X154935000Y-91960000D01*
X154935000Y-92560000D01*
X154435000Y-92560000D01*
X154435000Y-91834000D01*
X154454685Y-91766961D01*
X154507489Y-91721206D01*
X154559000Y-91710000D01*
X154685000Y-91710000D01*
X154685000Y-91584000D01*
X154704685Y-91516961D01*
X154712718Y-91510000D01*
X155935000Y-91510000D01*
X156385000Y-91510000D01*
X156785000Y-91510000D01*
X157235000Y-91510000D01*
X157635000Y-91510000D01*
X158085000Y-91510000D01*
X158485000Y-91510000D01*
X158935000Y-91510000D01*
X159335000Y-91510000D01*
X159785000Y-91510000D01*
X160185000Y-91510000D01*
X160635000Y-91510000D01*
X161035000Y-91510000D01*
X161485000Y-91510000D01*
X161885000Y-91510000D01*
X162335000Y-91510000D01*
X162735000Y-91510000D01*
X163185000Y-91510000D01*
X163185000Y-90810000D01*
X163137155Y-90810000D01*
X163077627Y-90816401D01*
X163077617Y-90816403D01*
X163003332Y-90844110D01*
X162933641Y-90849094D01*
X162916668Y-90844110D01*
X162842382Y-90816403D01*
X162842372Y-90816401D01*
X162782844Y-90810000D01*
X162735000Y-90810000D01*
X162735000Y-91510000D01*
X162335000Y-91510000D01*
X162335000Y-90810000D01*
X162287155Y-90810000D01*
X162227627Y-90816401D01*
X162227617Y-90816403D01*
X162153332Y-90844110D01*
X162083641Y-90849094D01*
X162066668Y-90844110D01*
X161992382Y-90816403D01*
X161992372Y-90816401D01*
X161932844Y-90810000D01*
X161885000Y-90810000D01*
X161885000Y-91510000D01*
X161485000Y-91510000D01*
X161485000Y-90810000D01*
X161437155Y-90810000D01*
X161377627Y-90816401D01*
X161377617Y-90816403D01*
X161303332Y-90844110D01*
X161233641Y-90849094D01*
X161216668Y-90844110D01*
X161142382Y-90816403D01*
X161142372Y-90816401D01*
X161082844Y-90810000D01*
X161035000Y-90810000D01*
X161035000Y-91510000D01*
X160635000Y-91510000D01*
X160635000Y-90810000D01*
X160587155Y-90810000D01*
X160527627Y-90816401D01*
X160527617Y-90816403D01*
X160453332Y-90844110D01*
X160383641Y-90849094D01*
X160366668Y-90844110D01*
X160292382Y-90816403D01*
X160292372Y-90816401D01*
X160232844Y-90810000D01*
X160185000Y-90810000D01*
X160185000Y-91510000D01*
X159785000Y-91510000D01*
X159785000Y-90810000D01*
X159737155Y-90810000D01*
X159677627Y-90816401D01*
X159677617Y-90816403D01*
X159603332Y-90844110D01*
X159533641Y-90849094D01*
X159516668Y-90844110D01*
X159442382Y-90816403D01*
X159442372Y-90816401D01*
X159382844Y-90810000D01*
X159335000Y-90810000D01*
X159335000Y-91510000D01*
X158935000Y-91510000D01*
X158935000Y-90810000D01*
X158887155Y-90810000D01*
X158827627Y-90816401D01*
X158827617Y-90816403D01*
X158753332Y-90844110D01*
X158683641Y-90849094D01*
X158666668Y-90844110D01*
X158592382Y-90816403D01*
X158592372Y-90816401D01*
X158532844Y-90810000D01*
X158485000Y-90810000D01*
X158485000Y-91510000D01*
X158085000Y-91510000D01*
X158085000Y-90810000D01*
X158037155Y-90810000D01*
X157977627Y-90816401D01*
X157977617Y-90816403D01*
X157903332Y-90844110D01*
X157833641Y-90849094D01*
X157816668Y-90844110D01*
X157742382Y-90816403D01*
X157742372Y-90816401D01*
X157682844Y-90810000D01*
X157635000Y-90810000D01*
X157635000Y-91510000D01*
X157235000Y-91510000D01*
X157235000Y-90810000D01*
X157187155Y-90810000D01*
X157127627Y-90816401D01*
X157127617Y-90816403D01*
X157053332Y-90844110D01*
X156983641Y-90849094D01*
X156966668Y-90844110D01*
X156892382Y-90816403D01*
X156892372Y-90816401D01*
X156832844Y-90810000D01*
X156785000Y-90810000D01*
X156785000Y-91510000D01*
X156385000Y-91510000D01*
X156385000Y-90810000D01*
X156337155Y-90810000D01*
X156277627Y-90816401D01*
X156277617Y-90816403D01*
X156203332Y-90844110D01*
X156133641Y-90849094D01*
X156116668Y-90844110D01*
X156042382Y-90816403D01*
X156042372Y-90816401D01*
X155982844Y-90810000D01*
X155935000Y-90810000D01*
X155935000Y-91510000D01*
X154712718Y-91510000D01*
X154757489Y-91471206D01*
X154809000Y-91460000D01*
X155535000Y-91460000D01*
X155535000Y-90810000D01*
X155487155Y-90810000D01*
X155427627Y-90816401D01*
X155427617Y-90816403D01*
X155353332Y-90844110D01*
X155283641Y-90849094D01*
X155266668Y-90844110D01*
X155192382Y-90816403D01*
X155192372Y-90816401D01*
X155132844Y-90810000D01*
X154891440Y-90810000D01*
X154824401Y-90790315D01*
X154778646Y-90737511D01*
X154768702Y-90668353D01*
X154797727Y-90604797D01*
X154803759Y-90598319D01*
X155230259Y-90171819D01*
X155291582Y-90138334D01*
X155317940Y-90135500D01*
X155938844Y-90135500D01*
X155938845Y-90135499D01*
X156093497Y-90104737D01*
X156239179Y-90044394D01*
X156370289Y-89956789D01*
X156481789Y-89845289D01*
X156569394Y-89714179D01*
X156629737Y-89568497D01*
X156660500Y-89413842D01*
X156660500Y-89256158D01*
X156660500Y-89256155D01*
X156660499Y-89256153D01*
X156629738Y-89101510D01*
X156629737Y-89101503D01*
X156629735Y-89101498D01*
X156569397Y-88955827D01*
X156569390Y-88955814D01*
X156481789Y-88824711D01*
X156481786Y-88824707D01*
X156370292Y-88713213D01*
X156370287Y-88713209D01*
X156361284Y-88707193D01*
X156316480Y-88653579D01*
X156307775Y-88584254D01*
X156337932Y-88521227D01*
X156397377Y-88484510D01*
X156449577Y-88481620D01*
X156485000Y-88487230D01*
X156485000Y-87439145D01*
X156551657Y-87477630D01*
X156672465Y-87510000D01*
X156797535Y-87510000D01*
X156918343Y-87477630D01*
X156985000Y-87439145D01*
X156985000Y-88487230D01*
X157051126Y-88476757D01*
X157051129Y-88476757D01*
X157253217Y-88411095D01*
X157442557Y-88314620D01*
X157614459Y-88189727D01*
X157614464Y-88189723D01*
X157764721Y-88039466D01*
X157884371Y-87874781D01*
X157939701Y-87832115D01*
X158009314Y-87826136D01*
X158071110Y-87858741D01*
X158085008Y-87874781D01*
X158204890Y-88039785D01*
X158204894Y-88039790D01*
X158355213Y-88190109D01*
X158527179Y-88315048D01*
X158527181Y-88315049D01*
X158527184Y-88315051D01*
X158716588Y-88411557D01*
X158918757Y-88477246D01*
X159128713Y-88510500D01*
X159128714Y-88510500D01*
X159341286Y-88510500D01*
X159341287Y-88510500D01*
X159551243Y-88477246D01*
X159753412Y-88411557D01*
X159942816Y-88315051D01*
X159984866Y-88284500D01*
X160114786Y-88190109D01*
X160114788Y-88190106D01*
X160114792Y-88190104D01*
X160265104Y-88039792D01*
X160265106Y-88039788D01*
X160265109Y-88039786D01*
X160390048Y-87867820D01*
X160390047Y-87867820D01*
X160390051Y-87867816D01*
X160486557Y-87678412D01*
X160552246Y-87476243D01*
X160585500Y-87266287D01*
X160585500Y-87034098D01*
X160605185Y-86967059D01*
X160657989Y-86921304D01*
X160727147Y-86911360D01*
X160790703Y-86940385D01*
X160797181Y-86946417D01*
X163886447Y-90035683D01*
X163919932Y-90097006D01*
X163914948Y-90166698D01*
X163913328Y-90170814D01*
X163890264Y-90226497D01*
X163890261Y-90226505D01*
X163859500Y-90381153D01*
X163859500Y-90538846D01*
X163889148Y-90687898D01*
X163882921Y-90757490D01*
X163840058Y-90812667D01*
X163774168Y-90835911D01*
X163724197Y-90828271D01*
X163692376Y-90816402D01*
X163692372Y-90816401D01*
X163632844Y-90810000D01*
X163585000Y-90810000D01*
X163585000Y-91510000D01*
X165735000Y-91510000D01*
X166135000Y-91510000D01*
X166585000Y-91510000D01*
X166985000Y-91510000D01*
X167435000Y-91510000D01*
X167435000Y-91460000D01*
X167835000Y-91460000D01*
X168435000Y-91460000D01*
X168935000Y-91460000D01*
X169585000Y-91460000D01*
X169585000Y-91262172D01*
X169584999Y-91262155D01*
X169578598Y-91202627D01*
X169578596Y-91202620D01*
X169528354Y-91067913D01*
X169528350Y-91067906D01*
X169442190Y-90952812D01*
X169442187Y-90952809D01*
X169327093Y-90866649D01*
X169327086Y-90866645D01*
X169192379Y-90816403D01*
X169192372Y-90816401D01*
X169132844Y-90810000D01*
X168935000Y-90810000D01*
X168935000Y-91460000D01*
X168435000Y-91460000D01*
X168435000Y-90810000D01*
X168237155Y-90810000D01*
X168177627Y-90816401D01*
X168177617Y-90816403D01*
X168103332Y-90844110D01*
X168033641Y-90849094D01*
X168016668Y-90844110D01*
X167942382Y-90816403D01*
X167942372Y-90816401D01*
X167882844Y-90810000D01*
X167835000Y-90810000D01*
X167835000Y-91460000D01*
X167435000Y-91460000D01*
X167435000Y-90810000D01*
X167387155Y-90810000D01*
X167327627Y-90816401D01*
X167327617Y-90816403D01*
X167253332Y-90844110D01*
X167183641Y-90849094D01*
X167166668Y-90844110D01*
X167092382Y-90816403D01*
X167092372Y-90816401D01*
X167032844Y-90810000D01*
X166985000Y-90810000D01*
X166985000Y-91510000D01*
X166585000Y-91510000D01*
X166585000Y-90810000D01*
X166537155Y-90810000D01*
X166477627Y-90816401D01*
X166477617Y-90816403D01*
X166403332Y-90844110D01*
X166333641Y-90849094D01*
X166316668Y-90844110D01*
X166242382Y-90816403D01*
X166242372Y-90816401D01*
X166182844Y-90810000D01*
X166135000Y-90810000D01*
X166135000Y-91510000D01*
X165735000Y-91510000D01*
X165735000Y-90810000D01*
X165687155Y-90810000D01*
X165627627Y-90816401D01*
X165627620Y-90816403D01*
X165595801Y-90828271D01*
X165526109Y-90833255D01*
X165464786Y-90799770D01*
X165431302Y-90738447D01*
X165430851Y-90687897D01*
X165460500Y-90538844D01*
X165460500Y-90381155D01*
X165460499Y-90381153D01*
X165429737Y-90226503D01*
X165425066Y-90215226D01*
X165369397Y-90080827D01*
X165369390Y-90080814D01*
X165281399Y-89949126D01*
X165262533Y-89888874D01*
X165261562Y-89889002D01*
X165260828Y-89883429D01*
X165260521Y-89882448D01*
X165260507Y-89880996D01*
X165260501Y-89880945D01*
X165260501Y-89880943D01*
X165219577Y-89728216D01*
X165202743Y-89699058D01*
X165140524Y-89591290D01*
X165140518Y-89591282D01*
X164011247Y-88462011D01*
X161271415Y-85722180D01*
X161237931Y-85660858D01*
X161242915Y-85591166D01*
X161284787Y-85535233D01*
X161350251Y-85510816D01*
X161359097Y-85510500D01*
X164174477Y-85510500D01*
X164195722Y-85516738D01*
G37*
%TD.AperFunction*%
%TA.AperFunction,Conductor*%
G36*
X150065539Y-100059685D02*
G01*
X150111294Y-100112489D01*
X150122500Y-100164000D01*
X150122500Y-101690000D01*
X150884999Y-101690000D01*
X150884999Y-101440028D01*
X150884998Y-101440013D01*
X150874505Y-101337302D01*
X150819358Y-101170880D01*
X150819356Y-101170875D01*
X150747943Y-101055097D01*
X150729503Y-100987705D01*
X150747943Y-100924903D01*
X150819356Y-100809124D01*
X150819359Y-100809117D01*
X150859636Y-100687569D01*
X150899408Y-100630123D01*
X150963924Y-100603300D01*
X151032700Y-100615615D01*
X151065023Y-100638891D01*
X151166344Y-100740212D01*
X151315666Y-100832314D01*
X151482203Y-100887499D01*
X151584991Y-100898000D01*
X152585008Y-100897999D01*
X152585016Y-100897998D01*
X152585019Y-100897998D01*
X152641302Y-100892248D01*
X152687797Y-100887499D01*
X152696491Y-100884617D01*
X152766319Y-100882213D01*
X152826363Y-100917942D01*
X152857558Y-100980461D01*
X152859500Y-101002322D01*
X152859500Y-103093481D01*
X152839815Y-103160520D01*
X152823181Y-103181162D01*
X151231162Y-104773181D01*
X151204234Y-104787884D01*
X151178416Y-104804477D01*
X151172215Y-104805368D01*
X151169839Y-104806666D01*
X151143481Y-104809500D01*
X150914854Y-104809500D01*
X150847815Y-104789815D01*
X150802060Y-104737011D01*
X150792116Y-104667853D01*
X150809316Y-104620402D01*
X150819355Y-104604126D01*
X150819358Y-104604119D01*
X150874505Y-104437697D01*
X150874506Y-104437690D01*
X150884999Y-104334986D01*
X150885000Y-104334973D01*
X150885000Y-104085000D01*
X149996500Y-104085000D01*
X149929461Y-104065315D01*
X149883706Y-104012511D01*
X149872500Y-103961000D01*
X149872500Y-103835000D01*
X149746500Y-103835000D01*
X149679461Y-103815315D01*
X149633706Y-103762511D01*
X149622500Y-103711000D01*
X149622500Y-103585000D01*
X150122500Y-103585000D01*
X150884999Y-103585000D01*
X150884999Y-103335028D01*
X150884998Y-103335013D01*
X150874505Y-103232302D01*
X150819358Y-103065880D01*
X150819356Y-103065875D01*
X150749485Y-102952597D01*
X150731045Y-102885205D01*
X150749485Y-102822403D01*
X150819356Y-102709124D01*
X150819358Y-102709119D01*
X150874505Y-102542697D01*
X150874506Y-102542690D01*
X150884999Y-102439986D01*
X150885000Y-102439973D01*
X150885000Y-102190000D01*
X150122500Y-102190000D01*
X150122500Y-103585000D01*
X149622500Y-103585000D01*
X149622500Y-100164000D01*
X149642185Y-100096961D01*
X149694989Y-100051206D01*
X149746500Y-100040000D01*
X149998500Y-100040000D01*
X150065539Y-100059685D01*
G37*
%TD.AperFunction*%
%TA.AperFunction,Conductor*%
G36*
X147904821Y-93445171D02*
G01*
X147937971Y-93454578D01*
X147938361Y-93455020D01*
X147938923Y-93455185D01*
X147961386Y-93481109D01*
X147984205Y-93506964D01*
X147984294Y-93507545D01*
X147984678Y-93507989D01*
X147989572Y-93542027D01*
X147994777Y-93576029D01*
X147994567Y-93576767D01*
X147994622Y-93577147D01*
X147993835Y-93579348D01*
X147985143Y-93609982D01*
X147981996Y-93617041D01*
X147927248Y-93707607D01*
X147893833Y-93814838D01*
X147890872Y-93821482D01*
X147872758Y-93842774D01*
X147857261Y-93866038D01*
X147850429Y-93869022D01*
X147845599Y-93874701D01*
X147818849Y-93882820D01*
X147793235Y-93894012D01*
X147785875Y-93892829D01*
X147778742Y-93894995D01*
X147777613Y-93895000D01*
X147217500Y-93895000D01*
X147217500Y-98195000D01*
X147777613Y-98195000D01*
X147844652Y-98214685D01*
X147890407Y-98267489D01*
X147895998Y-98282110D01*
X147927246Y-98382390D01*
X147927248Y-98382394D01*
X148012510Y-98523436D01*
X148012513Y-98523440D01*
X148116892Y-98627819D01*
X148150377Y-98689142D01*
X148145393Y-98758834D01*
X148103521Y-98814767D01*
X148038057Y-98839184D01*
X148029211Y-98839500D01*
X147734999Y-98839500D01*
X147734980Y-98839501D01*
X147632203Y-98850000D01*
X147632200Y-98850001D01*
X147465668Y-98905185D01*
X147465663Y-98905187D01*
X147316342Y-98997289D01*
X147192289Y-99121342D01*
X147192288Y-99121344D01*
X147155739Y-99180598D01*
X147148457Y-99187147D01*
X147144448Y-99196083D01*
X147122910Y-99210125D01*
X147103793Y-99227321D01*
X147092565Y-99229911D01*
X147085921Y-99234244D01*
X147052424Y-99239172D01*
X147051020Y-99239497D01*
X147046477Y-99239526D01*
X147046342Y-99239500D01*
X146888658Y-99239500D01*
X146883105Y-99240604D01*
X146871346Y-99240682D01*
X146843004Y-99232562D01*
X146814030Y-99227066D01*
X146809628Y-99223001D01*
X146804178Y-99221440D01*
X146788060Y-99203085D01*
X146764989Y-99181781D01*
X146727712Y-99121344D01*
X146603656Y-98997288D01*
X146454334Y-98905186D01*
X146287797Y-98850001D01*
X146287795Y-98850000D01*
X146185016Y-98839500D01*
X145905788Y-98839500D01*
X145838749Y-98819815D01*
X145792994Y-98767011D01*
X145783050Y-98697853D01*
X145812075Y-98634297D01*
X145818080Y-98627846D01*
X145922486Y-98523441D01*
X146007752Y-98382393D01*
X146039002Y-98282110D01*
X146077739Y-98223962D01*
X146141765Y-98195988D01*
X146157387Y-98195000D01*
X146717500Y-98195000D01*
X146717500Y-93895000D01*
X146157387Y-93895000D01*
X146090348Y-93875315D01*
X146044593Y-93822511D01*
X146039002Y-93807890D01*
X146007753Y-93707609D01*
X146007751Y-93707605D01*
X145956999Y-93623649D01*
X145939163Y-93556094D01*
X145960681Y-93489621D01*
X146014722Y-93445333D01*
X146063116Y-93435500D01*
X147871884Y-93435500D01*
X147904821Y-93445171D01*
G37*
%TD.AperFunction*%
%TA.AperFunction,Conductor*%
G36*
X143005900Y-91112394D02*
G01*
X143061077Y-91155257D01*
X143084322Y-91221146D01*
X143084500Y-91227784D01*
X143084500Y-91535000D01*
X143084501Y-91535019D01*
X143095000Y-91637796D01*
X143095001Y-91637799D01*
X143150185Y-91804331D01*
X143150187Y-91804336D01*
X143154645Y-91811563D01*
X143242288Y-91953656D01*
X143366344Y-92077712D01*
X143515666Y-92169814D01*
X143682203Y-92224999D01*
X143784991Y-92235500D01*
X144114559Y-92235499D01*
X144181598Y-92255183D01*
X144202240Y-92271818D01*
X145028240Y-93097819D01*
X145061725Y-93159142D01*
X145056741Y-93228834D01*
X145014869Y-93284767D01*
X144949405Y-93309184D01*
X144940559Y-93309500D01*
X143767940Y-93309500D01*
X143700901Y-93289815D01*
X143680259Y-93273181D01*
X142393710Y-91986632D01*
X142360225Y-91925309D01*
X142362315Y-91864353D01*
X142370098Y-91837569D01*
X142373000Y-91800694D01*
X142373000Y-91369306D01*
X142370098Y-91332431D01*
X142350318Y-91264347D01*
X142350517Y-91194478D01*
X142388459Y-91135808D01*
X142452097Y-91106964D01*
X142493586Y-91108135D01*
X142631155Y-91135500D01*
X142631158Y-91135500D01*
X142788844Y-91135500D01*
X142936308Y-91106167D01*
X143005900Y-91112394D01*
G37*
%TD.AperFunction*%
%TD*%
%TA.AperFunction,Conductor*%
%TO.N,Bat-*%
G36*
X133178750Y-86899496D02*
G01*
X133199194Y-86975796D01*
X133238690Y-87044205D01*
X133294545Y-87100060D01*
X133362954Y-87139556D01*
X133439254Y-87160000D01*
X133518246Y-87160000D01*
X133594546Y-87139556D01*
X133662955Y-87100060D01*
X133712208Y-87050806D01*
X133696954Y-95623875D01*
X133677150Y-95690879D01*
X133624265Y-95736540D01*
X133555089Y-95746360D01*
X133533951Y-95741360D01*
X133394049Y-95695001D01*
X133394045Y-95695000D01*
X133291260Y-95684500D01*
X132691248Y-95684500D01*
X132691230Y-95684501D01*
X132588453Y-95695000D01*
X132588450Y-95695001D01*
X132421918Y-95750185D01*
X132421913Y-95750187D01*
X132272592Y-95842289D01*
X132148539Y-95966342D01*
X132056437Y-96115663D01*
X132056436Y-96115666D01*
X132001251Y-96282203D01*
X132001251Y-96282204D01*
X132001250Y-96282204D01*
X131990750Y-96384983D01*
X131990750Y-96384996D01*
X131990751Y-98485500D01*
X131971066Y-98552539D01*
X131918263Y-98598294D01*
X131866751Y-98609500D01*
X126665750Y-98609500D01*
X126598711Y-98589815D01*
X126552956Y-98537011D01*
X126541750Y-98485500D01*
X126541749Y-96384998D01*
X126541748Y-96384981D01*
X126531249Y-96282203D01*
X126531248Y-96282200D01*
X126476064Y-96115666D01*
X126383962Y-95966344D01*
X126259906Y-95842288D01*
X126110584Y-95750186D01*
X125944047Y-95695001D01*
X125944045Y-95695000D01*
X125841260Y-95684500D01*
X125241248Y-95684500D01*
X125241230Y-95684501D01*
X125138453Y-95695000D01*
X125138450Y-95695001D01*
X125067256Y-95718593D01*
X124997427Y-95720995D01*
X124937386Y-95685263D01*
X124906193Y-95622743D01*
X124904252Y-95600887D01*
X124904252Y-93155632D01*
X124923937Y-93088593D01*
X124976741Y-93042838D01*
X125045899Y-93032894D01*
X125093349Y-93050093D01*
X125097592Y-93052710D01*
X125097594Y-93052712D01*
X125246916Y-93144814D01*
X125413453Y-93199999D01*
X125516241Y-93210500D01*
X126366258Y-93210499D01*
X126454150Y-93201520D01*
X126522840Y-93214289D01*
X126573725Y-93262170D01*
X126590750Y-93324878D01*
X126590750Y-95100701D01*
X126593651Y-95137567D01*
X126593652Y-95137573D01*
X126639504Y-95295393D01*
X126639505Y-95295396D01*
X126723167Y-95436862D01*
X126723173Y-95436870D01*
X126839379Y-95553076D01*
X126839383Y-95553079D01*
X126839385Y-95553081D01*
X126980852Y-95636744D01*
X127022474Y-95648836D01*
X127138676Y-95682597D01*
X127138679Y-95682597D01*
X127138681Y-95682598D01*
X127175556Y-95685500D01*
X127175564Y-95685500D01*
X127606936Y-95685500D01*
X127606944Y-95685500D01*
X127643819Y-95682598D01*
X127643821Y-95682597D01*
X127643823Y-95682597D01*
X127685441Y-95670505D01*
X127801648Y-95636744D01*
X127926298Y-95563026D01*
X127949830Y-95549110D01*
X127950997Y-95551083D01*
X128005285Y-95529769D01*
X128073803Y-95543448D01*
X128082654Y-95549136D01*
X128082670Y-95549110D01*
X128123284Y-95573128D01*
X128230852Y-95636744D01*
X128272474Y-95648836D01*
X128388676Y-95682597D01*
X128388679Y-95682597D01*
X128388681Y-95682598D01*
X128425556Y-95685500D01*
X128425564Y-95685500D01*
X128856936Y-95685500D01*
X128856944Y-95685500D01*
X128893819Y-95682598D01*
X128893821Y-95682597D01*
X128893823Y-95682597D01*
X128935441Y-95670505D01*
X129051648Y-95636744D01*
X129176298Y-95563026D01*
X129199830Y-95549110D01*
X129200997Y-95551083D01*
X129255285Y-95529769D01*
X129323803Y-95543448D01*
X129332654Y-95549136D01*
X129332670Y-95549110D01*
X129373284Y-95573128D01*
X129480852Y-95636744D01*
X129522474Y-95648836D01*
X129638676Y-95682597D01*
X129638679Y-95682597D01*
X129638681Y-95682598D01*
X129675556Y-95685500D01*
X129675564Y-95685500D01*
X130106936Y-95685500D01*
X130106944Y-95685500D01*
X130143819Y-95682598D01*
X130143821Y-95682597D01*
X130143823Y-95682597D01*
X130185441Y-95670505D01*
X130301648Y-95636744D01*
X130426298Y-95563026D01*
X130449830Y-95549110D01*
X130450923Y-95550959D01*
X130505675Y-95529452D01*
X130574195Y-95543120D01*
X130582956Y-95548749D01*
X130582979Y-95548712D01*
X130731051Y-95636281D01*
X130888764Y-95682100D01*
X130888761Y-95682100D01*
X130891248Y-95682295D01*
X130891250Y-95682295D01*
X131391250Y-95682295D01*
X131391251Y-95682295D01*
X131393736Y-95682100D01*
X131551448Y-95636281D01*
X131692802Y-95552685D01*
X131692811Y-95552678D01*
X131808928Y-95436561D01*
X131808935Y-95436552D01*
X131892532Y-95295196D01*
X131892533Y-95295193D01*
X131938349Y-95137495D01*
X131938350Y-95137489D01*
X131941249Y-95100649D01*
X131941250Y-95100634D01*
X131941250Y-94585000D01*
X131391250Y-94585000D01*
X131391250Y-95682295D01*
X130891250Y-95682295D01*
X130891250Y-94085000D01*
X131391250Y-94085000D01*
X131941250Y-94085000D01*
X131941250Y-93569365D01*
X131941249Y-93569350D01*
X131938350Y-93532510D01*
X131938349Y-93532504D01*
X131892533Y-93374806D01*
X131892532Y-93374803D01*
X131808935Y-93233447D01*
X131808928Y-93233438D01*
X131692811Y-93117321D01*
X131692802Y-93117314D01*
X131551446Y-93033717D01*
X131551443Y-93033716D01*
X131393744Y-92987900D01*
X131393747Y-92987900D01*
X131391250Y-92987703D01*
X131391250Y-94085000D01*
X130891250Y-94085000D01*
X130891250Y-93002967D01*
X130834806Y-92968449D01*
X130813607Y-92945060D01*
X130791117Y-92922905D01*
X130790151Y-92919182D01*
X130787884Y-92916680D01*
X130784969Y-92899192D01*
X130775500Y-92862663D01*
X130775500Y-90870312D01*
X130775501Y-90870299D01*
X130775501Y-90702196D01*
X130767361Y-90671817D01*
X130742377Y-90578577D01*
X130744040Y-90508729D01*
X130783202Y-90450867D01*
X130847430Y-90423362D01*
X130916332Y-90434948D01*
X130931043Y-90443383D01*
X131043223Y-90518340D01*
X131043236Y-90518347D01*
X131229766Y-90595609D01*
X131229775Y-90595612D01*
X131278750Y-90605353D01*
X131278750Y-89819618D01*
X131329196Y-89870064D01*
X131403305Y-89912851D01*
X131485963Y-89935000D01*
X131571537Y-89935000D01*
X131654195Y-89912851D01*
X131728304Y-89870064D01*
X131778750Y-89819618D01*
X131778750Y-90605352D01*
X131827724Y-90595612D01*
X131827733Y-90595609D01*
X132014263Y-90518347D01*
X132014276Y-90518340D01*
X132182149Y-90406170D01*
X132182153Y-90406167D01*
X132324917Y-90263403D01*
X132324920Y-90263399D01*
X132437090Y-90095526D01*
X132437097Y-90095513D01*
X132514359Y-89908983D01*
X132514362Y-89908974D01*
X132543994Y-89760000D01*
X131817424Y-89760000D01*
X131831601Y-89735445D01*
X131853750Y-89652787D01*
X131853750Y-89367213D01*
X131831601Y-89284555D01*
X131817424Y-89260000D01*
X132543994Y-89260000D01*
X132514362Y-89111025D01*
X132514359Y-89111016D01*
X132437097Y-88924486D01*
X132437090Y-88924473D01*
X132324920Y-88756600D01*
X132324917Y-88756596D01*
X132182153Y-88613832D01*
X132182149Y-88613829D01*
X132014276Y-88501659D01*
X132014263Y-88501652D01*
X131827734Y-88424390D01*
X131827727Y-88424388D01*
X131778750Y-88414645D01*
X131778750Y-89200382D01*
X131728304Y-89149936D01*
X131654195Y-89107149D01*
X131571537Y-89085000D01*
X131485963Y-89085000D01*
X131403305Y-89107149D01*
X131329196Y-89149936D01*
X131278750Y-89200382D01*
X131278750Y-88407157D01*
X131257039Y-88377885D01*
X131227848Y-88307411D01*
X131131674Y-88182075D01*
X131006337Y-88085900D01*
X130934832Y-88056282D01*
X130880429Y-88012441D01*
X130858364Y-87946147D01*
X130875643Y-87878448D01*
X130917189Y-87836182D01*
X130972093Y-87802317D01*
X131096067Y-87678343D01*
X131179639Y-87542851D01*
X131231587Y-87496126D01*
X131300549Y-87484903D01*
X131332629Y-87493385D01*
X131408792Y-87524933D01*
X131408796Y-87524933D01*
X131408797Y-87524934D01*
X131587593Y-87560500D01*
X131587596Y-87560500D01*
X131769906Y-87560500D01*
X131890195Y-87536572D01*
X131948708Y-87524933D01*
X131956108Y-87521868D01*
X132025577Y-87514398D01*
X132088057Y-87545672D01*
X132119744Y-87593095D01*
X132160395Y-87702086D01*
X132160399Y-87702093D01*
X132246559Y-87817187D01*
X132246562Y-87817190D01*
X132361656Y-87903350D01*
X132361663Y-87903354D01*
X132496370Y-87953596D01*
X132496377Y-87953598D01*
X132555905Y-87959999D01*
X132555922Y-87960000D01*
X132791250Y-87960000D01*
X132791250Y-86634000D01*
X132810935Y-86566961D01*
X132863739Y-86521206D01*
X132915250Y-86510000D01*
X133178750Y-86510000D01*
X133178750Y-86899496D01*
G37*
%TD.AperFunction*%
%TA.AperFunction,Conductor*%
G36*
X125759289Y-86529685D02*
G01*
X125805044Y-86582489D01*
X125816250Y-86634000D01*
X125816250Y-87960000D01*
X126051578Y-87960000D01*
X126051594Y-87959999D01*
X126111122Y-87953598D01*
X126111129Y-87953596D01*
X126245836Y-87903354D01*
X126245843Y-87903350D01*
X126360937Y-87817190D01*
X126360940Y-87817187D01*
X126447100Y-87702093D01*
X126447104Y-87702086D01*
X126487755Y-87593095D01*
X126529626Y-87537162D01*
X126595090Y-87512744D01*
X126651387Y-87521865D01*
X126658792Y-87524933D01*
X126658796Y-87524933D01*
X126658797Y-87524934D01*
X126837593Y-87560500D01*
X126837596Y-87560500D01*
X127019906Y-87560500D01*
X127140195Y-87536572D01*
X127198708Y-87524933D01*
X127274870Y-87493385D01*
X127344337Y-87485917D01*
X127406817Y-87517192D01*
X127427860Y-87542850D01*
X127511434Y-87678345D01*
X127635406Y-87802317D01*
X127689785Y-87835858D01*
X127736510Y-87887806D01*
X127747733Y-87956768D01*
X127719890Y-88020850D01*
X127672142Y-88055958D01*
X127600910Y-88085463D01*
X127475466Y-88181719D01*
X127379214Y-88307158D01*
X127379213Y-88307159D01*
X127373375Y-88321254D01*
X127329532Y-88375656D01*
X127263237Y-88397718D01*
X127234625Y-88395414D01*
X127179757Y-88384500D01*
X127179753Y-88384500D01*
X126977747Y-88384500D01*
X126977742Y-88384500D01*
X126779630Y-88423907D01*
X126779622Y-88423909D01*
X126592997Y-88501212D01*
X126592987Y-88501217D01*
X126425031Y-88613441D01*
X126282191Y-88756281D01*
X126169967Y-88924237D01*
X126169962Y-88924247D01*
X126092659Y-89110872D01*
X126092657Y-89110880D01*
X126053250Y-89308992D01*
X126053250Y-89352060D01*
X126033565Y-89419099D01*
X126016931Y-89439741D01*
X125430961Y-90025711D01*
X125393831Y-90062841D01*
X125319459Y-90137212D01*
X125231859Y-90268314D01*
X125231852Y-90268327D01*
X125171514Y-90413998D01*
X125171511Y-90414008D01*
X125149869Y-90522811D01*
X125117484Y-90584722D01*
X125056768Y-90619296D01*
X124986999Y-90615556D01*
X124930327Y-90574689D01*
X124904745Y-90509671D01*
X124904252Y-90498619D01*
X124904252Y-87059767D01*
X124944545Y-87100060D01*
X125012954Y-87139556D01*
X125089254Y-87160000D01*
X125168246Y-87160000D01*
X125244546Y-87139556D01*
X125312955Y-87100060D01*
X125368810Y-87044205D01*
X125408306Y-86975796D01*
X125428750Y-86899496D01*
X125428750Y-86510000D01*
X125692250Y-86510000D01*
X125759289Y-86529685D01*
G37*
%TD.AperFunction*%
%TD*%
%TA.AperFunction,Conductor*%
%TO.N,Bat-*%
G36*
X125756910Y-106030185D02*
G01*
X125802665Y-106082989D01*
X125812609Y-106152147D01*
X125807802Y-106172818D01*
X125789547Y-106228998D01*
X125760000Y-106415552D01*
X125760000Y-106604447D01*
X125789548Y-106791002D01*
X125847914Y-106970637D01*
X125933666Y-107138933D01*
X125952116Y-107164328D01*
X126517861Y-106598582D01*
X126540667Y-106683694D01*
X126599910Y-106786306D01*
X126683694Y-106870090D01*
X126786306Y-106929333D01*
X126871415Y-106952138D01*
X126305669Y-107517882D01*
X126305670Y-107517883D01*
X126331059Y-107536329D01*
X126499362Y-107622085D01*
X126678997Y-107680451D01*
X126865553Y-107710000D01*
X127054447Y-107710000D01*
X127241002Y-107680451D01*
X127420637Y-107622085D01*
X127588937Y-107536331D01*
X127614328Y-107517883D01*
X127614328Y-107517882D01*
X127048584Y-106952138D01*
X127133694Y-106929333D01*
X127236306Y-106870090D01*
X127320090Y-106786306D01*
X127379333Y-106683694D01*
X127402138Y-106598584D01*
X127967882Y-107164328D01*
X127967883Y-107164328D01*
X127986331Y-107138937D01*
X128072083Y-106970641D01*
X128091805Y-106909942D01*
X128131242Y-106852267D01*
X128195600Y-106825067D01*
X128264447Y-106836981D01*
X128315923Y-106884224D01*
X128327668Y-106909940D01*
X128347454Y-106970836D01*
X128433104Y-107138933D01*
X128433240Y-107139199D01*
X128544310Y-107292073D01*
X128544312Y-107292075D01*
X128623181Y-107370944D01*
X128656666Y-107432267D01*
X128659500Y-107458625D01*
X128659500Y-108861375D01*
X128639815Y-108928414D01*
X128623181Y-108949056D01*
X128544312Y-109027924D01*
X128544312Y-109027925D01*
X128544310Y-109027927D01*
X128496610Y-109093579D01*
X128433240Y-109180800D01*
X128347452Y-109349167D01*
X128327667Y-109410060D01*
X128288229Y-109467735D01*
X128223870Y-109494932D01*
X128155024Y-109483017D01*
X128103549Y-109435772D01*
X128091806Y-109410057D01*
X128072086Y-109349364D01*
X127986329Y-109181059D01*
X127967883Y-109155670D01*
X127967882Y-109155669D01*
X127402137Y-109721414D01*
X127379333Y-109636306D01*
X127320090Y-109533694D01*
X127236306Y-109449910D01*
X127133694Y-109390667D01*
X127048584Y-109367861D01*
X127614328Y-108802116D01*
X127588933Y-108783666D01*
X127420637Y-108697914D01*
X127241002Y-108639548D01*
X127054447Y-108610000D01*
X126865553Y-108610000D01*
X126678997Y-108639548D01*
X126499362Y-108697914D01*
X126331060Y-108783669D01*
X126305670Y-108802116D01*
X126305669Y-108802116D01*
X126871415Y-109367861D01*
X126786306Y-109390667D01*
X126683694Y-109449910D01*
X126599910Y-109533694D01*
X126540667Y-109636306D01*
X126517861Y-109721414D01*
X125952116Y-109155669D01*
X125952116Y-109155670D01*
X125933669Y-109181060D01*
X125847914Y-109349362D01*
X125789548Y-109528997D01*
X125760000Y-109715552D01*
X125760000Y-109904447D01*
X125789548Y-110091002D01*
X125847914Y-110270637D01*
X125933666Y-110438933D01*
X125952116Y-110464328D01*
X126517861Y-109898584D01*
X126540667Y-109983694D01*
X126599910Y-110086306D01*
X126683694Y-110170090D01*
X126786306Y-110229333D01*
X126871415Y-110252138D01*
X126305669Y-110817882D01*
X126305670Y-110817883D01*
X126331059Y-110836329D01*
X126499362Y-110922085D01*
X126678997Y-110980451D01*
X126865553Y-111010000D01*
X127054447Y-111010000D01*
X127241002Y-110980451D01*
X127420637Y-110922085D01*
X127588937Y-110836331D01*
X127614328Y-110817883D01*
X127614328Y-110817882D01*
X127048584Y-110252138D01*
X127133694Y-110229333D01*
X127236306Y-110170090D01*
X127320090Y-110086306D01*
X127379333Y-109983694D01*
X127402138Y-109898584D01*
X127967882Y-110464328D01*
X127967883Y-110464328D01*
X127986331Y-110438937D01*
X128072083Y-110270641D01*
X128091805Y-110209942D01*
X128131242Y-110152267D01*
X128195600Y-110125067D01*
X128264447Y-110136981D01*
X128315923Y-110184224D01*
X128327668Y-110209940D01*
X128347454Y-110270836D01*
X128433104Y-110438933D01*
X128433240Y-110439199D01*
X128544310Y-110592073D01*
X128544312Y-110592075D01*
X128623181Y-110670944D01*
X128656666Y-110732267D01*
X128659500Y-110758625D01*
X128659500Y-111386680D01*
X128639815Y-111453719D01*
X128587011Y-111499474D01*
X128517853Y-111509418D01*
X128516102Y-111509153D01*
X128460001Y-111500267D01*
X128460000Y-111500268D01*
X128460000Y-112544488D01*
X128402993Y-112511575D01*
X128275826Y-112477500D01*
X128144174Y-112477500D01*
X128017007Y-112511575D01*
X127960000Y-112544488D01*
X127960000Y-111500268D01*
X127959999Y-111500268D01*
X127893875Y-111510741D01*
X127691784Y-111576403D01*
X127502442Y-111672879D01*
X127330540Y-111797772D01*
X127330535Y-111797776D01*
X127180276Y-111948035D01*
X127180272Y-111948040D01*
X127055379Y-112119942D01*
X126958904Y-112309282D01*
X126893242Y-112511369D01*
X126893242Y-112511372D01*
X126860000Y-112721253D01*
X126860000Y-112727500D01*
X127776988Y-112727500D01*
X127744075Y-112784507D01*
X127710000Y-112911674D01*
X127710000Y-113043326D01*
X127744075Y-113170493D01*
X127776988Y-113227500D01*
X126860000Y-113227500D01*
X126860000Y-113233746D01*
X126893242Y-113443627D01*
X126893242Y-113443630D01*
X126958904Y-113645717D01*
X127055379Y-113835057D01*
X127180272Y-114006959D01*
X127180276Y-114006964D01*
X127330535Y-114157223D01*
X127330540Y-114157227D01*
X127502442Y-114282120D01*
X127691782Y-114378595D01*
X127893871Y-114444257D01*
X127960000Y-114454731D01*
X127960000Y-113410512D01*
X128017007Y-113443425D01*
X128144174Y-113477500D01*
X128275826Y-113477500D01*
X128402993Y-113443425D01*
X128460000Y-113410512D01*
X128460000Y-114454730D01*
X128526126Y-114444257D01*
X128526129Y-114444257D01*
X128728217Y-114378595D01*
X128917557Y-114282120D01*
X129089458Y-114157228D01*
X129228330Y-114018356D01*
X129289653Y-113984871D01*
X129359345Y-113989855D01*
X129415279Y-114031726D01*
X129421551Y-114040940D01*
X129425185Y-114046831D01*
X129425186Y-114046834D01*
X129517288Y-114196156D01*
X129641344Y-114320212D01*
X129790666Y-114412314D01*
X129957203Y-114467499D01*
X130059991Y-114478000D01*
X131360008Y-114477999D01*
X131462797Y-114467499D01*
X131629334Y-114412314D01*
X131778656Y-114320212D01*
X131902712Y-114196156D01*
X131994814Y-114046834D01*
X132049999Y-113880297D01*
X132060500Y-113777509D01*
X132060499Y-112177492D01*
X132049999Y-112074703D01*
X131994814Y-111908166D01*
X131902712Y-111758844D01*
X131778656Y-111634788D01*
X131629334Y-111542686D01*
X131462797Y-111487501D01*
X131462795Y-111487500D01*
X131360016Y-111477000D01*
X131360009Y-111477000D01*
X130392940Y-111477000D01*
X130363499Y-111468355D01*
X130333513Y-111461832D01*
X130328497Y-111458077D01*
X130325901Y-111457315D01*
X130305259Y-111440681D01*
X130296819Y-111432241D01*
X130263334Y-111370918D01*
X130260500Y-111344560D01*
X130260500Y-110758625D01*
X130280185Y-110691586D01*
X130296819Y-110670944D01*
X130375690Y-110592073D01*
X130486760Y-110439199D01*
X130533873Y-110346733D01*
X130581846Y-110295939D01*
X130649666Y-110279143D01*
X130715802Y-110301680D01*
X130759254Y-110356394D01*
X130767715Y-110390424D01*
X130770001Y-110412798D01*
X130770001Y-110412799D01*
X130825185Y-110579331D01*
X130825187Y-110579336D01*
X130860069Y-110635888D01*
X130917288Y-110728656D01*
X131041344Y-110852712D01*
X131190666Y-110944814D01*
X131357203Y-110999999D01*
X131459991Y-111010500D01*
X132460008Y-111010499D01*
X132460016Y-111010498D01*
X132460019Y-111010498D01*
X132516302Y-111004748D01*
X132562797Y-110999999D01*
X132729334Y-110944814D01*
X132878656Y-110852712D01*
X133002712Y-110728656D01*
X133094814Y-110579334D01*
X133149999Y-110412797D01*
X133160500Y-110310009D01*
X133160499Y-109309992D01*
X133149999Y-109207203D01*
X133094814Y-109040666D01*
X133002712Y-108891344D01*
X132878656Y-108767288D01*
X132729334Y-108675186D01*
X132562797Y-108620001D01*
X132562795Y-108620000D01*
X132460010Y-108609500D01*
X131459998Y-108609500D01*
X131459980Y-108609501D01*
X131357203Y-108620000D01*
X131357200Y-108620001D01*
X131190668Y-108675185D01*
X131190663Y-108675187D01*
X131041342Y-108767289D01*
X130917289Y-108891342D01*
X130825187Y-109040663D01*
X130825186Y-109040666D01*
X130770001Y-109207203D01*
X130770001Y-109207204D01*
X130770000Y-109207204D01*
X130767715Y-109229575D01*
X130741317Y-109294266D01*
X130684135Y-109334416D01*
X130614324Y-109337278D01*
X130554048Y-109301943D01*
X130533872Y-109273264D01*
X130486761Y-109180802D01*
X130468500Y-109155669D01*
X130375690Y-109027927D01*
X130296819Y-108949056D01*
X130263334Y-108887733D01*
X130260500Y-108861375D01*
X130260500Y-107458625D01*
X130280185Y-107391586D01*
X130296819Y-107370944D01*
X130375690Y-107292073D01*
X130486760Y-107139199D01*
X130572547Y-106970832D01*
X130592069Y-106910748D01*
X130631507Y-106853073D01*
X130695865Y-106825875D01*
X130764712Y-106837790D01*
X130816187Y-106885034D01*
X130827930Y-106910746D01*
X130847453Y-106970832D01*
X130933240Y-107139199D01*
X131044310Y-107292073D01*
X131177927Y-107425690D01*
X131330801Y-107536760D01*
X131410347Y-107577290D01*
X131499163Y-107622545D01*
X131499165Y-107622545D01*
X131499168Y-107622547D01*
X131595497Y-107653846D01*
X131678881Y-107680940D01*
X131865514Y-107710500D01*
X131865519Y-107710500D01*
X132054486Y-107710500D01*
X132241118Y-107680940D01*
X132242623Y-107680451D01*
X132420832Y-107622547D01*
X132589199Y-107536760D01*
X132742073Y-107425690D01*
X132875690Y-107292073D01*
X132986760Y-107139199D01*
X133072547Y-106970832D01*
X133130940Y-106791118D01*
X133131702Y-106786306D01*
X133160500Y-106604486D01*
X133160500Y-106415513D01*
X133130940Y-106228881D01*
X133112724Y-106172819D01*
X133110729Y-106102978D01*
X133146809Y-106043145D01*
X133209510Y-106012316D01*
X133230655Y-106010500D01*
X133635500Y-106010500D01*
X133702539Y-106030185D01*
X133748294Y-106082989D01*
X133759500Y-106134500D01*
X133759500Y-119285500D01*
X133739815Y-119352539D01*
X133687011Y-119398294D01*
X133635500Y-119409500D01*
X125284500Y-119409500D01*
X125217461Y-119389815D01*
X125171706Y-119337011D01*
X125160500Y-119285500D01*
X125160500Y-106134500D01*
X125180185Y-106067461D01*
X125232989Y-106021706D01*
X125284500Y-106010500D01*
X125689871Y-106010500D01*
X125756910Y-106030185D01*
G37*
%TD.AperFunction*%
%TD*%
M02*
