%TF.GenerationSoftware,KiCad,Pcbnew,9.0.0*%
%TF.CreationDate,2025-05-13T09:42:49-05:00*%
%TF.ProjectId,Refraction Cell Circuit,52656672-6163-4746-996f-6e2043656c6c,rev?*%
%TF.SameCoordinates,Original*%
%TF.FileFunction,Profile,NP*%
%FSLAX46Y46*%
G04 Gerber Fmt 4.6, Leading zero omitted, Abs format (unit mm)*
G04 Created by KiCad (PCBNEW 9.0.0) date 2025-05-13 09:42:49*
%MOMM*%
%LPD*%
G01*
G04 APERTURE LIST*
%TA.AperFunction,Profile*%
%ADD10C,0.050000*%
%TD*%
%TA.AperFunction,Profile*%
%ADD11C,0.100000*%
%TD*%
G04 APERTURE END LIST*
D10*
X124403752Y-99110000D02*
X124403752Y-86385000D01*
X134260000Y-119910000D02*
X134260000Y-105510000D01*
X124403752Y-85060000D02*
X124403752Y-86385000D01*
X135785000Y-85010000D02*
X170785000Y-85010000D01*
X133053750Y-85060000D02*
X134216252Y-85060000D01*
X170785000Y-120010000D02*
X135785000Y-120010000D01*
X134191252Y-99110000D02*
X124403752Y-99110000D01*
X134260000Y-105510000D02*
X124660000Y-105510000D01*
X125553750Y-85060000D02*
X124403752Y-85060000D01*
X135785000Y-85010000D02*
X135785000Y-120010000D01*
X124660000Y-119910000D02*
X124660000Y-105510000D01*
X134216252Y-85060000D02*
X134191252Y-99110000D01*
X134260000Y-119910000D02*
X124660000Y-119910000D01*
X170785000Y-85010000D02*
X170785000Y-120010000D01*
D11*
%TO.C,REF\u002A\u002A*%
X126503750Y-85060000D02*
X125553750Y-85060000D01*
X126503750Y-86635000D02*
X126503750Y-85060000D01*
X127353750Y-86635000D02*
X127353750Y-85060000D01*
X131253750Y-85060000D02*
X127353750Y-85060000D01*
X131253750Y-86635000D02*
X131253750Y-85060000D01*
X132103750Y-86635000D02*
X132103750Y-85060000D01*
X133053750Y-85060000D02*
X132103750Y-85060000D01*
X127353750Y-86635000D02*
G75*
G02*
X126503750Y-86635000I-425000J0D01*
G01*
X132103750Y-86635000D02*
G75*
G02*
X131253750Y-86635000I-425000J0D01*
G01*
%TD*%
M02*
