M48
; DRILL file {KiCad 9.0.0} date 2025-05-13T10:19:25-0500
; FORMAT={-:-/ absolute / metric / decimal}
; #@! TF.CreationDate,2025-05-13T10:19:25-05:00
; #@! TF.GenerationSoftware,Kicad,Pcbnew,9.0.0
; #@! TF.FileFunction,Plated,1,2,PTH
FMAT,2
METRIC
; #@! TA.AperFunction,Plated,PTH,ViaDrill
T1C0.300
; #@! TA.AperFunction,Plated,PTH,ComponentDrill
T2C0.600
; #@! TA.AperFunction,Plated,PTH,ComponentDrill
T3C0.650
; #@! TA.AperFunction,Plated,PTH,ViaDrill
T4C0.800
; #@! TA.AperFunction,Plated,PTH,ComponentDrill
T5C0.900
; #@! TA.AperFunction,Plated,PTH,ComponentDrill
T6C0.950
; #@! TA.AperFunction,Plated,PTH,ComponentDrill
T7C1.000
%
G90
G05
T1
X140.96Y-96.81
X141.435Y-117.172
X142.69Y-89.085
X142.71Y-90.335
X143.385Y-117.172
X143.76Y-112.01
X144.385Y-105.585
X144.785Y-86.335
X145.735Y-92.635
X146.435Y-107.385
X146.968Y-100.04
X146.968Y-101.94
X146.968Y-103.835
X150.035Y-98.84
X150.947Y-89.71
X150.96Y-87.835
X151.51Y-95.485
X152.485Y-93.385
X152.71Y-96.235
X152.71Y-105.435
X155.06Y-111.96
X155.86Y-89.335
X156.03Y-101.21
X156.035Y-98.71
X156.035Y-99.56
X156.035Y-100.41
X156.36Y-107.81
X156.885Y-115.735
X157.16Y-107.81
X157.96Y-107.81
X158.01Y-114.085
X158.76Y-107.81
X160.785Y-94.46
X161.685Y-104.33
X162.54Y-104.33
X162.61Y-94.46
X164.66Y-90.46
X164.66Y-103.885
X167.39Y-98.71
X167.535Y-102.11
X167.535Y-102.96
X167.535Y-103.81
X169.96Y-95.335
T4
X156.835Y-117.86
X158.835Y-117.86
X160.935Y-117.86
T5
X126.96Y-106.51
X126.96Y-109.81
X129.46Y-106.51
X129.46Y-109.81
X131.96Y-106.51
X131.96Y-109.81
X164.01Y-115.26
X168.01Y-115.26
T6
X154.235Y-87.035
X156.735Y-87.035
X159.235Y-87.035
T7
X128.21Y-112.977
X130.71Y-112.977
X137.835Y-97.51
X137.835Y-100.01
X165.36Y-87.035
X167.86Y-87.035
T2
G00X125.129Y-86.86
M15
G01X125.129Y-86.16
M16
G05
G00X133.479Y-86.86
M15
G01X133.479Y-86.16
M16
G05
T3
G00X127.079Y-89.61
M15
G01X127.079Y-89.41
M16
G05
G00X131.529Y-89.61
M15
G01X131.529Y-89.41
M16
G05
M30
