%TF.GenerationSoftware,KiCad,Pcbnew,9.0.0*%
%TF.CreationDate,2025-05-13T10:19:14-05:00*%
%TF.ProjectId,Refraction Cell Circuit,52656672-6163-4746-996f-6e2043656c6c,rev?*%
%TF.SameCoordinates,Original*%
%TF.FileFunction,Legend,Bot*%
%TF.FilePolarity,Positive*%
%FSLAX46Y46*%
G04 Gerber Fmt 4.6, Leading zero omitted, Abs format (unit mm)*
G04 Created by KiCad (PCBNEW 9.0.0) date 2025-05-13 10:19:15*
%MOMM*%
%LPD*%
G01*
G04 APERTURE LIST*
%ADD10C,0.000000*%
G04 APERTURE END LIST*
D10*
%TO.C,G\u002A\u002A\u002A*%
G36*
X143315000Y-114073520D02*
G01*
X143305000Y-114083528D01*
X143295000Y-114073520D01*
X143305000Y-114063512D01*
X143315000Y-114073520D01*
G37*
G36*
X150355000Y-94177854D02*
G01*
X150345000Y-94187862D01*
X150335000Y-94177854D01*
X150345000Y-94167846D01*
X150355000Y-94177854D01*
G37*
G36*
X159835000Y-89614261D02*
G01*
X159825000Y-89624268D01*
X159815000Y-89614261D01*
X159825000Y-89604253D01*
X159835000Y-89614261D01*
G37*
G36*
X160355000Y-95618989D02*
G01*
X160345000Y-95628997D01*
X160335000Y-95618989D01*
X160345000Y-95608981D01*
X160355000Y-95618989D01*
G37*
G36*
X160375000Y-95659020D02*
G01*
X160365000Y-95669028D01*
X160355000Y-95659020D01*
X160365000Y-95649012D01*
X160375000Y-95659020D01*
G37*
G36*
X161055000Y-90494954D02*
G01*
X161045000Y-90504962D01*
X161035000Y-90494954D01*
X161045000Y-90484946D01*
X161055000Y-90494954D01*
G37*
G36*
X161195000Y-90294796D02*
G01*
X161185000Y-90304804D01*
X161175000Y-90294796D01*
X161185000Y-90284789D01*
X161195000Y-90294796D01*
G37*
G36*
X161215000Y-89874465D02*
G01*
X161205000Y-89884473D01*
X161195000Y-89874465D01*
X161205000Y-89864458D01*
X161215000Y-89874465D01*
G37*
G36*
X161275000Y-90094639D02*
G01*
X161265000Y-90104647D01*
X161255000Y-90094639D01*
X161265000Y-90084631D01*
X161275000Y-90094639D01*
G37*
G36*
X139273422Y-106565942D02*
G01*
X139272007Y-106586243D01*
X139262917Y-106592212D01*
X139258954Y-106585131D01*
X139261338Y-106553849D01*
X139268537Y-106544584D01*
X139273422Y-106565942D01*
G37*
G36*
X155675000Y-89644284D02*
G01*
X155673557Y-89654880D01*
X155661667Y-89657628D01*
X155659274Y-89654694D01*
X155661667Y-89630940D01*
X155667683Y-89627809D01*
X155675000Y-89644284D01*
G37*
G36*
X157608334Y-90271445D02*
G01*
X157611463Y-90277465D01*
X157595000Y-90284789D01*
X157584413Y-90283344D01*
X157581667Y-90271445D01*
X157584599Y-90269049D01*
X157608334Y-90271445D01*
G37*
G36*
X158115000Y-95088571D02*
G01*
X158113557Y-95099167D01*
X158101667Y-95101915D01*
X158099274Y-95098981D01*
X158101667Y-95075227D01*
X158107683Y-95072096D01*
X158115000Y-95088571D01*
G37*
G36*
X160235000Y-89804410D02*
G01*
X160233557Y-89815007D01*
X160221667Y-89817754D01*
X160219274Y-89814820D01*
X160221667Y-89791066D01*
X160227683Y-89787935D01*
X160235000Y-89804410D01*
G37*
G36*
X160341711Y-102153771D02*
G01*
X160465305Y-102173364D01*
X160571747Y-102192572D01*
X160740312Y-102227396D01*
X160874754Y-102262746D01*
X160978852Y-102300437D01*
X161056379Y-102342287D01*
X161111113Y-102390110D01*
X161146830Y-102445723D01*
X161167306Y-102510942D01*
X161169295Y-102522907D01*
X161163838Y-102610387D01*
X161129164Y-102693831D01*
X161071571Y-102757051D01*
X161071071Y-102757405D01*
X161020836Y-102785449D01*
X160947950Y-102817455D01*
X160868011Y-102846563D01*
X160848278Y-102852695D01*
X160723476Y-102881107D01*
X160595235Y-102895054D01*
X160473720Y-102894484D01*
X160369094Y-102879344D01*
X160291519Y-102849580D01*
X160284204Y-102845043D01*
X160226939Y-102802890D01*
X160178335Y-102750856D01*
X160131031Y-102679665D01*
X160077668Y-102580040D01*
X160042814Y-102500934D01*
X160015570Y-102389700D01*
X160023162Y-102295608D01*
X160065541Y-102217189D01*
X160091737Y-102189432D01*
X160131904Y-102161840D01*
X160182177Y-102147223D01*
X160249724Y-102144795D01*
X160341711Y-102153771D01*
G37*
G36*
X150630071Y-105361534D02*
G01*
X150607443Y-105451120D01*
X150558853Y-105529540D01*
X150491153Y-105583323D01*
X150395449Y-105613862D01*
X150290736Y-105610744D01*
X150192213Y-105570172D01*
X150105231Y-105493391D01*
X150071586Y-105446563D01*
X150057780Y-105399956D01*
X150059668Y-105335103D01*
X150064200Y-105302690D01*
X150077305Y-105265391D01*
X150263480Y-105265391D01*
X150289032Y-105330050D01*
X150321430Y-105381199D01*
X150347819Y-105426711D01*
X150353527Y-105435682D01*
X150394861Y-105465433D01*
X150446615Y-105472576D01*
X150490141Y-105453592D01*
X150512773Y-105409248D01*
X150516329Y-105343623D01*
X150501108Y-105273249D01*
X150470246Y-105211995D01*
X150426877Y-105173728D01*
X150361668Y-105158085D01*
X150306278Y-105172060D01*
X150271389Y-105210278D01*
X150263480Y-105265391D01*
X150077305Y-105265391D01*
X150097805Y-105207044D01*
X150154328Y-105134956D01*
X150227069Y-105086693D01*
X150309329Y-105062523D01*
X150394411Y-105062712D01*
X150475614Y-105087527D01*
X150546242Y-105137236D01*
X150599593Y-105212106D01*
X150628971Y-105312403D01*
X150629670Y-105343623D01*
X150630071Y-105361534D01*
G37*
G36*
X151939211Y-101844864D02*
G01*
X151914277Y-101945816D01*
X151863481Y-102042355D01*
X151785884Y-102114009D01*
X151676572Y-102166802D01*
X151583173Y-102190047D01*
X151480407Y-102185580D01*
X151392305Y-102143951D01*
X151318486Y-102065052D01*
X151294819Y-102020218D01*
X151267872Y-101927687D01*
X151256506Y-101823803D01*
X151263418Y-101725199D01*
X151277278Y-101681812D01*
X151285616Y-101667679D01*
X151497813Y-101667679D01*
X151501153Y-101727830D01*
X151525637Y-101782665D01*
X151543083Y-101813973D01*
X151555000Y-101863278D01*
X151562161Y-101900079D01*
X151586135Y-101949523D01*
X151616291Y-101978649D01*
X151657044Y-101994008D01*
X151691768Y-101985004D01*
X151740910Y-101948629D01*
X151779425Y-101896737D01*
X151795000Y-101842821D01*
X151792917Y-101817128D01*
X151771270Y-101743071D01*
X151733293Y-101672241D01*
X151687943Y-101623024D01*
X151683640Y-101620139D01*
X151625363Y-101597858D01*
X151564534Y-101596862D01*
X151519000Y-101617712D01*
X151516355Y-101620564D01*
X151497813Y-101667679D01*
X151285616Y-101667679D01*
X151322703Y-101604818D01*
X151386360Y-101533699D01*
X151456976Y-101482584D01*
X151470508Y-101476221D01*
X151561361Y-101455823D01*
X151664193Y-101461724D01*
X151765502Y-101491822D01*
X151851785Y-101544018D01*
X151896511Y-101588050D01*
X151935686Y-101655552D01*
X151948962Y-101737861D01*
X151939397Y-101842821D01*
X151939211Y-101844864D01*
G37*
G36*
X152613342Y-102782336D02*
G01*
X152604363Y-102891341D01*
X152560831Y-102991472D01*
X152483969Y-103077208D01*
X152375000Y-103143027D01*
X152343411Y-103154709D01*
X152240553Y-103172779D01*
X152129985Y-103168944D01*
X152023061Y-103145338D01*
X151931132Y-103104092D01*
X151865552Y-103047339D01*
X151859719Y-103039518D01*
X151831955Y-102991571D01*
X151818509Y-102936703D01*
X151815000Y-102858552D01*
X151820515Y-102775902D01*
X151847875Y-102653593D01*
X151869370Y-102603557D01*
X152078517Y-102603557D01*
X152083956Y-102642018D01*
X152110803Y-102695690D01*
X152118859Y-102710890D01*
X152144616Y-102779927D01*
X152155000Y-102843640D01*
X152162381Y-102896473D01*
X152195000Y-102954765D01*
X152213001Y-102970436D01*
X152273375Y-102995731D01*
X152333891Y-102987322D01*
X152387886Y-102949252D01*
X152428696Y-102885563D01*
X152449656Y-102800296D01*
X152450966Y-102770050D01*
X152431635Y-102671861D01*
X152376851Y-102589628D01*
X152289022Y-102527440D01*
X152269293Y-102518545D01*
X152192317Y-102501358D01*
X152131252Y-102517838D01*
X152090123Y-102567179D01*
X152078517Y-102603557D01*
X151869370Y-102603557D01*
X151894285Y-102545558D01*
X151955405Y-102463991D01*
X152024908Y-102419279D01*
X152119663Y-102395947D01*
X152224903Y-102397865D01*
X152331089Y-102423690D01*
X152428686Y-102472082D01*
X152508156Y-102541701D01*
X152522749Y-102559796D01*
X152586545Y-102669981D01*
X152610412Y-102770050D01*
X152613342Y-102782336D01*
G37*
G36*
X161908430Y-94005693D02*
G01*
X161852839Y-94132727D01*
X161767003Y-94237184D01*
X161652905Y-94315260D01*
X161565658Y-94348822D01*
X161434723Y-94365403D01*
X161303752Y-94344352D01*
X161177401Y-94286628D01*
X161060325Y-94193190D01*
X161020870Y-94148801D01*
X160961059Y-94043011D01*
X160939292Y-93926646D01*
X160955593Y-93799331D01*
X161009984Y-93660692D01*
X161040529Y-93611051D01*
X161295278Y-93611051D01*
X161305888Y-93678261D01*
X161352397Y-93751823D01*
X161362333Y-93763581D01*
X161392732Y-93810411D01*
X161409796Y-93865898D01*
X161418891Y-93945688D01*
X161422485Y-93988160D01*
X161432695Y-94047968D01*
X161451129Y-94087771D01*
X161482610Y-94120826D01*
X161489685Y-94126817D01*
X161528135Y-94155880D01*
X161551116Y-94167551D01*
X161556263Y-94167234D01*
X161609908Y-94145371D01*
X161665120Y-94095803D01*
X161711428Y-94027668D01*
X161722301Y-94004370D01*
X161748677Y-93892469D01*
X161739976Y-93771824D01*
X161696513Y-93650403D01*
X161694891Y-93647259D01*
X161635210Y-93568385D01*
X161554258Y-93522307D01*
X161449093Y-93507326D01*
X161372282Y-93519627D01*
X161318198Y-93556177D01*
X161295278Y-93611051D01*
X161040529Y-93611051D01*
X161102490Y-93510353D01*
X161168204Y-93432476D01*
X161252907Y-93371084D01*
X161354750Y-93337435D01*
X161482751Y-93327184D01*
X161486700Y-93327188D01*
X161593301Y-93332360D01*
X161672857Y-93350156D01*
X161737089Y-93384793D01*
X161797717Y-93440488D01*
X161808859Y-93452823D01*
X161873201Y-93545163D01*
X161912399Y-93651350D01*
X161930868Y-93782738D01*
X161931789Y-93859885D01*
X161926569Y-93892469D01*
X161908430Y-94005693D01*
G37*
G36*
X164173990Y-92155782D02*
G01*
X164168240Y-92266188D01*
X164153219Y-92354059D01*
X164147341Y-92372390D01*
X164097475Y-92463001D01*
X164018638Y-92551159D01*
X163919577Y-92629690D01*
X163809035Y-92691425D01*
X163695758Y-92729192D01*
X163607001Y-92739356D01*
X163467453Y-92725328D01*
X163330607Y-92678783D01*
X163203998Y-92603545D01*
X163095162Y-92503433D01*
X163011634Y-92382270D01*
X162991349Y-92338007D01*
X162976048Y-92282930D01*
X162968259Y-92213216D01*
X162965804Y-92116231D01*
X162966056Y-92044216D01*
X162969837Y-91977197D01*
X162980383Y-91925943D01*
X163000795Y-91876835D01*
X163034181Y-91816254D01*
X163061944Y-91773077D01*
X163379524Y-91773077D01*
X163384891Y-91835182D01*
X163426603Y-91907180D01*
X163471102Y-91972925D01*
X163534034Y-92087202D01*
X163585399Y-92205480D01*
X163617342Y-92311120D01*
X163627201Y-92349291D01*
X163652589Y-92415679D01*
X163680674Y-92461502D01*
X163738920Y-92498967D01*
X163807445Y-92499937D01*
X163879912Y-92464267D01*
X163881194Y-92463293D01*
X163925084Y-92410398D01*
X163963225Y-92330265D01*
X163991853Y-92235298D01*
X164007203Y-92137898D01*
X164005512Y-92050467D01*
X163995869Y-92000306D01*
X163963542Y-91896173D01*
X163919466Y-91801192D01*
X163870176Y-91730791D01*
X163861986Y-91723492D01*
X163814420Y-91695047D01*
X163745616Y-91663841D01*
X163669077Y-91635090D01*
X163598305Y-91614014D01*
X163546802Y-91605829D01*
X163534294Y-91609850D01*
X163496228Y-91634302D01*
X163448909Y-91673579D01*
X163411280Y-91712729D01*
X163379524Y-91773077D01*
X163061944Y-91773077D01*
X163074118Y-91754145D01*
X163139022Y-91667608D01*
X163204181Y-91593102D01*
X163243743Y-91554021D01*
X163297442Y-91510471D01*
X163350742Y-91484279D01*
X163418618Y-91466612D01*
X163438306Y-91463005D01*
X163581664Y-91457023D01*
X163735727Y-91481834D01*
X163889632Y-91535841D01*
X163913435Y-91547685D01*
X164010512Y-91623013D01*
X164088261Y-91732440D01*
X164145701Y-91874670D01*
X164158702Y-91932751D01*
X164170725Y-92039188D01*
X164173489Y-92137898D01*
X164173990Y-92155782D01*
G37*
G36*
X161112402Y-91157864D02*
G01*
X161087029Y-91318875D01*
X161076572Y-91355099D01*
X161002810Y-91528626D01*
X160896889Y-91686419D01*
X160764168Y-91822769D01*
X160610006Y-91931969D01*
X160439762Y-92008311D01*
X160423374Y-92013505D01*
X160360262Y-92029151D01*
X160290121Y-92038234D01*
X160202013Y-92041752D01*
X160085000Y-92040705D01*
X160078198Y-92040552D01*
X159972513Y-92037127D01*
X159895527Y-92031305D01*
X159836528Y-92021309D01*
X159784802Y-92005357D01*
X159729636Y-91981671D01*
X159632122Y-91923743D01*
X159523029Y-91833020D01*
X159425208Y-91726008D01*
X159350659Y-91614338D01*
X159303279Y-91511202D01*
X159252095Y-91327768D01*
X159236436Y-91137554D01*
X159255530Y-90946217D01*
X159308602Y-90759417D01*
X159394881Y-90582811D01*
X159409367Y-90563195D01*
X159863010Y-90563195D01*
X159877548Y-90618882D01*
X159920009Y-90688221D01*
X159992256Y-90773946D01*
X160096152Y-90878792D01*
X160130742Y-90912758D01*
X160192461Y-90977527D01*
X160241187Y-91034010D01*
X160268627Y-91072875D01*
X160276438Y-91093078D01*
X160290995Y-91155588D01*
X160303941Y-91241003D01*
X160313398Y-91338185D01*
X160317724Y-91394647D01*
X160326213Y-91475068D01*
X160336915Y-91529150D01*
X160351921Y-91565828D01*
X160373326Y-91594037D01*
X160412148Y-91629128D01*
X160469231Y-91652344D01*
X160538148Y-91644714D01*
X160580587Y-91631159D01*
X160668405Y-91583909D01*
X160737311Y-91512434D01*
X160791401Y-91411648D01*
X160834771Y-91276468D01*
X160860471Y-91155254D01*
X160873135Y-90994317D01*
X160854555Y-90849489D01*
X160803637Y-90714194D01*
X160719288Y-90581852D01*
X160660077Y-90512724D01*
X160583552Y-90437378D01*
X160511351Y-90378425D01*
X160458738Y-90342559D01*
X160413393Y-90317695D01*
X160368044Y-90304297D01*
X160309359Y-90298575D01*
X160224006Y-90296741D01*
X160050312Y-90294796D01*
X159964126Y-90392655D01*
X159923431Y-90442806D01*
X159885059Y-90499267D01*
X159865463Y-90540266D01*
X159863010Y-90563195D01*
X159409367Y-90563195D01*
X159513592Y-90422058D01*
X159545126Y-90388332D01*
X159670630Y-90277967D01*
X159811948Y-90184243D01*
X159961467Y-90110486D01*
X160111573Y-90060020D01*
X160254655Y-90036171D01*
X160383100Y-90042264D01*
X160426910Y-90054335D01*
X160524095Y-90100444D01*
X160630380Y-90170891D01*
X160738104Y-90259118D01*
X160839607Y-90358564D01*
X160927231Y-90462669D01*
X160993314Y-90564873D01*
X161028280Y-90639150D01*
X161081443Y-90805250D01*
X161110012Y-90982406D01*
X161110174Y-90994317D01*
X161112402Y-91157864D01*
G37*
G36*
X160661687Y-100589625D02*
G01*
X160626057Y-100789558D01*
X160580471Y-100982229D01*
X160527145Y-101156759D01*
X160468294Y-101302271D01*
X160435350Y-101364581D01*
X160412935Y-101406975D01*
X160304061Y-101569365D01*
X160179037Y-101712245D01*
X160043188Y-101830568D01*
X159901837Y-101919287D01*
X159760311Y-101973354D01*
X159749177Y-101975741D01*
X159685741Y-101983215D01*
X159601401Y-101987250D01*
X159511276Y-101987019D01*
X159456971Y-101984946D01*
X159383031Y-101978373D01*
X159321226Y-101964518D01*
X159255870Y-101939302D01*
X159171276Y-101898650D01*
X159141182Y-101883143D01*
X158942906Y-101757005D01*
X158761906Y-101600412D01*
X158602722Y-101419172D01*
X158469894Y-101219095D01*
X158367961Y-101005989D01*
X158336425Y-100901500D01*
X158778793Y-100901500D01*
X158781285Y-100929784D01*
X158818157Y-101083397D01*
X158893994Y-101229012D01*
X159008905Y-101366799D01*
X159163001Y-101496928D01*
X159238457Y-101537665D01*
X159327564Y-101554716D01*
X159411054Y-101542166D01*
X159482345Y-101503782D01*
X159534854Y-101443331D01*
X159562000Y-101364581D01*
X159557201Y-101271298D01*
X159544345Y-101237341D01*
X159510782Y-101173550D01*
X159463262Y-101095729D01*
X159407558Y-101013808D01*
X159361794Y-100947915D01*
X159313674Y-100873393D01*
X159278670Y-100813033D01*
X159262230Y-100775762D01*
X159257884Y-100758501D01*
X159216456Y-100655767D01*
X159157960Y-100583338D01*
X159086470Y-100543644D01*
X159006061Y-100539114D01*
X158920807Y-100572179D01*
X158888076Y-100595745D01*
X158823196Y-100675285D01*
X158785993Y-100779000D01*
X158778793Y-100901500D01*
X158336425Y-100901500D01*
X158301464Y-100785664D01*
X158299025Y-100773604D01*
X158284106Y-100655245D01*
X158278049Y-100510838D01*
X158280431Y-100351864D01*
X158290829Y-100189805D01*
X158308822Y-100036144D01*
X158333985Y-99902361D01*
X158378938Y-99737562D01*
X159036628Y-99737562D01*
X159044375Y-99847062D01*
X159065756Y-99887865D01*
X159115080Y-99948828D01*
X159193314Y-100030927D01*
X159301435Y-100135190D01*
X159440426Y-100262645D01*
X159445018Y-100266797D01*
X159511087Y-100332903D01*
X159551702Y-100390953D01*
X159575262Y-100452795D01*
X159610605Y-100573689D01*
X159653807Y-100683453D01*
X159702975Y-100765569D01*
X159762226Y-100826691D01*
X159835681Y-100873473D01*
X159899082Y-100902282D01*
X159991963Y-100925336D01*
X160079787Y-100917434D01*
X160175000Y-100878768D01*
X160214618Y-100856505D01*
X160282708Y-100805512D01*
X160330922Y-100743960D01*
X160362692Y-100664600D01*
X160381452Y-100560182D01*
X160390635Y-100423458D01*
X160387682Y-100239443D01*
X160366271Y-100054384D01*
X160328211Y-99879771D01*
X160275470Y-99722755D01*
X160210016Y-99590490D01*
X160133818Y-99490129D01*
X160110805Y-99467728D01*
X160011790Y-99392459D01*
X159901207Y-99343739D01*
X159771091Y-99318892D01*
X159613476Y-99315241D01*
X159577729Y-99316629D01*
X159490512Y-99322608D01*
X159425032Y-99333541D01*
X159367551Y-99352400D01*
X159304335Y-99382160D01*
X159215804Y-99438262D01*
X159125862Y-99526867D01*
X159064964Y-99628732D01*
X159036628Y-99737562D01*
X158378938Y-99737562D01*
X158397823Y-99668330D01*
X158473600Y-99454599D01*
X158558060Y-99272191D01*
X158649897Y-99123915D01*
X158747805Y-99012578D01*
X158794145Y-98972307D01*
X158877971Y-98912875D01*
X158966215Y-98871152D01*
X159067631Y-98844385D01*
X159190975Y-98829819D01*
X159345000Y-98824700D01*
X159415103Y-98824390D01*
X159509191Y-98825847D01*
X159583519Y-98831295D01*
X159650792Y-98842472D01*
X159723717Y-98861114D01*
X159815000Y-98888959D01*
X159840328Y-98897147D01*
X160043823Y-98978937D01*
X160221606Y-99080051D01*
X160369420Y-99197684D01*
X160483005Y-99329031D01*
X160512724Y-99379722D01*
X160558120Y-99485447D01*
X160600540Y-99615667D01*
X160637673Y-99760938D01*
X160667209Y-99911813D01*
X160686837Y-100058846D01*
X160694246Y-100192590D01*
X160694222Y-100211475D01*
X160685147Y-100393305D01*
X160681544Y-100423458D01*
X160661687Y-100589625D01*
G37*
G36*
X163547169Y-100860249D02*
G01*
X163544975Y-101009126D01*
X163538040Y-101147448D01*
X163526357Y-101265485D01*
X163509925Y-101353504D01*
X163460754Y-101504261D01*
X163383927Y-101664080D01*
X163317669Y-101760839D01*
X163280805Y-101814672D01*
X163145327Y-101966225D01*
X163099425Y-102012026D01*
X163020002Y-102086217D01*
X162950041Y-102142011D01*
X162878666Y-102187639D01*
X162795000Y-102231330D01*
X162766405Y-102244942D01*
X162673704Y-102285813D01*
X162584591Y-102320984D01*
X162515000Y-102344042D01*
X162434528Y-102359453D01*
X162313608Y-102369046D01*
X162179879Y-102369025D01*
X162046366Y-102359914D01*
X161926093Y-102342239D01*
X161832084Y-102316524D01*
X161674403Y-102243147D01*
X161496179Y-102122245D01*
X161343948Y-101971000D01*
X161217959Y-101789670D01*
X161118460Y-101578512D01*
X161099686Y-101526545D01*
X161084981Y-101474883D01*
X161075367Y-101419909D01*
X161069739Y-101352447D01*
X161069133Y-101332798D01*
X161562114Y-101332798D01*
X161592751Y-101486639D01*
X161602771Y-101516110D01*
X161654552Y-101628378D01*
X161722228Y-101732971D01*
X161798154Y-101819313D01*
X161874688Y-101876825D01*
X161929012Y-101896884D01*
X162019043Y-101911043D01*
X162112156Y-101910365D01*
X162188693Y-101893790D01*
X162216079Y-101879071D01*
X162257329Y-101828850D01*
X162268934Y-101760839D01*
X162250596Y-101681678D01*
X162202016Y-101598006D01*
X162143190Y-101502180D01*
X162092685Y-101359845D01*
X162074889Y-101208175D01*
X162069349Y-101100128D01*
X162045404Y-100989972D01*
X162001723Y-100913011D01*
X161937434Y-100867853D01*
X161851661Y-100853110D01*
X161823385Y-100853848D01*
X161724973Y-100873048D01*
X161653528Y-100919738D01*
X161605622Y-100995908D01*
X161593408Y-101028893D01*
X161562448Y-101175859D01*
X161562114Y-101332798D01*
X161069133Y-101332798D01*
X161066990Y-101263316D01*
X161066014Y-101143339D01*
X161065953Y-101099929D01*
X161067360Y-100980461D01*
X161072234Y-100884008D01*
X161081890Y-100797587D01*
X161097647Y-100708217D01*
X161120820Y-100602913D01*
X161169394Y-100406011D01*
X161238191Y-100168204D01*
X161286363Y-100033763D01*
X161922486Y-100033763D01*
X161924789Y-100107920D01*
X161953145Y-100181313D01*
X162010192Y-100258170D01*
X162098565Y-100342721D01*
X162220901Y-100439196D01*
X162239973Y-100453676D01*
X162314234Y-100515997D01*
X162379997Y-100579548D01*
X162424884Y-100632592D01*
X162443742Y-100661218D01*
X162466173Y-100704722D01*
X162480724Y-100754032D01*
X162490336Y-100820553D01*
X162497955Y-100915691D01*
X162503227Y-100979638D01*
X162521522Y-101099416D01*
X162550788Y-101189578D01*
X162593707Y-101256911D01*
X162652958Y-101308204D01*
X162701211Y-101331820D01*
X162793967Y-101351381D01*
X162894197Y-101349600D01*
X162985372Y-101325611D01*
X163021409Y-101305843D01*
X163096559Y-101239467D01*
X163160564Y-101150258D01*
X163204142Y-101049917D01*
X163220947Y-100965032D01*
X163231270Y-100850310D01*
X163234655Y-100718724D01*
X163231116Y-100581682D01*
X163220665Y-100450592D01*
X163203315Y-100336860D01*
X163183453Y-100256307D01*
X163112840Y-100079455D01*
X163010895Y-99926028D01*
X162879365Y-99798331D01*
X162719996Y-99698670D01*
X162719428Y-99698391D01*
X162653934Y-99669191D01*
X162595025Y-99652169D01*
X162527211Y-99644270D01*
X162435000Y-99642437D01*
X162431417Y-99642445D01*
X162341113Y-99644631D01*
X162275566Y-99652614D01*
X162220113Y-99669343D01*
X162160092Y-99697771D01*
X162072501Y-99757209D01*
X161991145Y-99853666D01*
X161934694Y-99979987D01*
X161922486Y-100033763D01*
X161286363Y-100033763D01*
X161310848Y-99965428D01*
X161388930Y-99794799D01*
X161474004Y-99653432D01*
X161567635Y-99538445D01*
X161671388Y-99446953D01*
X161786829Y-99376072D01*
X161871207Y-99338020D01*
X161979515Y-99303710D01*
X162099096Y-99282993D01*
X162239170Y-99274394D01*
X162408959Y-99276436D01*
X162587722Y-99290019D01*
X162774370Y-99324640D01*
X162928279Y-99379553D01*
X163050666Y-99455216D01*
X163142749Y-99552086D01*
X163158433Y-99574164D01*
X163308429Y-99818392D01*
X163424333Y-100077045D01*
X163509508Y-100357508D01*
X163525335Y-100447597D01*
X163537345Y-100569754D01*
X163544624Y-100710548D01*
X163544763Y-100718724D01*
X163547169Y-100860249D01*
G37*
G36*
X161555000Y-95957505D02*
G01*
X161555933Y-95970586D01*
X161568370Y-95992764D01*
X161602527Y-96007683D01*
X161667493Y-96020424D01*
X161746170Y-96033015D01*
X161860732Y-95822684D01*
X162005520Y-95570218D01*
X162169777Y-95316403D01*
X162332356Y-95100019D01*
X162492754Y-94921673D01*
X162650470Y-94781973D01*
X162805000Y-94681526D01*
X162838653Y-94663952D01*
X162879679Y-94644741D01*
X162918905Y-94631897D01*
X162964690Y-94624186D01*
X163025394Y-94620373D01*
X163109377Y-94619224D01*
X163225000Y-94619504D01*
X163333081Y-94620444D01*
X163427218Y-94623233D01*
X163500364Y-94629038D01*
X163562634Y-94639094D01*
X163624141Y-94654636D01*
X163695000Y-94676899D01*
X163847705Y-94732988D01*
X164116798Y-94862664D01*
X164361854Y-95022625D01*
X164580937Y-95210849D01*
X164772111Y-95425315D01*
X164933442Y-95664000D01*
X165062993Y-95924883D01*
X165158830Y-96205942D01*
X165179903Y-96313522D01*
X165194324Y-96448805D01*
X165201540Y-96597969D01*
X165201491Y-96623771D01*
X165201257Y-96748147D01*
X165193181Y-96886472D01*
X165177015Y-97000076D01*
X165172615Y-97021066D01*
X165140798Y-97171984D01*
X165107146Y-97330311D01*
X165073661Y-97486726D01*
X165042343Y-97631912D01*
X165015195Y-97756550D01*
X164994218Y-97851319D01*
X164981891Y-97914867D01*
X164962281Y-98083615D01*
X164954181Y-98282918D01*
X164957720Y-98507342D01*
X164973026Y-98751455D01*
X164979644Y-98837572D01*
X164992598Y-99149398D01*
X164988069Y-99469737D01*
X164965966Y-99812290D01*
X164951123Y-99970686D01*
X164934337Y-100111807D01*
X164914061Y-100238552D01*
X164887873Y-100363963D01*
X164853353Y-100501084D01*
X164808079Y-100662960D01*
X164805657Y-100671391D01*
X164780349Y-100762868D01*
X164760878Y-100839371D01*
X164749122Y-100893108D01*
X164746962Y-100916288D01*
X164749051Y-100919043D01*
X164784309Y-100939601D01*
X164850398Y-100961549D01*
X164939453Y-100982956D01*
X165043609Y-101001892D01*
X165155000Y-101016427D01*
X165200446Y-101020398D01*
X165324969Y-101026573D01*
X165473359Y-101029176D01*
X165636499Y-101028458D01*
X165805269Y-101024665D01*
X165970552Y-101018048D01*
X166123231Y-101008854D01*
X166254188Y-100997331D01*
X166354304Y-100983730D01*
X166528734Y-100945126D01*
X166765125Y-100864244D01*
X166973694Y-100755549D01*
X167153612Y-100619421D01*
X167157080Y-100616265D01*
X167272519Y-100488358D01*
X167353229Y-100345756D01*
X167400970Y-100184326D01*
X167417501Y-99999937D01*
X167425305Y-99878509D01*
X167448531Y-99790970D01*
X167490081Y-99733416D01*
X167552856Y-99701831D01*
X167639759Y-99692196D01*
X167702003Y-99698048D01*
X167813920Y-99735114D01*
X167915418Y-99800413D01*
X167993956Y-99887047D01*
X168017692Y-99925108D01*
X168044548Y-99975767D01*
X168055000Y-100007053D01*
X168057227Y-100018610D01*
X168074226Y-100022935D01*
X168081650Y-100012399D01*
X168100654Y-99969560D01*
X168125942Y-99902312D01*
X168154648Y-99819319D01*
X168183902Y-99729246D01*
X168210836Y-99640757D01*
X168232583Y-99562516D01*
X168246274Y-99503188D01*
X168254526Y-99468428D01*
X168293802Y-99391861D01*
X168357597Y-99346718D01*
X168447188Y-99331912D01*
X168468587Y-99332181D01*
X168522402Y-99339155D01*
X168564789Y-99361724D01*
X168613551Y-99408035D01*
X168642209Y-99441367D01*
X168705731Y-99533202D01*
X168768535Y-99644406D01*
X168823538Y-99761833D01*
X168863661Y-99872338D01*
X168869808Y-99894891D01*
X168891315Y-100010985D01*
X168905202Y-100151855D01*
X168910949Y-100305660D01*
X168909898Y-100361475D01*
X168908032Y-100460560D01*
X168895931Y-100604712D01*
X168881798Y-100706261D01*
X168821424Y-101005226D01*
X168736927Y-101273972D01*
X168628587Y-101511723D01*
X168496682Y-101717701D01*
X168368687Y-101874836D01*
X168231571Y-102014651D01*
X168084125Y-102134196D01*
X167918935Y-102238758D01*
X167728585Y-102333622D01*
X167505661Y-102424073D01*
X167486340Y-102431231D01*
X167375310Y-102470288D01*
X167274210Y-102500926D01*
X167174718Y-102524614D01*
X167068512Y-102542821D01*
X166947272Y-102557014D01*
X166802677Y-102568663D01*
X166626405Y-102579235D01*
X166310270Y-102588044D01*
X166006060Y-102576742D01*
X165726134Y-102542817D01*
X165465070Y-102484741D01*
X165217448Y-102400987D01*
X164977843Y-102290027D01*
X164740836Y-102150334D01*
X164501004Y-101980380D01*
X164335458Y-101853969D01*
X164282392Y-101939000D01*
X164225895Y-102028277D01*
X164158466Y-102129398D01*
X164096147Y-102214374D01*
X164030739Y-102294213D01*
X163954046Y-102379922D01*
X163810537Y-102535655D01*
X163804493Y-102735871D01*
X163793788Y-103090482D01*
X163789964Y-103199776D01*
X163781135Y-103398228D01*
X163769636Y-103614552D01*
X163756255Y-103835250D01*
X163741780Y-104046823D01*
X163726998Y-104235774D01*
X163721487Y-104301314D01*
X163705640Y-104497177D01*
X163691458Y-104685904D01*
X163678668Y-104872735D01*
X163666996Y-105062909D01*
X163656168Y-105261667D01*
X163645909Y-105474248D01*
X163635947Y-105705893D01*
X163626007Y-105961842D01*
X163615815Y-106247334D01*
X163605097Y-106567610D01*
X163603321Y-106621611D01*
X163595509Y-106846196D01*
X163588061Y-107035905D01*
X163580715Y-107194964D01*
X163573208Y-107327602D01*
X163565280Y-107438045D01*
X163556668Y-107530522D01*
X163547111Y-107609259D01*
X163536347Y-107678484D01*
X163510178Y-107812318D01*
X163463513Y-108006378D01*
X163408259Y-108198281D01*
X163348127Y-108375430D01*
X163286831Y-108525227D01*
X163249964Y-108601173D01*
X163169109Y-108745881D01*
X163080730Y-108880233D01*
X162989935Y-108997346D01*
X162901832Y-109090336D01*
X162821528Y-109152320D01*
X162802910Y-109163730D01*
X162765435Y-109192490D01*
X162736764Y-109228964D01*
X162710071Y-109283342D01*
X162678530Y-109365818D01*
X162535969Y-109716363D01*
X162430669Y-109924429D01*
X162339562Y-110104452D01*
X162111453Y-110471563D01*
X161853619Y-110815856D01*
X161568039Y-111135493D01*
X161256688Y-111428634D01*
X160921544Y-111693438D01*
X160564584Y-111928067D01*
X160187786Y-112130681D01*
X159793126Y-112299440D01*
X159382581Y-112432505D01*
X159234338Y-112471963D01*
X159076151Y-112510034D01*
X158929890Y-112539361D01*
X158786913Y-112560997D01*
X158638577Y-112575994D01*
X158476241Y-112585404D01*
X158291263Y-112590279D01*
X158075000Y-112591670D01*
X157954652Y-112591523D01*
X157806695Y-112590590D01*
X157687007Y-112588444D01*
X157588610Y-112584688D01*
X157504523Y-112578923D01*
X157427769Y-112570750D01*
X157351367Y-112559770D01*
X157268338Y-112545585D01*
X156988149Y-112487997D01*
X156563576Y-112370364D01*
X156159776Y-112219463D01*
X155774731Y-112034502D01*
X155406425Y-111814689D01*
X155347571Y-111775353D01*
X154988635Y-111508387D01*
X154659249Y-111214898D01*
X154360256Y-110896170D01*
X154092499Y-110553491D01*
X153856820Y-110188145D01*
X153654061Y-109801418D01*
X153485066Y-109394597D01*
X153350675Y-108968967D01*
X153251732Y-108525814D01*
X153241724Y-108468242D01*
X153229772Y-108390418D01*
X153220752Y-108314476D01*
X153214265Y-108233430D01*
X153209913Y-108140296D01*
X153207298Y-108028089D01*
X153206021Y-107889824D01*
X153205793Y-107773912D01*
X153410626Y-107773912D01*
X153414070Y-107951976D01*
X153421796Y-108114332D01*
X153433806Y-108248934D01*
X153470412Y-108495794D01*
X153562789Y-108911636D01*
X153691303Y-109316129D01*
X153854418Y-109706474D01*
X154050597Y-110079872D01*
X154278303Y-110433526D01*
X154536001Y-110764636D01*
X154822154Y-111070403D01*
X155135224Y-111348029D01*
X155284215Y-111462975D01*
X155625734Y-111692728D01*
X155987292Y-111893152D01*
X156363944Y-112062162D01*
X156750743Y-112197673D01*
X157142744Y-112297599D01*
X157535000Y-112359856D01*
X157617383Y-112368206D01*
X158056493Y-112390009D01*
X158487257Y-112372684D01*
X158909582Y-112316246D01*
X159323375Y-112220712D01*
X159728546Y-112086096D01*
X160125000Y-111912416D01*
X160313312Y-111814462D01*
X160684358Y-111588540D01*
X161030436Y-111331675D01*
X161350342Y-111044997D01*
X161642872Y-110729640D01*
X161906821Y-110386735D01*
X162140984Y-110017414D01*
X162194240Y-109924429D01*
X161879620Y-109910978D01*
X161820132Y-109908357D01*
X161417729Y-109886320D01*
X161041680Y-109858029D01*
X160695319Y-109823807D01*
X160381981Y-109783978D01*
X160105000Y-109738865D01*
X159826163Y-109684861D01*
X159514188Y-109617446D01*
X159216744Y-109544446D01*
X158928547Y-109463973D01*
X158644311Y-109374143D01*
X158358748Y-109273067D01*
X158066575Y-109158861D01*
X157762503Y-109029637D01*
X157441249Y-108883509D01*
X157097525Y-108718590D01*
X156726046Y-108532996D01*
X156631487Y-108484472D01*
X156390876Y-108355167D01*
X156176079Y-108229665D01*
X155977939Y-108102179D01*
X155787298Y-107966922D01*
X155595000Y-107818105D01*
X155517039Y-107755282D01*
X155443138Y-107694881D01*
X155376049Y-107638593D01*
X155311378Y-107582373D01*
X155244733Y-107522176D01*
X155171717Y-107453954D01*
X155087938Y-107373664D01*
X154989002Y-107277260D01*
X154870514Y-107160695D01*
X154728081Y-107019924D01*
X154605663Y-106897839D01*
X154438959Y-106727347D01*
X154296082Y-106574941D01*
X154172929Y-106435934D01*
X154065395Y-106305641D01*
X153969377Y-106179378D01*
X153880772Y-106052458D01*
X153841726Y-105993562D01*
X153811173Y-105951097D01*
X153787199Y-105929968D01*
X153766420Y-105932886D01*
X153745452Y-105962561D01*
X153720909Y-106021703D01*
X153689407Y-106113025D01*
X153647562Y-106239236D01*
X153561232Y-106530830D01*
X153485586Y-106862558D01*
X153433806Y-107188098D01*
X153425995Y-107265939D01*
X153416589Y-107418846D01*
X153411466Y-107592186D01*
X153410626Y-107773912D01*
X153205793Y-107773912D01*
X153205684Y-107718516D01*
X153205830Y-107598073D01*
X153206763Y-107449998D01*
X153208907Y-107330216D01*
X153212660Y-107231742D01*
X153218420Y-107147589D01*
X153226587Y-107070774D01*
X153237558Y-106994312D01*
X153251732Y-106911218D01*
X153256986Y-106882381D01*
X153313541Y-106614463D01*
X153382443Y-106351091D01*
X153460935Y-106101130D01*
X153546259Y-105873447D01*
X153635658Y-105676908D01*
X153666335Y-105615449D01*
X153710991Y-105523600D01*
X153752148Y-105436719D01*
X153784809Y-105371659D01*
X154035147Y-105371659D01*
X154108028Y-105502888D01*
X154165959Y-105597725D01*
X154248024Y-105717891D01*
X154348817Y-105856135D01*
X154463883Y-106006923D01*
X154588769Y-106164722D01*
X154719022Y-106323999D01*
X154850187Y-106479220D01*
X154977811Y-106624854D01*
X155097439Y-106755366D01*
X155204619Y-106865224D01*
X155340245Y-106992250D01*
X155565794Y-107183664D01*
X155820688Y-107380326D01*
X156099591Y-107578625D01*
X156397168Y-107774952D01*
X156708083Y-107965695D01*
X157027000Y-108147245D01*
X157348583Y-108315990D01*
X157383501Y-108333368D01*
X157672199Y-108467904D01*
X157991302Y-108602320D01*
X158332428Y-108733755D01*
X158687193Y-108859350D01*
X159047215Y-108976246D01*
X159404112Y-109081582D01*
X159749502Y-109172498D01*
X160075000Y-109246136D01*
X160124281Y-109255880D01*
X160305186Y-109287361D01*
X160515685Y-109318653D01*
X160747860Y-109348833D01*
X160993796Y-109376976D01*
X161245575Y-109402158D01*
X161495282Y-109423455D01*
X161735000Y-109439943D01*
X161790165Y-109443086D01*
X161919838Y-109449597D01*
X162045827Y-109454854D01*
X162156056Y-109458382D01*
X162238449Y-109459708D01*
X162411898Y-109459887D01*
X162433350Y-109394836D01*
X162434705Y-109390701D01*
X162449595Y-109341250D01*
X162456874Y-109309769D01*
X162460868Y-109293708D01*
X162477676Y-109254725D01*
X162484962Y-109232783D01*
X162469429Y-109222131D01*
X162422019Y-109219698D01*
X162394045Y-109218219D01*
X162289297Y-109189271D01*
X162183842Y-109126199D01*
X162084460Y-109032758D01*
X162052536Y-108994110D01*
X162008298Y-108927278D01*
X161971105Y-108847905D01*
X161933985Y-108742546D01*
X161930518Y-108731665D01*
X161885334Y-108566311D01*
X161863501Y-108422062D01*
X161867001Y-108293817D01*
X161897820Y-108176473D01*
X161957942Y-108064927D01*
X162049352Y-107954077D01*
X162174032Y-107838820D01*
X162333969Y-107714055D01*
X162428746Y-107643488D01*
X162513295Y-107577710D01*
X162574913Y-107524979D01*
X162619066Y-107480192D01*
X162651217Y-107438252D01*
X162676832Y-107394057D01*
X162699854Y-107333253D01*
X162712279Y-107240594D01*
X162706469Y-107124140D01*
X162682507Y-106977933D01*
X162682158Y-106976211D01*
X162665648Y-106890130D01*
X162651386Y-106808133D01*
X162642423Y-106747751D01*
X162640860Y-106735813D01*
X162629567Y-106673718D01*
X162616555Y-106627657D01*
X162616421Y-106627323D01*
X162603537Y-106587749D01*
X162585446Y-106523212D01*
X162566019Y-106447515D01*
X162545082Y-106368624D01*
X162473182Y-106149547D01*
X162375860Y-105907548D01*
X162254772Y-105646885D01*
X162047928Y-105271679D01*
X161810040Y-104920411D01*
X161543158Y-104594586D01*
X161249288Y-104295620D01*
X160930435Y-104024926D01*
X160588605Y-103783918D01*
X160225804Y-103574011D01*
X159852388Y-103400497D01*
X160393476Y-103400497D01*
X160401357Y-103408641D01*
X160436696Y-103431454D01*
X160493473Y-103464986D01*
X160610076Y-103535079D01*
X160759038Y-103631247D01*
X160909189Y-103734213D01*
X161045000Y-103833598D01*
X161070377Y-103853270D01*
X161148775Y-103916409D01*
X161236376Y-103989438D01*
X161318534Y-104060226D01*
X161472068Y-104195362D01*
X161432488Y-104060445D01*
X161415550Y-104000765D01*
X161389213Y-103904070D01*
X161360144Y-103794224D01*
X161332119Y-103685340D01*
X161271331Y-103445151D01*
X160998950Y-103452220D01*
X160903830Y-103453219D01*
X160751467Y-103449037D01*
X160675122Y-103443321D01*
X161520826Y-103443321D01*
X161525113Y-103470186D01*
X161538960Y-103528862D01*
X161560828Y-103613703D01*
X161589178Y-103719063D01*
X161622470Y-103839295D01*
X161659165Y-103968751D01*
X161697725Y-104101786D01*
X161725508Y-104195362D01*
X161736609Y-104232752D01*
X161745800Y-104263622D01*
X161772909Y-104359003D01*
X161793773Y-104439118D01*
X161806483Y-104496326D01*
X161809130Y-104522981D01*
X161812135Y-104536458D01*
X161834431Y-104577513D01*
X161873685Y-104636673D01*
X161924966Y-104706144D01*
X162068717Y-104900914D01*
X162307511Y-105273073D01*
X162508830Y-105658304D01*
X162673397Y-106058250D01*
X162801935Y-106474550D01*
X162895166Y-106908846D01*
X162909940Y-107001531D01*
X162929067Y-107166826D01*
X162931230Y-107240594D01*
X162933008Y-107301219D01*
X162921762Y-107408836D01*
X162895331Y-107493804D01*
X162867986Y-107544391D01*
X162801842Y-107637381D01*
X162717711Y-107733658D01*
X162625543Y-107822212D01*
X162535292Y-107892037D01*
X162394648Y-107990264D01*
X162263067Y-108097393D01*
X162169481Y-108194626D01*
X162113567Y-108282309D01*
X162095000Y-108360786D01*
X162098971Y-108411250D01*
X162113721Y-108497707D01*
X162136036Y-108594835D01*
X162162370Y-108687564D01*
X162189173Y-108760819D01*
X162199553Y-108781811D01*
X162247110Y-108853807D01*
X162302361Y-108914458D01*
X162319560Y-108928558D01*
X162390056Y-108966069D01*
X162469135Y-108975256D01*
X162560897Y-108955384D01*
X162669443Y-108905719D01*
X162798873Y-108825526D01*
X162836056Y-108794931D01*
X162906353Y-108711170D01*
X162978236Y-108595350D01*
X163049547Y-108452417D01*
X163118129Y-108287318D01*
X163181824Y-108105003D01*
X163238476Y-107910417D01*
X163285927Y-107708508D01*
X163292160Y-107677494D01*
X163303543Y-107614798D01*
X163313749Y-107548022D01*
X163322980Y-107473899D01*
X163331439Y-107389162D01*
X163339327Y-107290544D01*
X163346847Y-107174778D01*
X163354201Y-107038596D01*
X163361592Y-106878733D01*
X163369220Y-106691920D01*
X163377290Y-106474890D01*
X163386002Y-106224377D01*
X163395559Y-105937113D01*
X163406815Y-105625136D01*
X163422882Y-105257058D01*
X163441208Y-104908364D01*
X163461492Y-104584212D01*
X163483434Y-104289760D01*
X163506732Y-104030168D01*
X163507450Y-104022750D01*
X163513617Y-103946710D01*
X163520427Y-103844421D01*
X163527615Y-103721904D01*
X163534914Y-103585178D01*
X163542058Y-103440261D01*
X163548782Y-103293175D01*
X163554820Y-103149938D01*
X163559905Y-103016569D01*
X163563772Y-102899089D01*
X163566155Y-102803516D01*
X163566788Y-102735871D01*
X163565404Y-102702172D01*
X163563222Y-102703152D01*
X163536322Y-102718651D01*
X163483583Y-102750081D01*
X163411108Y-102793785D01*
X163325000Y-102846109D01*
X163206162Y-102915438D01*
X163061808Y-102993758D01*
X162907453Y-103072629D01*
X162750507Y-103148569D01*
X162598379Y-103218099D01*
X162458479Y-103277738D01*
X162338216Y-103324005D01*
X162245000Y-103353421D01*
X162241359Y-103354343D01*
X162156785Y-103371748D01*
X162046840Y-103389021D01*
X161925346Y-103404210D01*
X161806126Y-103415366D01*
X161771214Y-103418022D01*
X161674584Y-103425871D01*
X161595792Y-103433004D01*
X161542194Y-103438726D01*
X161521142Y-103442340D01*
X161520826Y-103443321D01*
X160675122Y-103443321D01*
X160609569Y-103438413D01*
X160487916Y-103422174D01*
X160396287Y-103401149D01*
X160393476Y-103400497D01*
X159852388Y-103400497D01*
X159844038Y-103396617D01*
X159445311Y-103253152D01*
X159031630Y-103145030D01*
X158605000Y-103073664D01*
X158527221Y-103065847D01*
X158374434Y-103056434D01*
X158201231Y-103051307D01*
X158019648Y-103050466D01*
X157841724Y-103053912D01*
X157679496Y-103061645D01*
X157545000Y-103073664D01*
X157543500Y-103073846D01*
X157406692Y-103093384D01*
X157260488Y-103119261D01*
X157109761Y-103150120D01*
X156959386Y-103184602D01*
X156814235Y-103221349D01*
X156679182Y-103259003D01*
X156559101Y-103296207D01*
X156458866Y-103331602D01*
X156383350Y-103363830D01*
X156337427Y-103391533D01*
X156325970Y-103413352D01*
X156326987Y-103416046D01*
X156337706Y-103459758D01*
X156346211Y-103517437D01*
X156349411Y-103535657D01*
X156365083Y-103595238D01*
X156390978Y-103679424D01*
X156424431Y-103779744D01*
X156462776Y-103887729D01*
X156475997Y-103924081D01*
X156519604Y-104046889D01*
X156561865Y-104169805D01*
X156598525Y-104280308D01*
X156625325Y-104365876D01*
X156631939Y-104388016D01*
X156664108Y-104492712D01*
X156697842Y-104598713D01*
X156726836Y-104686128D01*
X156755972Y-104774111D01*
X156793888Y-104896079D01*
X156831265Y-105023371D01*
X156865706Y-105147318D01*
X156894818Y-105259250D01*
X156916205Y-105350498D01*
X156927472Y-105412394D01*
X156928728Y-105421946D01*
X156938627Y-105484196D01*
X156954387Y-105572821D01*
X156974110Y-105677423D01*
X156995899Y-105787602D01*
X156995979Y-105787996D01*
X157034527Y-105988780D01*
X157068774Y-106187891D01*
X157097668Y-106377889D01*
X157120157Y-106551335D01*
X157135189Y-106700789D01*
X157141712Y-106818812D01*
X157142407Y-106874696D01*
X157139773Y-106946195D01*
X157129250Y-107003672D01*
X157107230Y-107063399D01*
X157070105Y-107141644D01*
X157040799Y-107197006D01*
X156953928Y-107322205D01*
X156857053Y-107410115D01*
X156751134Y-107459780D01*
X156714828Y-107467686D01*
X156615990Y-107478538D01*
X156496654Y-107481881D01*
X156369489Y-107477935D01*
X156247165Y-107466924D01*
X156142353Y-107449072D01*
X156090934Y-107435249D01*
X155962793Y-107377718D01*
X155861410Y-107291805D01*
X155783396Y-107174921D01*
X155769268Y-107144650D01*
X155738791Y-107072404D01*
X155700854Y-106976955D01*
X155658943Y-106867149D01*
X155616548Y-106751831D01*
X155613628Y-106743729D01*
X155546863Y-106560848D01*
X155483309Y-106392117D01*
X155418950Y-106227446D01*
X155349772Y-106056745D01*
X155271759Y-105869924D01*
X155180898Y-105656893D01*
X155165371Y-105621081D01*
X155117344Y-105513124D01*
X155062050Y-105392023D01*
X155002145Y-105263283D01*
X154940283Y-105132412D01*
X154879117Y-105004914D01*
X154821303Y-104886296D01*
X154769493Y-104782065D01*
X154726343Y-104697727D01*
X154694506Y-104638788D01*
X154676636Y-104610754D01*
X154661042Y-104606434D01*
X154621631Y-104625005D01*
X154566226Y-104669763D01*
X154498583Y-104736476D01*
X154422457Y-104820912D01*
X154341604Y-104918838D01*
X154259779Y-105026024D01*
X154180738Y-105138237D01*
X154108237Y-105251246D01*
X154035147Y-105371659D01*
X153784809Y-105371659D01*
X153788615Y-105364077D01*
X153856214Y-105245181D01*
X153937813Y-105114387D01*
X154028629Y-104978390D01*
X154123880Y-104843883D01*
X154218784Y-104717563D01*
X154308559Y-104606124D01*
X154388423Y-104516262D01*
X154453594Y-104454671D01*
X154483529Y-104429051D01*
X154520543Y-104391334D01*
X154535000Y-104367266D01*
X154534944Y-104365384D01*
X154524716Y-104323728D01*
X154499462Y-104255576D01*
X154462948Y-104168992D01*
X154418936Y-104072045D01*
X154371191Y-103972798D01*
X154323476Y-103879317D01*
X154279554Y-103799668D01*
X154243190Y-103741918D01*
X154168161Y-103635160D01*
X154074117Y-103498491D01*
X153982449Y-103362411D01*
X153896629Y-103232256D01*
X153820124Y-103113364D01*
X153756407Y-103011072D01*
X153708948Y-102930717D01*
X153681217Y-102877637D01*
X153679371Y-102873335D01*
X153661675Y-102827246D01*
X153633044Y-102747995D01*
X153594902Y-102639703D01*
X153548670Y-102506488D01*
X153495772Y-102352470D01*
X153437632Y-102181769D01*
X153375671Y-101998504D01*
X153311314Y-101806794D01*
X153293833Y-101754546D01*
X153232025Y-101569955D01*
X153174431Y-101398182D01*
X153122261Y-101242818D01*
X153076724Y-101107457D01*
X153039031Y-100995692D01*
X153010390Y-100911114D01*
X152992012Y-100857318D01*
X152985106Y-100837895D01*
X152977196Y-100837318D01*
X152936742Y-100841751D01*
X152868512Y-100851895D01*
X152779733Y-100866460D01*
X152677626Y-100884157D01*
X152569416Y-100903696D01*
X152462326Y-100923787D01*
X152363581Y-100943142D01*
X152280403Y-100960469D01*
X152220017Y-100974480D01*
X152207854Y-100977560D01*
X152130478Y-100995650D01*
X152065814Y-101008408D01*
X152026801Y-101013239D01*
X152018168Y-101013668D01*
X151961272Y-101023820D01*
X151872829Y-101046263D01*
X151757506Y-101079396D01*
X151619972Y-101121618D01*
X151464896Y-101171328D01*
X151296946Y-101226922D01*
X151120789Y-101286801D01*
X150941095Y-101349363D01*
X150762532Y-101413005D01*
X150589768Y-101476127D01*
X150427472Y-101537127D01*
X150280312Y-101594404D01*
X150152956Y-101646355D01*
X150050072Y-101691380D01*
X150041880Y-101695181D01*
X149964572Y-101733044D01*
X149874146Y-101780040D01*
X149777550Y-101832237D01*
X149681735Y-101885703D01*
X149593650Y-101936505D01*
X149520244Y-101980711D01*
X149468468Y-102014388D01*
X149445269Y-102033605D01*
X149445424Y-102035573D01*
X149467099Y-102052040D01*
X149517753Y-102079562D01*
X149590937Y-102114822D01*
X149680201Y-102154500D01*
X149804229Y-102208748D01*
X150274097Y-102434548D01*
X150723723Y-102683018D01*
X151144338Y-102949397D01*
X151235201Y-103011443D01*
X151422072Y-103142101D01*
X151579034Y-103257181D01*
X151709440Y-103359690D01*
X151816646Y-103452637D01*
X151904007Y-103539031D01*
X151974877Y-103621880D01*
X152032611Y-103704193D01*
X152080564Y-103788977D01*
X152158294Y-103949310D01*
X152228599Y-104117973D01*
X152279609Y-104277649D01*
X152314422Y-104440324D01*
X152336139Y-104617981D01*
X152347857Y-104822606D01*
X152351009Y-104916210D01*
X152353384Y-105012545D01*
X152353021Y-105081814D01*
X152349256Y-105131433D01*
X152341429Y-105168819D01*
X152328878Y-105201390D01*
X152310941Y-105236562D01*
X152291320Y-105269625D01*
X152214631Y-105356471D01*
X152110944Y-105422646D01*
X151977970Y-105469039D01*
X151813418Y-105496535D01*
X151615000Y-105506020D01*
X151524984Y-105505613D01*
X151455013Y-105502297D01*
X151405255Y-105494289D01*
X151365366Y-105479849D01*
X151325000Y-105457238D01*
X151221152Y-105382129D01*
X151098107Y-105267209D01*
X150988308Y-105136483D01*
X150913355Y-105040946D01*
X150821353Y-104937079D01*
X150728963Y-104844936D01*
X150643556Y-104771812D01*
X150572505Y-104725004D01*
X150550395Y-104714334D01*
X150449062Y-104673492D01*
X150311397Y-104627289D01*
X150139859Y-104576464D01*
X149936907Y-104521757D01*
X149705000Y-104463909D01*
X149621104Y-104443546D01*
X149479916Y-104408745D01*
X149340174Y-104373735D01*
X149214371Y-104341654D01*
X149115000Y-104315643D01*
X149008939Y-104287317D01*
X148880758Y-104253306D01*
X148775398Y-104225762D01*
X148683501Y-104202307D01*
X148595709Y-104180563D01*
X148502661Y-104158153D01*
X148395000Y-104132697D01*
X148299752Y-104109609D01*
X148178604Y-104078705D01*
X148065125Y-104048276D01*
X147975000Y-104022442D01*
X147963692Y-104019081D01*
X147890050Y-103999246D01*
X147804552Y-103978767D01*
X147715649Y-103959342D01*
X147631792Y-103942666D01*
X147561431Y-103930437D01*
X147513016Y-103924349D01*
X147495000Y-103926099D01*
X147496376Y-103934114D01*
X147504131Y-103973743D01*
X147517196Y-104038601D01*
X147533817Y-104119930D01*
X147534067Y-104121149D01*
X147567295Y-104303424D01*
X147599048Y-104517299D01*
X147628194Y-104754407D01*
X147653602Y-105006380D01*
X147656435Y-105037750D01*
X147667179Y-105156584D01*
X147679773Y-105295713D01*
X147692874Y-105440317D01*
X147705141Y-105575576D01*
X147716841Y-105718906D01*
X147730695Y-105979015D01*
X147733214Y-106215150D01*
X147731264Y-106262311D01*
X147724563Y-106424383D01*
X147704905Y-106603782D01*
X147674404Y-106750419D01*
X147633223Y-106861361D01*
X147592474Y-106935854D01*
X147510918Y-107048376D01*
X147418219Y-107127933D01*
X147308279Y-107179116D01*
X147175000Y-107206518D01*
X147115939Y-107208734D01*
X147003056Y-107197594D01*
X146880120Y-107171451D01*
X146762015Y-107133757D01*
X146663628Y-107087963D01*
X146633303Y-107069599D01*
X146552762Y-107010160D01*
X146491806Y-106942831D01*
X146447605Y-106861258D01*
X146417329Y-106759086D01*
X146398146Y-106629962D01*
X146387226Y-106467531D01*
X146380677Y-106359641D01*
X146370479Y-106250103D01*
X146358183Y-106155041D01*
X146345200Y-106087231D01*
X146339516Y-106068288D01*
X146314768Y-106001898D01*
X146276364Y-105909864D01*
X146227387Y-105799226D01*
X146170921Y-105677024D01*
X146110048Y-105550297D01*
X145905817Y-105133457D01*
X145868245Y-105179893D01*
X145865081Y-105183912D01*
X145832039Y-105231690D01*
X145784462Y-105306951D01*
X145726346Y-105402916D01*
X145661685Y-105512807D01*
X145594475Y-105629847D01*
X145528711Y-105747257D01*
X145468388Y-105858260D01*
X145457194Y-105879411D01*
X145357752Y-106079585D01*
X145256534Y-106303363D01*
X145159591Y-106536856D01*
X145072972Y-106766175D01*
X145071838Y-106769355D01*
X144987970Y-107027342D01*
X144908137Y-107316206D01*
X144834181Y-107626970D01*
X144767938Y-107950657D01*
X144711250Y-108278290D01*
X144665953Y-108600894D01*
X144633888Y-108909490D01*
X144631307Y-108942680D01*
X144625582Y-109296129D01*
X144658888Y-109656915D01*
X144731075Y-110024428D01*
X144841997Y-110398058D01*
X144991505Y-110777194D01*
X145179452Y-111161227D01*
X145295321Y-111368018D01*
X145432124Y-111588929D01*
X145578174Y-111799584D01*
X145736199Y-112002639D01*
X145908928Y-112200751D01*
X146099090Y-112396576D01*
X146309412Y-112592770D01*
X146542624Y-112791988D01*
X146801453Y-112996887D01*
X147088629Y-113210122D01*
X147406879Y-113434351D01*
X147758933Y-113672229D01*
X147792399Y-113694488D01*
X148002673Y-113836637D01*
X148182370Y-113963040D01*
X148335250Y-114077049D01*
X148465074Y-114182012D01*
X148575605Y-114281278D01*
X148670601Y-114378197D01*
X148753825Y-114476118D01*
X148829038Y-114578390D01*
X148900000Y-114688362D01*
X148920869Y-114723544D01*
X148954483Y-114791036D01*
X148970756Y-114850374D01*
X148975000Y-114917810D01*
X148973504Y-114959740D01*
X148966819Y-115006202D01*
X148956590Y-115024268D01*
X148956368Y-115024273D01*
X148939626Y-115041985D01*
X148925119Y-115083775D01*
X148923153Y-115091518D01*
X148886227Y-115157485D01*
X148819676Y-115217347D01*
X148732658Y-115262597D01*
X148728465Y-115264169D01*
X148673080Y-115286381D01*
X148631773Y-115305220D01*
X148630513Y-115305828D01*
X148595148Y-115315480D01*
X148529330Y-115328123D01*
X148441675Y-115342486D01*
X148340799Y-115357301D01*
X148235317Y-115371295D01*
X148133846Y-115383199D01*
X148045000Y-115391743D01*
X148031338Y-115392544D01*
X147972001Y-115394154D01*
X147880866Y-115395228D01*
X147763765Y-115395748D01*
X147626531Y-115395698D01*
X147474999Y-115395062D01*
X147315000Y-115393823D01*
X147105623Y-115390965D01*
X146897556Y-115385462D01*
X146711916Y-115376740D01*
X146539377Y-115363950D01*
X146370617Y-115346240D01*
X146196311Y-115322761D01*
X146007135Y-115292662D01*
X145793765Y-115255093D01*
X145697014Y-115236490D01*
X145500271Y-115194189D01*
X145286458Y-115143510D01*
X145068815Y-115087776D01*
X144860582Y-115030307D01*
X144675000Y-114974425D01*
X144626658Y-114959215D01*
X144505460Y-114922009D01*
X144381433Y-114884957D01*
X144275000Y-114854197D01*
X144254165Y-114848117D01*
X144135186Y-114807903D01*
X143993158Y-114752865D01*
X143837745Y-114687205D01*
X143678609Y-114615123D01*
X143525416Y-114540822D01*
X143387829Y-114468503D01*
X143383221Y-114465951D01*
X143264532Y-114397291D01*
X143125618Y-114312309D01*
X142972536Y-114215109D01*
X142811343Y-114109794D01*
X142648097Y-114000466D01*
X142488855Y-113891231D01*
X142339676Y-113786190D01*
X142206616Y-113689447D01*
X142095733Y-113605106D01*
X142013086Y-113537270D01*
X141956231Y-113485662D01*
X141863154Y-113396438D01*
X141755673Y-113289452D01*
X141639182Y-113170407D01*
X141519073Y-113045004D01*
X141400737Y-112918943D01*
X141289567Y-112797927D01*
X141190955Y-112687656D01*
X141110294Y-112593830D01*
X141052975Y-112522153D01*
X141050453Y-112518767D01*
X141002530Y-112452656D01*
X140938430Y-112361843D01*
X140863765Y-112254399D01*
X140784146Y-112138396D01*
X140705185Y-112021904D01*
X140701694Y-112016720D01*
X140621550Y-111898994D01*
X140539933Y-111781262D01*
X140462731Y-111671872D01*
X140395832Y-111579170D01*
X140345124Y-111511502D01*
X140268728Y-111407673D01*
X140123560Y-111180877D01*
X139978235Y-110915555D01*
X139833208Y-110612688D01*
X139688937Y-110273256D01*
X139545875Y-109898239D01*
X139404480Y-109488616D01*
X139326404Y-109242738D01*
X139248595Y-108971263D01*
X139185238Y-108712784D01*
X139134838Y-108458525D01*
X139095900Y-108199711D01*
X139066928Y-107927567D01*
X139046426Y-107633320D01*
X139032900Y-107308193D01*
X139020871Y-106889933D01*
X139010860Y-106470068D01*
X139004336Y-106088898D01*
X139221339Y-106088898D01*
X139223001Y-106242327D01*
X139226799Y-106367082D01*
X139232885Y-106457523D01*
X139236072Y-106490066D01*
X139245622Y-106598572D01*
X139255921Y-106728413D01*
X139265923Y-106866052D01*
X139274584Y-106997948D01*
X139284324Y-107153900D01*
X139298371Y-107366666D01*
X139311437Y-107547093D01*
X139323945Y-107699845D01*
X139336317Y-107829584D01*
X139348974Y-107940973D01*
X139362340Y-108038674D01*
X139376836Y-108127350D01*
X139440648Y-108461563D01*
X139561194Y-108987419D01*
X139705455Y-109501799D01*
X139876670Y-110015856D01*
X140078080Y-110540738D01*
X140134941Y-110670127D01*
X140207052Y-110817390D01*
X140286992Y-110967890D01*
X140369168Y-111111495D01*
X140447987Y-111238072D01*
X140517857Y-111337489D01*
X140567496Y-111403703D01*
X140638880Y-111502051D01*
X140723505Y-111620913D01*
X140816682Y-111753609D01*
X140913722Y-111893458D01*
X141009938Y-112033781D01*
X141100640Y-112167897D01*
X141242293Y-112364297D01*
X141485346Y-112648070D01*
X141765000Y-112918195D01*
X141830364Y-112976003D01*
X141941631Y-113074470D01*
X142052802Y-113172917D01*
X142153913Y-113262520D01*
X142235000Y-113334454D01*
X142312247Y-113401272D01*
X142394462Y-113469007D01*
X142466822Y-113525340D01*
X142519534Y-113562423D01*
X142551845Y-113584233D01*
X142620523Y-113635415D01*
X142700234Y-113698904D01*
X142779534Y-113765749D01*
X142827066Y-113806000D01*
X142990548Y-113932103D01*
X143174934Y-114059196D01*
X143367370Y-114178720D01*
X143555000Y-114282116D01*
X143623935Y-114316170D01*
X143715601Y-114359420D01*
X143818550Y-114406515D01*
X143925990Y-114454494D01*
X144031129Y-114500393D01*
X144127174Y-114541250D01*
X144207333Y-114574101D01*
X144264813Y-114595985D01*
X144292821Y-114603937D01*
X144294420Y-114604098D01*
X144324438Y-114611799D01*
X144383466Y-114629354D01*
X144463782Y-114654410D01*
X144557663Y-114684614D01*
X144650565Y-114713913D01*
X144779453Y-114752205D01*
X144905392Y-114787406D01*
X145010953Y-114814523D01*
X145074167Y-114830140D01*
X145156354Y-114852051D01*
X145219715Y-114870863D01*
X145254156Y-114883706D01*
X145262409Y-114887679D01*
X145320014Y-114907312D01*
X145410234Y-114930827D01*
X145527371Y-114957181D01*
X145665727Y-114985335D01*
X145819604Y-115014246D01*
X145983304Y-115042873D01*
X146151128Y-115070175D01*
X146317378Y-115095111D01*
X146476357Y-115116640D01*
X146622365Y-115133720D01*
X146656043Y-115137168D01*
X146866519Y-115154454D01*
X147083466Y-115165595D01*
X147302669Y-115170865D01*
X147519916Y-115170540D01*
X147730994Y-115164893D01*
X147931687Y-115154200D01*
X148117784Y-115138735D01*
X148285070Y-115118774D01*
X148429332Y-115094590D01*
X148546357Y-115066458D01*
X148631930Y-115034654D01*
X148681839Y-114999452D01*
X148708238Y-114946770D01*
X148707087Y-114874270D01*
X148673190Y-114786260D01*
X148606007Y-114681733D01*
X148504994Y-114559682D01*
X148369611Y-114419100D01*
X148327830Y-114379834D01*
X148260270Y-114322047D01*
X148176546Y-114256293D01*
X148073085Y-114179955D01*
X147946318Y-114090416D01*
X147792672Y-113985057D01*
X147608576Y-113861261D01*
X147503936Y-113791125D01*
X147353415Y-113689374D01*
X147207497Y-113589798D01*
X147071940Y-113496370D01*
X146952500Y-113413064D01*
X146854935Y-113343855D01*
X146785000Y-113292718D01*
X146692977Y-113222768D01*
X146358829Y-112954780D01*
X146060248Y-112690974D01*
X145794340Y-112428361D01*
X145558212Y-112163949D01*
X145348969Y-111894750D01*
X145163718Y-111617774D01*
X144946134Y-111238040D01*
X144757327Y-110845047D01*
X144607160Y-110455043D01*
X144495813Y-110068649D01*
X144423463Y-109686489D01*
X144390289Y-109309185D01*
X144396469Y-108937361D01*
X144433190Y-108539674D01*
X144506760Y-108026279D01*
X144608196Y-107524309D01*
X144736302Y-107038182D01*
X144889880Y-106572314D01*
X145067735Y-106131122D01*
X145268667Y-105719024D01*
X145350524Y-105568733D01*
X145540775Y-105238218D01*
X145734360Y-104926842D01*
X145742220Y-104915174D01*
X146052009Y-104915174D01*
X146063110Y-104935006D01*
X146071960Y-104947694D01*
X146099159Y-104994924D01*
X146138569Y-105068622D01*
X146187112Y-105162573D01*
X146241711Y-105270565D01*
X146299287Y-105386384D01*
X146356761Y-105503818D01*
X146411056Y-105616653D01*
X146459093Y-105718676D01*
X146497794Y-105803674D01*
X146524081Y-105865434D01*
X146535210Y-105894284D01*
X146558223Y-105961909D01*
X146576932Y-106032869D01*
X146592619Y-106114494D01*
X146606564Y-106214110D01*
X146620047Y-106339046D01*
X146634347Y-106496631D01*
X146634677Y-106500462D01*
X146646608Y-106620535D01*
X146660575Y-106708157D01*
X146679752Y-106770686D01*
X146707315Y-106815480D01*
X146746437Y-106849899D01*
X146800293Y-106881302D01*
X146818562Y-106890211D01*
X146881062Y-106911928D01*
X146959174Y-106925155D01*
X147065000Y-106932219D01*
X147087462Y-106932938D01*
X147175303Y-106932663D01*
X147242456Y-106927430D01*
X147279349Y-106917876D01*
X147301731Y-106897605D01*
X147340599Y-106851157D01*
X147382749Y-106792157D01*
X147409954Y-106745472D01*
X147438349Y-106678842D01*
X147460877Y-106599949D01*
X147477571Y-106506055D01*
X147488462Y-106394421D01*
X147493582Y-106262311D01*
X147492963Y-106106985D01*
X147486637Y-105925705D01*
X147474635Y-105715733D01*
X147456990Y-105474332D01*
X147433733Y-105198762D01*
X147404897Y-104886286D01*
X147400642Y-104842248D01*
X147389599Y-104733035D01*
X147379138Y-104636131D01*
X147370272Y-104560722D01*
X147364016Y-104515994D01*
X147346132Y-104416499D01*
X147314162Y-104251953D01*
X147284376Y-104116030D01*
X147257616Y-104012438D01*
X147234720Y-103944890D01*
X147225887Y-103924471D01*
X147205718Y-103886258D01*
X147180780Y-103865022D01*
X147139401Y-103853705D01*
X147069912Y-103845254D01*
X146941904Y-103831535D01*
X146736761Y-104038658D01*
X146716765Y-104058977D01*
X146637720Y-104141694D01*
X146565436Y-104220831D01*
X146507201Y-104288260D01*
X146470300Y-104335852D01*
X146431956Y-104389149D01*
X146373987Y-104464405D01*
X146315444Y-104536010D01*
X146258827Y-104605014D01*
X146190101Y-104692783D01*
X146128685Y-104774880D01*
X146118902Y-104788447D01*
X146076622Y-104849909D01*
X146055419Y-104889480D01*
X146052009Y-104915174D01*
X145742220Y-104915174D01*
X145928576Y-104638521D01*
X146120725Y-104377170D01*
X146308106Y-104146705D01*
X146488018Y-103951040D01*
X146565693Y-103870317D01*
X146621969Y-103806449D01*
X146651590Y-103765098D01*
X146652915Y-103748280D01*
X146626727Y-103740569D01*
X146503743Y-103701377D01*
X146393934Y-103661729D01*
X146310229Y-103626229D01*
X146281262Y-103611071D01*
X146245536Y-103584923D01*
X146213700Y-103547452D01*
X146179080Y-103490223D01*
X146135000Y-103404801D01*
X146116829Y-103367356D01*
X146072101Y-103270122D01*
X146020464Y-103152860D01*
X145966954Y-103027109D01*
X145916608Y-102904407D01*
X145852873Y-102745834D01*
X145747431Y-102484955D01*
X145653433Y-102254814D01*
X145568985Y-102051146D01*
X145492191Y-101869687D01*
X145421158Y-101706173D01*
X145353992Y-101556339D01*
X145288799Y-101415921D01*
X145223683Y-101280655D01*
X145156751Y-101146275D01*
X145086109Y-101008517D01*
X145009862Y-100863118D01*
X144946869Y-100744637D01*
X144832649Y-100533897D01*
X144731054Y-100353116D01*
X144639340Y-100198040D01*
X144554758Y-100064414D01*
X144474563Y-99947982D01*
X144396008Y-99844489D01*
X144316346Y-99749681D01*
X144232832Y-99659302D01*
X144195649Y-99619533D01*
X144143823Y-99559314D01*
X144108229Y-99511592D01*
X144095000Y-99484164D01*
X144097411Y-99468039D01*
X144125310Y-99422753D01*
X144173171Y-99386671D01*
X144226732Y-99371944D01*
X144228437Y-99371971D01*
X144271363Y-99385762D01*
X144330282Y-99426576D01*
X144409025Y-99497042D01*
X144471797Y-99560483D01*
X144561656Y-99663201D01*
X144654146Y-99783557D01*
X144751363Y-99924785D01*
X144855400Y-100090115D01*
X144968352Y-100282780D01*
X145092312Y-100506010D01*
X145229375Y-100763039D01*
X145300121Y-100898641D01*
X145378280Y-101051066D01*
X145450355Y-101195373D01*
X145518607Y-101336622D01*
X145585296Y-101479868D01*
X145652683Y-101630171D01*
X145723027Y-101792586D01*
X145798589Y-101972173D01*
X145881629Y-102173989D01*
X145974408Y-102403091D01*
X146079187Y-102664536D01*
X146086917Y-102683870D01*
X146139564Y-102814337D01*
X146191718Y-102941712D01*
X146239835Y-103057460D01*
X146280370Y-103153041D01*
X146309778Y-103219918D01*
X146380516Y-103374985D01*
X146571892Y-103436336D01*
X146640059Y-103457727D01*
X146778728Y-103498286D01*
X146927094Y-103537526D01*
X147092621Y-103577282D01*
X147282769Y-103619389D01*
X147505000Y-103665679D01*
X147578569Y-103681039D01*
X147727271Y-103713911D01*
X147879234Y-103749499D01*
X148020267Y-103784437D01*
X148136177Y-103815359D01*
X148251990Y-103847009D01*
X148392070Y-103883466D01*
X148529400Y-103917604D01*
X148646177Y-103944901D01*
X148730418Y-103964323D01*
X148845587Y-103992641D01*
X148952219Y-104020634D01*
X149035000Y-104044385D01*
X149084697Y-104058869D01*
X149177444Y-104083945D01*
X149291718Y-104113387D01*
X149417558Y-104144640D01*
X149545000Y-104175151D01*
X149684957Y-104208862D01*
X149871521Y-104256398D01*
X150053426Y-104305485D01*
X150224939Y-104354428D01*
X150380327Y-104401529D01*
X150513856Y-104445090D01*
X150619792Y-104483415D01*
X150692403Y-104514806D01*
X150692814Y-104515015D01*
X150752522Y-104550339D01*
X150816681Y-104599176D01*
X150889136Y-104665275D01*
X150973735Y-104752387D01*
X151074323Y-104864261D01*
X151194744Y-105004648D01*
X151244022Y-105061532D01*
X151326561Y-105146060D01*
X151402003Y-105203675D01*
X151479272Y-105239180D01*
X151567296Y-105257378D01*
X151675000Y-105263071D01*
X151728613Y-105261921D01*
X151842740Y-105250523D01*
X151941428Y-105229475D01*
X151989123Y-105213438D01*
X152040924Y-105186987D01*
X152076918Y-105150583D01*
X152099337Y-105098265D01*
X152110417Y-105024070D01*
X152112389Y-104922038D01*
X152107488Y-104786207D01*
X152104109Y-104728520D01*
X152075720Y-104487873D01*
X152023351Y-104268672D01*
X151943858Y-104060169D01*
X151834097Y-103851617D01*
X151830937Y-103846328D01*
X151787017Y-103779776D01*
X151735170Y-103715187D01*
X151671080Y-103648669D01*
X151590433Y-103576333D01*
X151488911Y-103494291D01*
X151362200Y-103398652D01*
X151205984Y-103285527D01*
X151032408Y-103164469D01*
X150702089Y-102950984D01*
X150363257Y-102754898D01*
X150005416Y-102570301D01*
X149618073Y-102391281D01*
X149496843Y-102335905D01*
X149375794Y-102276304D01*
X149268181Y-102218992D01*
X149179877Y-102167247D01*
X149116752Y-102124345D01*
X149084678Y-102093565D01*
X149081378Y-102083468D01*
X149073198Y-102042097D01*
X149064258Y-101982631D01*
X149064057Y-101981125D01*
X149059698Y-101948396D01*
X149058394Y-101920867D01*
X149063023Y-101894092D01*
X149076463Y-101863629D01*
X149101592Y-101825033D01*
X149141290Y-101773860D01*
X149198433Y-101705667D01*
X149275901Y-101616010D01*
X149376572Y-101500445D01*
X149524084Y-101324756D01*
X149722640Y-101061222D01*
X149889570Y-100800670D01*
X150028505Y-100536651D01*
X150143077Y-100262717D01*
X150236916Y-99972417D01*
X150248516Y-99930164D01*
X150287578Y-99758092D01*
X150307649Y-99598070D01*
X150310072Y-99433705D01*
X150296188Y-99248608D01*
X150287238Y-99172040D01*
X150236029Y-98870491D01*
X150160113Y-98589177D01*
X150057088Y-98323328D01*
X149924554Y-98068169D01*
X149760111Y-97818929D01*
X149561360Y-97570833D01*
X149325899Y-97319110D01*
X149287198Y-97280599D01*
X149004927Y-97016577D01*
X148730009Y-96789876D01*
X148460636Y-96599094D01*
X148195000Y-96442832D01*
X148044293Y-96367956D01*
X147857714Y-96291081D01*
X147696048Y-96244888D01*
X147559574Y-96229469D01*
X147474471Y-96222487D01*
X147409748Y-96197494D01*
X147380363Y-96154630D01*
X147386685Y-96094182D01*
X147413140Y-96046332D01*
X147462574Y-96011637D01*
X147537991Y-95995877D01*
X147645000Y-95996941D01*
X147752694Y-96011026D01*
X147911742Y-96052620D01*
X148088783Y-96121376D01*
X148288025Y-96218745D01*
X148523921Y-96353651D01*
X148766064Y-96514956D01*
X149006459Y-96699850D01*
X149250854Y-96912771D01*
X149505000Y-97158158D01*
X149662830Y-97323506D01*
X149880912Y-97579444D01*
X150063906Y-97834291D01*
X150214189Y-98092895D01*
X150334136Y-98360105D01*
X150426123Y-98640770D01*
X150492525Y-98939738D01*
X150535717Y-99261857D01*
X150545665Y-99388256D01*
X150548743Y-99539061D01*
X150538919Y-99681663D01*
X150514987Y-99830949D01*
X150475740Y-100001804D01*
X150425986Y-100177636D01*
X150298245Y-100521859D01*
X150132682Y-100859180D01*
X149930674Y-101186960D01*
X149693596Y-101502559D01*
X149549089Y-101678038D01*
X149697656Y-101596435D01*
X149762768Y-101562280D01*
X149907600Y-101493446D01*
X150082950Y-101417165D01*
X150283620Y-101335421D01*
X150504412Y-101250199D01*
X150740128Y-101163483D01*
X150985571Y-101077258D01*
X151235541Y-100993507D01*
X151484841Y-100914214D01*
X151663619Y-100862048D01*
X151930195Y-100793060D01*
X152210883Y-100729156D01*
X152490785Y-100673673D01*
X152755000Y-100629943D01*
X152851143Y-100612248D01*
X152923796Y-100588318D01*
X152960525Y-100559154D01*
X152963421Y-100523688D01*
X152962201Y-100518500D01*
X152955758Y-100477678D01*
X152944857Y-100398035D01*
X152929476Y-100279412D01*
X152909597Y-100121653D01*
X152885199Y-99924599D01*
X152856262Y-99688092D01*
X152822766Y-99411975D01*
X152818567Y-99374446D01*
X152811603Y-99296675D01*
X152805359Y-99203475D01*
X152799737Y-99091772D01*
X152794640Y-98958489D01*
X152789971Y-98800553D01*
X152785632Y-98614886D01*
X152781526Y-98398415D01*
X152777556Y-98148062D01*
X152773623Y-97860754D01*
X152772897Y-97805225D01*
X152769758Y-97582895D01*
X152766416Y-97371989D01*
X152762951Y-97176083D01*
X152759441Y-96998753D01*
X152755965Y-96843574D01*
X152752602Y-96714122D01*
X152749430Y-96613972D01*
X152746529Y-96546700D01*
X152743978Y-96515882D01*
X152739756Y-96487293D01*
X152747852Y-96443791D01*
X152783238Y-96399548D01*
X152826335Y-96368315D01*
X152885975Y-96360047D01*
X152943023Y-96390867D01*
X152945504Y-96393437D01*
X152955984Y-96411678D01*
X152965085Y-96442544D01*
X152972938Y-96488775D01*
X152979669Y-96553113D01*
X152985408Y-96638297D01*
X152990282Y-96747068D01*
X152994419Y-96882167D01*
X152997948Y-97046336D01*
X153000996Y-97242313D01*
X153003693Y-97472841D01*
X153006166Y-97740659D01*
X153007310Y-97864521D01*
X153009812Y-98080991D01*
X153012837Y-98289746D01*
X153016284Y-98486171D01*
X153020052Y-98665648D01*
X153024041Y-98823561D01*
X153028149Y-98955293D01*
X153032277Y-99056227D01*
X153036322Y-99121747D01*
X153038059Y-99141652D01*
X153051845Y-99284920D01*
X153069557Y-99450107D01*
X153090306Y-99630352D01*
X153113201Y-99818796D01*
X153137354Y-100008578D01*
X153161874Y-100192838D01*
X153185872Y-100364716D01*
X153208458Y-100517352D01*
X153228743Y-100643885D01*
X153245838Y-100737456D01*
X153271932Y-100849954D01*
X153314716Y-101006480D01*
X153369977Y-101189351D01*
X153435926Y-101393056D01*
X153510772Y-101612085D01*
X153592726Y-101840927D01*
X153679997Y-102074071D01*
X153702038Y-102131873D01*
X153746271Y-102248979D01*
X153787546Y-102359586D01*
X153822038Y-102453416D01*
X153845926Y-102520189D01*
X153872384Y-102589651D01*
X153916544Y-102691211D01*
X153960767Y-102780394D01*
X154035074Y-102915578D01*
X154144432Y-103108068D01*
X154243720Y-103273878D01*
X154336582Y-103419199D01*
X154440610Y-103581693D01*
X154526017Y-103728779D01*
X154595661Y-103866634D01*
X154655157Y-104005592D01*
X154672813Y-104048013D01*
X154712419Y-104136664D01*
X154764484Y-104248595D01*
X154825404Y-104376455D01*
X154891577Y-104512891D01*
X154959400Y-104650552D01*
X155025268Y-104782088D01*
X155085580Y-104900147D01*
X155136731Y-104997377D01*
X155175119Y-105066428D01*
X155191622Y-105096159D01*
X155234738Y-105182369D01*
X155288528Y-105298177D01*
X155350773Y-105438266D01*
X155419254Y-105597322D01*
X155491754Y-105770027D01*
X155566052Y-105951065D01*
X155639932Y-106135121D01*
X155711175Y-106316878D01*
X155777562Y-106491021D01*
X155836875Y-106652233D01*
X155842800Y-106668684D01*
X155896468Y-106815279D01*
X155940399Y-106929146D01*
X155977011Y-107015136D01*
X156008724Y-107078103D01*
X156037957Y-107122899D01*
X156067128Y-107154377D01*
X156098657Y-107177390D01*
X156122959Y-107189838D01*
X156205305Y-107216333D01*
X156309894Y-107235886D01*
X156424324Y-107247074D01*
X156536194Y-107248476D01*
X156633100Y-107238669D01*
X156674189Y-107227554D01*
X156761459Y-107175175D01*
X156832058Y-107087436D01*
X156884871Y-106965548D01*
X156884943Y-106965320D01*
X156898812Y-106918016D01*
X156907189Y-106875960D01*
X156910113Y-106830166D01*
X156907623Y-106771649D01*
X156899760Y-106691424D01*
X156886562Y-106580505D01*
X156875399Y-106497460D01*
X156855133Y-106364169D01*
X156830380Y-106214437D01*
X156803283Y-106061126D01*
X156775987Y-105917097D01*
X156774807Y-105911122D01*
X156750095Y-105784822D01*
X156727310Y-105666385D01*
X156707934Y-105563656D01*
X156693446Y-105484485D01*
X156685329Y-105436719D01*
X156674531Y-105384999D01*
X156653722Y-105304476D01*
X156626192Y-105207899D01*
X156595002Y-105106459D01*
X156592703Y-105099252D01*
X156556454Y-104983254D01*
X156514757Y-104846397D01*
X156472588Y-104705164D01*
X156434921Y-104576041D01*
X156416381Y-104513236D01*
X156374010Y-104377200D01*
X156324684Y-104225913D01*
X156273115Y-104073697D01*
X156224016Y-103934877D01*
X156192217Y-103846829D01*
X156143525Y-103707716D01*
X156107386Y-103595579D01*
X156082338Y-103503773D01*
X156066917Y-103425649D01*
X156059659Y-103354560D01*
X156059103Y-103283858D01*
X156063785Y-103206897D01*
X156070011Y-103147425D01*
X156073079Y-103124387D01*
X156318843Y-103124387D01*
X156318975Y-103124926D01*
X156331576Y-103136957D01*
X156364351Y-103132637D01*
X156425000Y-103110994D01*
X156430010Y-103109022D01*
X156530679Y-103073847D01*
X156659917Y-103034869D01*
X156807474Y-102994757D01*
X156928427Y-102964773D01*
X159235000Y-102964773D01*
X159245000Y-102974781D01*
X159255000Y-102964773D01*
X159245000Y-102954765D01*
X159235000Y-102964773D01*
X156928427Y-102964773D01*
X156963102Y-102956177D01*
X157116550Y-102921798D01*
X157257568Y-102894288D01*
X157290205Y-102888727D01*
X157420856Y-102870395D01*
X157564802Y-102856649D01*
X157730921Y-102846771D01*
X157928089Y-102840043D01*
X157950326Y-102839509D01*
X158194941Y-102837224D01*
X158411848Y-102842927D01*
X158611786Y-102857370D01*
X158805493Y-102881308D01*
X159003708Y-102915492D01*
X159062515Y-102926567D01*
X159136089Y-102939334D01*
X159187628Y-102946891D01*
X159208545Y-102947882D01*
X159201070Y-102939500D01*
X159166796Y-102912734D01*
X159110860Y-102872468D01*
X159039838Y-102823547D01*
X159022052Y-102811378D01*
X158815230Y-102649020D01*
X158615032Y-102454955D01*
X158428078Y-102236847D01*
X158260989Y-102002361D01*
X158120387Y-101759162D01*
X158005000Y-101533279D01*
X157775000Y-101548474D01*
X157650510Y-101555012D01*
X157492707Y-101560024D01*
X157323927Y-101562676D01*
X157154351Y-101562959D01*
X156994160Y-101560862D01*
X156853535Y-101556375D01*
X156742656Y-101549489D01*
X156580312Y-101535309D01*
X156567774Y-101642078D01*
X156567706Y-101642654D01*
X156558806Y-101704625D01*
X156543989Y-101793823D01*
X156525301Y-101898407D01*
X156504790Y-102006534D01*
X156485994Y-102105193D01*
X156461968Y-102235701D01*
X156435487Y-102382942D01*
X156408640Y-102535299D01*
X156383515Y-102681153D01*
X156376882Y-102720474D01*
X156356880Y-102842722D01*
X156340167Y-102950468D01*
X156327650Y-103037482D01*
X156320239Y-103097532D01*
X156318843Y-103124387D01*
X156073079Y-103124387D01*
X156084575Y-103038079D01*
X156105536Y-102898715D01*
X156132017Y-102734587D01*
X156163144Y-102550948D01*
X156198041Y-102353052D01*
X156235832Y-102146150D01*
X156275642Y-101935497D01*
X156286294Y-101879058D01*
X156305552Y-101771130D01*
X156321001Y-101676674D01*
X156331273Y-101604279D01*
X156335000Y-101562536D01*
X156329031Y-101521100D01*
X156304520Y-101492591D01*
X156254459Y-101478110D01*
X156171885Y-101473872D01*
X156164410Y-101473722D01*
X156096069Y-101467154D01*
X156000627Y-101452377D01*
X155888031Y-101431448D01*
X155768225Y-101406430D01*
X155651154Y-101379382D01*
X155546764Y-101352364D01*
X155465000Y-101327436D01*
X155436486Y-101317335D01*
X155331364Y-101277069D01*
X155212905Y-101228106D01*
X155089557Y-101174283D01*
X154969768Y-101119440D01*
X154861983Y-101067415D01*
X154774651Y-101022047D01*
X154716220Y-100987174D01*
X154674610Y-100956745D01*
X154578767Y-100876880D01*
X154477663Y-100782152D01*
X154380749Y-100682095D01*
X154297477Y-100586243D01*
X154237301Y-100504129D01*
X154235728Y-100501631D01*
X154176725Y-100401621D01*
X154111479Y-100281053D01*
X154045393Y-100150882D01*
X153983868Y-100022062D01*
X153932307Y-99905547D01*
X153896111Y-99812290D01*
X153877898Y-99754265D01*
X153844507Y-99595237D01*
X153831595Y-99419885D01*
X153834538Y-99330636D01*
X154087586Y-99330636D01*
X154089226Y-99431517D01*
X154093931Y-99528337D01*
X154103820Y-99612295D01*
X154121160Y-99691424D01*
X154148216Y-99773760D01*
X154187256Y-99867336D01*
X154240545Y-99980187D01*
X154310350Y-100120348D01*
X154332926Y-100164901D01*
X154392029Y-100277409D01*
X154442632Y-100364998D01*
X154490457Y-100436452D01*
X154541224Y-100500558D01*
X154600656Y-100566101D01*
X154701959Y-100663626D01*
X154856200Y-100782135D01*
X155035239Y-100887712D01*
X155246615Y-100985249D01*
X155343598Y-101024202D01*
X155497810Y-101080534D01*
X155651933Y-101128842D01*
X155812647Y-101170632D01*
X155986632Y-101207410D01*
X156180566Y-101240681D01*
X156401129Y-101271950D01*
X156655000Y-101302724D01*
X156747556Y-101311407D01*
X156873065Y-101319272D01*
X157011698Y-101324743D01*
X157157556Y-101327880D01*
X157304742Y-101328747D01*
X157447357Y-101327406D01*
X157579504Y-101323918D01*
X157695285Y-101318346D01*
X157788801Y-101310753D01*
X157854155Y-101301200D01*
X157885450Y-101289750D01*
X157888087Y-101276564D01*
X157881900Y-101233708D01*
X157865431Y-101174659D01*
X157831786Y-101073283D01*
X157668393Y-101072917D01*
X157601242Y-101071485D01*
X157408692Y-101056754D01*
X157184377Y-101026560D01*
X156931715Y-100981485D01*
X156654122Y-100922113D01*
X156355015Y-100849025D01*
X156300464Y-100834713D01*
X156063873Y-100766388D01*
X155863137Y-100696732D01*
X155694833Y-100624307D01*
X155555538Y-100547676D01*
X155441828Y-100465400D01*
X155439958Y-100463836D01*
X155383332Y-100418746D01*
X155309881Y-100363084D01*
X155235000Y-100308528D01*
X155157913Y-100248334D01*
X155037991Y-100139132D01*
X154904731Y-100002755D01*
X154761974Y-99843530D01*
X154613562Y-99665787D01*
X154463337Y-99473854D01*
X154315140Y-99272061D01*
X154259808Y-99195202D01*
X154197290Y-99112371D01*
X154152402Y-99059207D01*
X154122989Y-99033223D01*
X154106895Y-99031935D01*
X154099360Y-99051384D01*
X154092055Y-99110266D01*
X154088071Y-99204265D01*
X154087586Y-99330636D01*
X153834538Y-99330636D01*
X153838230Y-99218654D01*
X153850697Y-99096893D01*
X153877987Y-98957893D01*
X153917939Y-98853696D01*
X153971873Y-98782053D01*
X154041113Y-98740716D01*
X154126979Y-98727436D01*
X154161780Y-98730298D01*
X154212020Y-98747378D01*
X154263304Y-98783459D01*
X154320016Y-98842655D01*
X154386537Y-98929079D01*
X154467249Y-99046844D01*
X154517394Y-99122056D01*
X154627237Y-99282178D01*
X154723970Y-99415565D01*
X154811964Y-99528123D01*
X154895587Y-99625756D01*
X154985000Y-99725142D01*
X154985401Y-99493499D01*
X154985409Y-99489303D01*
X154986311Y-99408987D01*
X155214866Y-99408987D01*
X155215815Y-99469059D01*
X155218986Y-99547082D01*
X155219459Y-99556195D01*
X155226764Y-99648970D01*
X155240156Y-99721031D01*
X155264250Y-99790210D01*
X155303659Y-99874341D01*
X155316670Y-99899238D01*
X155372281Y-99992185D01*
X155439817Y-100091223D01*
X155507485Y-100178740D01*
X155542539Y-100219803D01*
X155601866Y-100283252D01*
X155657303Y-100329707D01*
X155722038Y-100369384D01*
X155809259Y-100412499D01*
X155830874Y-100422448D01*
X155936234Y-100467266D01*
X156047533Y-100509971D01*
X156144001Y-100542498D01*
X156165315Y-100548871D01*
X156350328Y-100600730D01*
X156550276Y-100651429D01*
X156756328Y-100699099D01*
X156959656Y-100741872D01*
X157151430Y-100777878D01*
X157322821Y-100805249D01*
X157465000Y-100822116D01*
X157539020Y-100829004D01*
X157625456Y-100837789D01*
X157692505Y-100845389D01*
X157780010Y-100856315D01*
X157765506Y-100739622D01*
X157758387Y-100688075D01*
X157749083Y-100634583D01*
X157741822Y-100607917D01*
X157727401Y-100601581D01*
X157682221Y-100595156D01*
X157618820Y-100592509D01*
X157563469Y-100590810D01*
X157466571Y-100583738D01*
X157375000Y-100573111D01*
X157359995Y-100570787D01*
X157268010Y-100552984D01*
X157156635Y-100527110D01*
X157035626Y-100495879D01*
X156914740Y-100462002D01*
X156803734Y-100428194D01*
X156712365Y-100397167D01*
X156650390Y-100371633D01*
X156617200Y-100355959D01*
X156536775Y-100321542D01*
X156457007Y-100290962D01*
X156413353Y-100274553D01*
X156238403Y-100192517D01*
X156050875Y-100081505D01*
X155857001Y-99945793D01*
X155663015Y-99789658D01*
X155475150Y-99617376D01*
X155405170Y-99549130D01*
X155332092Y-99478539D01*
X155273305Y-99422512D01*
X155233547Y-99385557D01*
X155217554Y-99372183D01*
X155216213Y-99375882D01*
X155214866Y-99408987D01*
X154986311Y-99408987D01*
X154986568Y-99386078D01*
X154990580Y-99312113D01*
X154999011Y-99257015D01*
X155013429Y-99210390D01*
X155035401Y-99161842D01*
X155065405Y-99107943D01*
X155121116Y-99041611D01*
X155180328Y-99014301D01*
X155244322Y-99026028D01*
X155314379Y-99076811D01*
X155391778Y-99166667D01*
X155433997Y-99221159D01*
X155588033Y-99394310D01*
X155769821Y-99566961D01*
X155970959Y-99731531D01*
X156183047Y-99880443D01*
X156234395Y-99912266D01*
X156324099Y-99962469D01*
X156409535Y-100004383D01*
X156483295Y-100034767D01*
X156537971Y-100050382D01*
X156566155Y-100047988D01*
X156570751Y-100034430D01*
X156579049Y-99987506D01*
X156588388Y-99916055D01*
X156597488Y-99829028D01*
X156602553Y-99776162D01*
X156613599Y-99665817D01*
X156627082Y-99535259D01*
X156641748Y-99396576D01*
X156656343Y-99261857D01*
X156684474Y-98994199D01*
X156711077Y-98706138D01*
X156730871Y-98441794D01*
X156744389Y-98192732D01*
X156752165Y-97950519D01*
X156754732Y-97706722D01*
X156753972Y-97565107D01*
X156746635Y-97265174D01*
X156731866Y-96980884D01*
X156710104Y-96716252D01*
X156681785Y-96475295D01*
X156647347Y-96262029D01*
X156607226Y-96080472D01*
X156561860Y-95934639D01*
X156554112Y-95913728D01*
X156540757Y-95866999D01*
X156543643Y-95834570D01*
X156562898Y-95799533D01*
X156586220Y-95772929D01*
X156640651Y-95748931D01*
X156700000Y-95758626D01*
X156753591Y-95801883D01*
X156788258Y-95861587D01*
X156826158Y-95965378D01*
X156861246Y-96103449D01*
X156893095Y-96272741D01*
X156921276Y-96470195D01*
X156945359Y-96692752D01*
X156964917Y-96937354D01*
X156979522Y-97200941D01*
X156988744Y-97480454D01*
X156990562Y-97571311D01*
X156992494Y-97743427D01*
X156991805Y-97905363D01*
X156988227Y-98067124D01*
X156981495Y-98238711D01*
X156971341Y-98430127D01*
X156957498Y-98651376D01*
X156946579Y-98816922D01*
X156931232Y-99048422D01*
X156918026Y-99245323D01*
X156906692Y-99410901D01*
X156896964Y-99548436D01*
X156888574Y-99661204D01*
X156881256Y-99752483D01*
X156874741Y-99825552D01*
X156868762Y-99883688D01*
X156863053Y-99930170D01*
X156857346Y-99968274D01*
X156851372Y-100001280D01*
X156844866Y-100032464D01*
X156840733Y-100051298D01*
X156825577Y-100121490D01*
X156819145Y-100162699D01*
X156822218Y-100183451D01*
X156835576Y-100192272D01*
X156860001Y-100197691D01*
X156871611Y-100200460D01*
X156922645Y-100214124D01*
X156995605Y-100234755D01*
X157078781Y-100259069D01*
X157120543Y-100270746D01*
X157231653Y-100297670D01*
X157353741Y-100323021D01*
X157467075Y-100342557D01*
X157562823Y-100355952D01*
X157635847Y-100362082D01*
X157680691Y-100357037D01*
X157703232Y-100338595D01*
X157709345Y-100304536D01*
X157704907Y-100252637D01*
X157699253Y-100208764D01*
X157689437Y-100133809D01*
X157677069Y-100040086D01*
X157663564Y-99938348D01*
X157661110Y-99919658D01*
X157651560Y-99838558D01*
X157644965Y-99761343D01*
X157641221Y-99680703D01*
X157640223Y-99589332D01*
X157641865Y-99479922D01*
X157646044Y-99345164D01*
X157651588Y-99204730D01*
X157889084Y-99204730D01*
X157889903Y-99437951D01*
X157898641Y-99688872D01*
X157914568Y-99947896D01*
X157936960Y-100205429D01*
X157965088Y-100451876D01*
X157998226Y-100677640D01*
X158032428Y-100856315D01*
X158035646Y-100873126D01*
X158117112Y-101163120D01*
X158162392Y-101276564D01*
X158233784Y-101455429D01*
X158380311Y-101736303D01*
X158553193Y-102000417D01*
X158748934Y-102242441D01*
X158964036Y-102457050D01*
X159195000Y-102638915D01*
X159258974Y-102682459D01*
X159397650Y-102772048D01*
X159527304Y-102847152D01*
X159656016Y-102911276D01*
X159743807Y-102947882D01*
X159784316Y-102964773D01*
X159791868Y-102967922D01*
X159942940Y-103020596D01*
X160117313Y-103072800D01*
X160323068Y-103128039D01*
X160340201Y-103132457D01*
X160448782Y-103159533D01*
X160536756Y-103178544D01*
X160616243Y-103191036D01*
X160699366Y-103198559D01*
X160798244Y-103202658D01*
X160925000Y-103204882D01*
X161063835Y-103205748D01*
X161308593Y-103202947D01*
X161538361Y-103194785D01*
X161748169Y-103181607D01*
X161933049Y-103163761D01*
X162088031Y-103141592D01*
X162208147Y-103115446D01*
X162251920Y-103101901D01*
X162362476Y-103060336D01*
X162496654Y-103002648D01*
X162647542Y-102932221D01*
X162808231Y-102852437D01*
X162971810Y-102766680D01*
X163131367Y-102678331D01*
X163279993Y-102590774D01*
X163419414Y-102502053D01*
X163584440Y-102383448D01*
X163727053Y-102260820D01*
X163853672Y-102127205D01*
X163970715Y-101975640D01*
X164084601Y-101799161D01*
X164177231Y-101634412D01*
X164456899Y-101634412D01*
X164584263Y-101739151D01*
X164650882Y-101791157D01*
X164769082Y-101875011D01*
X164900466Y-101960671D01*
X165034025Y-102041314D01*
X165158754Y-102110117D01*
X165263643Y-102160257D01*
X165317762Y-102181268D01*
X165415022Y-102214605D01*
X165525309Y-102248802D01*
X165633643Y-102279049D01*
X165653830Y-102284285D01*
X165731499Y-102303536D01*
X165799552Y-102317874D01*
X165866258Y-102328138D01*
X165939887Y-102335171D01*
X166028707Y-102339812D01*
X166140989Y-102342903D01*
X166285000Y-102345285D01*
X166287158Y-102345316D01*
X166509721Y-102346381D01*
X166700094Y-102341977D01*
X166865795Y-102330870D01*
X167014346Y-102311825D01*
X167153264Y-102283610D01*
X167290069Y-102244991D01*
X167432280Y-102194734D01*
X167587416Y-102131605D01*
X167645224Y-102106315D01*
X167792416Y-102033373D01*
X167916771Y-101955308D01*
X168030714Y-101863641D01*
X168146666Y-101749891D01*
X168228857Y-101660352D01*
X168321556Y-101547552D01*
X168395878Y-101438985D01*
X168460032Y-101323480D01*
X168477770Y-101286387D01*
X168537786Y-101130042D01*
X168588739Y-100949376D01*
X168629120Y-100754391D01*
X168657422Y-100555090D01*
X168672139Y-100361475D01*
X168671762Y-100183550D01*
X168654783Y-100031316D01*
X168650215Y-100009615D01*
X168629659Y-99936453D01*
X168601876Y-99859338D01*
X168569923Y-99784183D01*
X168536861Y-99716900D01*
X168505749Y-99663399D01*
X168479646Y-99629593D01*
X168461612Y-99621392D01*
X168454706Y-99644710D01*
X168449321Y-99679006D01*
X168431016Y-99747129D01*
X168402477Y-99837454D01*
X168366549Y-99941999D01*
X168326078Y-100052780D01*
X168283911Y-100161814D01*
X168242893Y-100261118D01*
X168205870Y-100342708D01*
X168194141Y-100366478D01*
X168187225Y-100380495D01*
X168025235Y-100667731D01*
X167843601Y-100920720D01*
X167641040Y-101140703D01*
X167416274Y-101328923D01*
X167168021Y-101486624D01*
X166895000Y-101615047D01*
X166800779Y-101650738D01*
X166566734Y-101720144D01*
X166341677Y-101756608D01*
X166117227Y-101761121D01*
X165885000Y-101734677D01*
X165806555Y-101720030D01*
X165673749Y-101692359D01*
X165523779Y-101658569D01*
X165364695Y-101620682D01*
X165204548Y-101580721D01*
X165051387Y-101540708D01*
X164913261Y-101502665D01*
X164798222Y-101468614D01*
X164714318Y-101440578D01*
X164701546Y-101435881D01*
X164635530Y-101413013D01*
X164587544Y-101398726D01*
X164567227Y-101395945D01*
X164558057Y-101413293D01*
X164536850Y-101457925D01*
X164508918Y-101518978D01*
X164456899Y-101634412D01*
X164177231Y-101634412D01*
X164201749Y-101590804D01*
X164233059Y-101530451D01*
X164305380Y-101376629D01*
X164376014Y-101204362D01*
X164378869Y-101196492D01*
X164776389Y-101196492D01*
X164799414Y-101212548D01*
X164805720Y-101215954D01*
X164850654Y-101232976D01*
X164926500Y-101256764D01*
X165026972Y-101285668D01*
X165145785Y-101318035D01*
X165276654Y-101352217D01*
X165413296Y-101386561D01*
X165549424Y-101419416D01*
X165678754Y-101449133D01*
X165795000Y-101474060D01*
X165828895Y-101480838D01*
X165940514Y-101501267D01*
X166043925Y-101517560D01*
X166128846Y-101528199D01*
X166185000Y-101531666D01*
X166292106Y-101524939D01*
X166498539Y-101488524D01*
X166713285Y-101424051D01*
X166927900Y-101335232D01*
X167133937Y-101225777D01*
X167322951Y-101099398D01*
X167486495Y-100959804D01*
X167504297Y-100941791D01*
X167566805Y-100872283D01*
X167636027Y-100788169D01*
X167705269Y-100698322D01*
X167767836Y-100611615D01*
X167817034Y-100536919D01*
X167846169Y-100483107D01*
X167852529Y-100466404D01*
X167872193Y-100366478D01*
X167869841Y-100256224D01*
X167847718Y-100147686D01*
X167808069Y-100052905D01*
X167753137Y-99983927D01*
X167740755Y-99973803D01*
X167699333Y-99944265D01*
X167673466Y-99932385D01*
X167665954Y-99941877D01*
X167658062Y-99981504D01*
X167655000Y-100041487D01*
X167654414Y-100077189D01*
X167628717Y-100275575D01*
X167566022Y-100460799D01*
X167467756Y-100629572D01*
X167335345Y-100778605D01*
X167191078Y-100899194D01*
X166997146Y-101023804D01*
X166784894Y-101120029D01*
X166571822Y-101183370D01*
X166549230Y-101190086D01*
X166285064Y-101236193D01*
X166269917Y-101238016D01*
X166136809Y-101249992D01*
X165982467Y-101258046D01*
X165813687Y-101262342D01*
X165637263Y-101263041D01*
X165459992Y-101260305D01*
X165288668Y-101254296D01*
X165130087Y-101245175D01*
X164991044Y-101233106D01*
X164878334Y-101218249D01*
X164798754Y-101200767D01*
X164787269Y-101197319D01*
X164776389Y-101196492D01*
X164378869Y-101196492D01*
X164383628Y-101183370D01*
X164715000Y-101183370D01*
X164725000Y-101193378D01*
X164735000Y-101183370D01*
X164725000Y-101173362D01*
X164715000Y-101183370D01*
X164383628Y-101183370D01*
X164447731Y-101006640D01*
X164523298Y-100776449D01*
X164554438Y-100675441D01*
X164623349Y-100428521D01*
X164675118Y-100200391D01*
X164712112Y-99979719D01*
X164736700Y-99755168D01*
X164737747Y-99742154D01*
X164745454Y-99606083D01*
X164749799Y-99446958D01*
X164750942Y-99273783D01*
X164749047Y-99095561D01*
X164744275Y-98921295D01*
X164736789Y-98759989D01*
X164726751Y-98620646D01*
X164714322Y-98512268D01*
X164707130Y-98449012D01*
X164704328Y-98281389D01*
X164720007Y-98079989D01*
X164754056Y-97845948D01*
X164806362Y-97580402D01*
X164817031Y-97531591D01*
X164845079Y-97403306D01*
X164872690Y-97277067D01*
X164897161Y-97165226D01*
X164915790Y-97080139D01*
X164952523Y-96870608D01*
X164968102Y-96623771D01*
X164948983Y-96388822D01*
X164894187Y-96160178D01*
X164802734Y-95932257D01*
X164673646Y-95699475D01*
X164612073Y-95608598D01*
X164460098Y-95428683D01*
X164282235Y-95266286D01*
X164084489Y-95124942D01*
X163872865Y-95008186D01*
X163653366Y-94919551D01*
X163431999Y-94862572D01*
X163214766Y-94840783D01*
X163179354Y-94840433D01*
X163100678Y-94842452D01*
X163040389Y-94851494D01*
X162982604Y-94870860D01*
X162911440Y-94903855D01*
X162849583Y-94939375D01*
X162731075Y-95031660D01*
X162604555Y-95158422D01*
X162471961Y-95317092D01*
X162335230Y-95505101D01*
X162196299Y-95719879D01*
X162057106Y-95958855D01*
X161919588Y-96219461D01*
X161910373Y-96237585D01*
X161848506Y-96346610D01*
X161793026Y-96419429D01*
X161741662Y-96458505D01*
X161692145Y-96466303D01*
X161661158Y-96454352D01*
X161622789Y-96412660D01*
X161603648Y-96356229D01*
X161611086Y-96300129D01*
X161618604Y-96280820D01*
X161616223Y-96264976D01*
X161594991Y-96253696D01*
X161547980Y-96243655D01*
X161468264Y-96231525D01*
X161433657Y-96226821D01*
X161327306Y-96214688D01*
X161208713Y-96203599D01*
X161097691Y-96195482D01*
X160890382Y-96183145D01*
X160904451Y-96285519D01*
X160908606Y-96318568D01*
X160909935Y-96369321D01*
X160897561Y-96404091D01*
X160867669Y-96438784D01*
X160827070Y-96473344D01*
X160777425Y-96492624D01*
X160736592Y-96475954D01*
X160703763Y-96422412D01*
X160678125Y-96331075D01*
X160658870Y-96201019D01*
X160654327Y-96162848D01*
X160623686Y-95993148D01*
X160574852Y-95828582D01*
X160504695Y-95661454D01*
X160410085Y-95484068D01*
X160287893Y-95288729D01*
X160239143Y-95216047D01*
X160176121Y-95126665D01*
X160124826Y-95061500D01*
X160080133Y-95014218D01*
X160036917Y-94978484D01*
X160029798Y-94973334D01*
X159876105Y-94871638D01*
X159726478Y-94793393D01*
X159574002Y-94737044D01*
X159411760Y-94701033D01*
X159232835Y-94683803D01*
X159030311Y-94683799D01*
X158797271Y-94699462D01*
X158733325Y-94705862D01*
X158543058Y-94733303D01*
X158387605Y-94771163D01*
X158263652Y-94821029D01*
X158167883Y-94884489D01*
X158096982Y-94963133D01*
X158047634Y-95058547D01*
X158025498Y-95123607D01*
X157984389Y-95296941D01*
X157956315Y-95501267D01*
X157941366Y-95731788D01*
X157939633Y-95983710D01*
X157951204Y-96252239D01*
X157976171Y-96532578D01*
X158014622Y-96819934D01*
X158020576Y-96860240D01*
X158035831Y-96980024D01*
X158051062Y-97119695D01*
X158064781Y-97265031D01*
X158075499Y-97401813D01*
X158081662Y-97494057D01*
X158087639Y-97597269D01*
X158090036Y-97674303D01*
X158088557Y-97733236D01*
X158082907Y-97782144D01*
X158072789Y-97829104D01*
X158057908Y-97882192D01*
X158023128Y-98015563D01*
X157981261Y-98225638D01*
X157945554Y-98466804D01*
X157916712Y-98734111D01*
X157895439Y-99022610D01*
X157889084Y-99204730D01*
X157651588Y-99204730D01*
X157652653Y-99177749D01*
X157656967Y-99081801D01*
X157672829Y-98815644D01*
X157693838Y-98576850D01*
X157721095Y-98356036D01*
X157755697Y-98143817D01*
X157798746Y-97930809D01*
X157814911Y-97848077D01*
X157833998Y-97696608D01*
X157840791Y-97533350D01*
X157835214Y-97351754D01*
X157817190Y-97145267D01*
X157786640Y-96907338D01*
X157777075Y-96840063D01*
X157741803Y-96571103D01*
X157715897Y-96331851D01*
X157698752Y-96114980D01*
X157689760Y-95913161D01*
X157688315Y-95719067D01*
X157688374Y-95713970D01*
X157698137Y-95473458D01*
X157722538Y-95266835D01*
X157763580Y-95090075D01*
X157823269Y-94939151D01*
X157903609Y-94810035D01*
X158006605Y-94698700D01*
X158134262Y-94601120D01*
X158288584Y-94513266D01*
X158308912Y-94503160D01*
X158401926Y-94460005D01*
X158486122Y-94428510D01*
X158569585Y-94407556D01*
X158660401Y-94396023D01*
X158766655Y-94392792D01*
X158896433Y-94396743D01*
X159057818Y-94406757D01*
X159194076Y-94418561D01*
X159447536Y-94455261D01*
X159671211Y-94510503D01*
X159869847Y-94586286D01*
X160048193Y-94684613D01*
X160210994Y-94807483D01*
X160362998Y-94956898D01*
X160391664Y-94989203D01*
X160540705Y-95181923D01*
X160669550Y-95391064D01*
X160772477Y-95606381D01*
X160843767Y-95817635D01*
X160858311Y-95871749D01*
X160872269Y-95919577D01*
X160879695Y-95939675D01*
X160886276Y-95941007D01*
X160924524Y-95944695D01*
X160988808Y-95949307D01*
X161070000Y-95954148D01*
X161082494Y-95954803D01*
X161177542Y-95957308D01*
X161235439Y-95953482D01*
X161255001Y-95943394D01*
X161254658Y-95939127D01*
X161239504Y-95896870D01*
X161204655Y-95829963D01*
X161153933Y-95744609D01*
X161091161Y-95647012D01*
X161020161Y-95543374D01*
X160944755Y-95439898D01*
X160940496Y-95434267D01*
X160858686Y-95331864D01*
X160760254Y-95216811D01*
X160657206Y-95102783D01*
X160561548Y-95003454D01*
X160540539Y-94982805D01*
X160410565Y-94862766D01*
X160261813Y-94736016D01*
X160102071Y-94608445D01*
X159939130Y-94485943D01*
X159780779Y-94374399D01*
X159634810Y-94279702D01*
X159509013Y-94207742D01*
X159435630Y-94169120D01*
X159360604Y-94128288D01*
X159304224Y-94096080D01*
X159275000Y-94077243D01*
X159245797Y-94058781D01*
X159195000Y-94037555D01*
X159184918Y-94034182D01*
X159136900Y-94015911D01*
X159063297Y-93986356D01*
X158972134Y-93948771D01*
X158871434Y-93906409D01*
X158834922Y-93890969D01*
X158714457Y-93841413D01*
X158602626Y-93798249D01*
X158491498Y-93758889D01*
X158373146Y-93720741D01*
X158239639Y-93681218D01*
X158083049Y-93637729D01*
X157895445Y-93587685D01*
X157672116Y-93531985D01*
X157339926Y-93458282D01*
X156983568Y-93388363D01*
X156612158Y-93323697D01*
X156234810Y-93265751D01*
X155860641Y-93215994D01*
X155498766Y-93175893D01*
X155158302Y-93146916D01*
X155144058Y-93145908D01*
X155039581Y-93138002D01*
X154945589Y-93130062D01*
X154871892Y-93122961D01*
X154828302Y-93117571D01*
X154814484Y-93115482D01*
X154740065Y-93107620D01*
X154631953Y-93099547D01*
X154495097Y-93091439D01*
X154334450Y-93083470D01*
X154154963Y-93075814D01*
X153961585Y-93068646D01*
X153759270Y-93062140D01*
X153552967Y-93056471D01*
X153347628Y-93051814D01*
X153148204Y-93048341D01*
X152959646Y-93046229D01*
X152786906Y-93045651D01*
X152735347Y-93045756D01*
X152469444Y-93047421D01*
X152235978Y-93051249D01*
X152028566Y-93057704D01*
X151840821Y-93067251D01*
X151666357Y-93080356D01*
X151498791Y-93097482D01*
X151331735Y-93119095D01*
X151158806Y-93145660D01*
X150973617Y-93177641D01*
X150830552Y-93203816D01*
X150572540Y-93253841D01*
X150341197Y-93303471D01*
X150127807Y-93355184D01*
X149923651Y-93411461D01*
X149720010Y-93474781D01*
X149508167Y-93547622D01*
X149279403Y-93632465D01*
X149025000Y-93731787D01*
X148673275Y-93873619D01*
X148284465Y-94036041D01*
X147926679Y-94192380D01*
X147595684Y-94344649D01*
X147287250Y-94494857D01*
X146997146Y-94645017D01*
X146721140Y-94797139D01*
X146455000Y-94953234D01*
X146411043Y-94979903D01*
X146231056Y-95090845D01*
X146041719Y-95210027D01*
X145847873Y-95334229D01*
X145654357Y-95460229D01*
X145466012Y-95584807D01*
X145287677Y-95704743D01*
X145124193Y-95816816D01*
X144980398Y-95917805D01*
X144861134Y-96004490D01*
X144771239Y-96073650D01*
X144724293Y-96110967D01*
X144619095Y-96192329D01*
X144498765Y-96283215D01*
X144374765Y-96375008D01*
X144258554Y-96459094D01*
X144158292Y-96531186D01*
X143841392Y-96768301D01*
X143544738Y-97006130D01*
X143258338Y-97253202D01*
X142972196Y-97518042D01*
X142676320Y-97809179D01*
X142570578Y-97916497D01*
X142431179Y-98059335D01*
X142289240Y-98206129D01*
X142148161Y-98353268D01*
X142011341Y-98497142D01*
X141882180Y-98634142D01*
X141764078Y-98760659D01*
X141660435Y-98873082D01*
X141574650Y-98967803D01*
X141510123Y-99041211D01*
X141470254Y-99089697D01*
X141463818Y-99098114D01*
X141414547Y-99160277D01*
X141348292Y-99241348D01*
X141272932Y-99331770D01*
X141196347Y-99421983D01*
X141179817Y-99441335D01*
X141071108Y-99573946D01*
X140973416Y-99704405D01*
X140881659Y-99840611D01*
X140790755Y-99990466D01*
X140695621Y-100161870D01*
X140591175Y-100362724D01*
X140590828Y-100363406D01*
X140529300Y-100483268D01*
X140468255Y-100599860D01*
X140412041Y-100705047D01*
X140365006Y-100790693D01*
X140331497Y-100848661D01*
X140267697Y-100958707D01*
X140181517Y-101120676D01*
X140090478Y-101304006D01*
X139998849Y-101499544D01*
X139910897Y-101698136D01*
X139830890Y-101890629D01*
X139763095Y-102067867D01*
X139757814Y-102082533D01*
X139661486Y-102375725D01*
X139570532Y-102700726D01*
X139486660Y-103049879D01*
X139411580Y-103415531D01*
X139347001Y-103790029D01*
X139294632Y-104165718D01*
X139288737Y-104218842D01*
X139277403Y-104348689D01*
X139266684Y-104506284D01*
X139256734Y-104685984D01*
X139247702Y-104882147D01*
X139239743Y-105089131D01*
X139233007Y-105301294D01*
X139227646Y-105512995D01*
X139223814Y-105718590D01*
X139221661Y-105912439D01*
X139221339Y-106088898D01*
X139004336Y-106088898D01*
X139004254Y-106084120D01*
X139001245Y-105728963D01*
X139002027Y-105401471D01*
X139006795Y-105098516D01*
X139015740Y-104816973D01*
X139029057Y-104553713D01*
X139046939Y-104305612D01*
X139069580Y-104069541D01*
X139097173Y-103842375D01*
X139129911Y-103620987D01*
X139167989Y-103402251D01*
X139211599Y-103183039D01*
X139260936Y-102960225D01*
X139316192Y-102730682D01*
X139357614Y-102568779D01*
X139416510Y-102356218D01*
X139476899Y-102161516D01*
X139542878Y-101971710D01*
X139618543Y-101773835D01*
X139634387Y-101734573D01*
X139688164Y-101607646D01*
X139751521Y-101465272D01*
X139820867Y-101314925D01*
X139892610Y-101164082D01*
X139963162Y-101020218D01*
X140028931Y-100890808D01*
X140086327Y-100783328D01*
X140131761Y-100705254D01*
X140132154Y-100704627D01*
X140165876Y-100647304D01*
X140213022Y-100562312D01*
X140269264Y-100457698D01*
X140330275Y-100341510D01*
X140391728Y-100221794D01*
X140466892Y-100075768D01*
X140539916Y-99940082D01*
X140611102Y-99816158D01*
X140684079Y-99698858D01*
X140762476Y-99583040D01*
X140849922Y-99463565D01*
X140950045Y-99335292D01*
X141066474Y-99193081D01*
X141202838Y-99031792D01*
X141362765Y-98846285D01*
X141378066Y-98828785D01*
X141450174Y-98748385D01*
X141544743Y-98645238D01*
X141657421Y-98523917D01*
X141783855Y-98388999D01*
X141919693Y-98245056D01*
X142060582Y-98096664D01*
X142202171Y-97948398D01*
X142340106Y-97804831D01*
X142470035Y-97670538D01*
X142587606Y-97550094D01*
X142688467Y-97448074D01*
X142768264Y-97369051D01*
X142878212Y-97264269D01*
X143146788Y-97023380D01*
X143445670Y-96773852D01*
X143770020Y-96519651D01*
X144115000Y-96264745D01*
X144129983Y-96253973D01*
X144244691Y-96170582D01*
X144357157Y-96087367D01*
X144459771Y-96010053D01*
X144544922Y-95944367D01*
X144605000Y-95896035D01*
X144641492Y-95865581D01*
X144697601Y-95819690D01*
X144752755Y-95776266D01*
X144811275Y-95732284D01*
X144877480Y-95684724D01*
X144955691Y-95630564D01*
X145050229Y-95566782D01*
X145165413Y-95490356D01*
X145305563Y-95398263D01*
X145475000Y-95287483D01*
X145512966Y-95262719D01*
X145831559Y-95057278D01*
X146126194Y-94872284D01*
X146403084Y-94704497D01*
X146668442Y-94550679D01*
X146928483Y-94407588D01*
X147189419Y-94271985D01*
X147457463Y-94140631D01*
X147738831Y-94010285D01*
X148039734Y-93877709D01*
X148366386Y-93739662D01*
X148725000Y-93592904D01*
X148853240Y-93541362D01*
X149003339Y-93481661D01*
X149147285Y-93425025D01*
X149277356Y-93374472D01*
X149385834Y-93333017D01*
X149465000Y-93303680D01*
X149595347Y-93259130D01*
X149856054Y-93180724D01*
X150144673Y-93105619D01*
X150453449Y-93035414D01*
X150774626Y-92971710D01*
X151100447Y-92916104D01*
X151423157Y-92870197D01*
X151735000Y-92835588D01*
X151768452Y-92832536D01*
X151859608Y-92825154D01*
X151952186Y-92819302D01*
X152051006Y-92814902D01*
X152160891Y-92811878D01*
X152286659Y-92810153D01*
X152433134Y-92809650D01*
X152605135Y-92810293D01*
X152807483Y-92812004D01*
X153045000Y-92814706D01*
X153050864Y-92814779D01*
X153423560Y-92820093D01*
X153756894Y-92826302D01*
X154051486Y-92833431D01*
X154307955Y-92841500D01*
X154526922Y-92850532D01*
X154709005Y-92860549D01*
X154854825Y-92871574D01*
X154965000Y-92883629D01*
X155032832Y-92892099D01*
X155140369Y-92903997D01*
X155259614Y-92915967D01*
X155375000Y-92926386D01*
X155376398Y-92926503D01*
X155511213Y-92938807D01*
X155663021Y-92954254D01*
X155824723Y-92971973D01*
X155989216Y-92991094D01*
X156149398Y-93010745D01*
X156298170Y-93030055D01*
X156428428Y-93048153D01*
X156533072Y-93064170D01*
X156605000Y-93077233D01*
X156646965Y-93085724D01*
X156735416Y-93102503D01*
X156846439Y-93122707D01*
X156969960Y-93144512D01*
X157095902Y-93166094D01*
X157108432Y-93168219D01*
X157327832Y-93209208D01*
X157562649Y-93259413D01*
X157805020Y-93316732D01*
X158047082Y-93379061D01*
X158280974Y-93444300D01*
X158498833Y-93510345D01*
X158692796Y-93575095D01*
X158855000Y-93636446D01*
X158921576Y-93664288D01*
X159059129Y-93724394D01*
X159205677Y-93791215D01*
X159353574Y-93861050D01*
X159495173Y-93930197D01*
X159622827Y-93994958D01*
X159728890Y-94051631D01*
X159805714Y-94096517D01*
X159955507Y-94194954D01*
X160197792Y-94369147D01*
X160433132Y-94556139D01*
X160656519Y-94751258D01*
X160862946Y-94949830D01*
X161047407Y-95147181D01*
X161204894Y-95338639D01*
X161330400Y-95519530D01*
X161356629Y-95562422D01*
X161418951Y-95668996D01*
X161473358Y-95768439D01*
X161516442Y-95854104D01*
X161544793Y-95919342D01*
X161551226Y-95943394D01*
X161555000Y-95957505D01*
G37*
%TD*%
M02*
